<svg xmlns="http://www.w3.org/2000/svg" viewBox="0 0 431.09 593.01"><g id="Warstwa_2" data-name="Warstwa 2"><g id="Warstwa_1-2" data-name="Warstwa 1"><path d="M87,140.66s10.72,27.88,5.11,60.77C76.24,294.11,37.94,311.22,20.83,350.5A183.2,183.2,0,0,0,23.9,501.69c41.29,86.14,204.87,106.51,305.61,63.57,64.76-27.6,76.26-58.81,89.88-106.47,17.25-60.38-2.28-142.1-90.9-198.13-26.38-16.68-21.1-78.29-21.1-78.29s-25.88,12.93-42.9,64.34c-5.93,17.92-1.22,41.51-1.22,41.51S258,278,242.7,238.2c-23.23-60.41,10.9-74.9-12.59-129.37C201.06,41.48,184.75,23,184.75,23s7.82,29.79-3.32,90.64c-5.69,31.09-26.52,43-34.73,94-3.88,24.15-.9,33.17-.9,33.17s-15.34-18.58-18.5-49.85C124,158,87,140.66,87,140.66Z" fill="#ed1c24" stroke="#7c1622" stroke-linecap="round" stroke-miterlimit="10" stroke-width="12"/><path d="M99.47,504.69c-10.92-25-8.4-54.3,1-80s34.92-56.59,31.35-101.53c13.14,21.26,36.8,40.75,40.05,65.53,0,0-6.12-14.81,1.82-40.61,7.68-24.95,27.77-61.95,22.69-87.56,12.66,14.8,32.68,50,27.58,92.42-2.33,19.33,22.75,44.78,22.75,44.78s29.76-18.62,33.7-40.85c8.95,17.44,5.86,16.8,17.36,32.68s34.54,38.17,36.26,57.7c3.06,34.72-4.08,53.1-10.11,67.91-14.56,35.76-36.36,56.68-115.8,56.68-69.15,0-97.35-43.23-108.61-67.18" fill="#f15a24"/><path d="M215.76,551.62c-11.41-.06-23.33-.12-34.72-8.17-13.88-9.8-23.43-26.54-18.67-42,4.68-15.24,10.92-20.43,22.76-41.23C193.91,444.78,205,429,205,429a105.61,105.61,0,0,0,24,35.85c15.76,15.06,28.81,18.37,36.14,30.36,8.36,13.65,5.46,30.83-6.53,44.17C247.49,551.8,230.76,551.7,215.76,551.62Z" fill="#f7931e"/></g></g></svg>