<svg xmlns="http://www.w3.org/2000/svg" viewBox="0 0 455 383"><g id="Warstwa_2" data-name="Warstwa 2"><g id="Warstwa_1-2" data-name="Warstwa 1"><path d="M227.5,382.9q-111.7,0-223.42.1C.67,383,0,382.33,0,378.92Q.17,191.5,0,4.08C0,.67.67,0,4.08,0Q227.51.17,450.92,0c3.41,0,4.08.67,4.08,4.08q-.17,187.43,0,374.84c0,3.41-.67,4.09-4.08,4.08Q339.2,382.81,227.5,382.9ZM390.09,99.77a23.14,23.14,0,0,1-6.18-4.68c-5.19-5.2-10.46-10.33-15.7-15.49-5.06-5.69-9.86-11.58-15.52-16.77C340.32,51.46,325.79,43.14,312,33.77c-9-6.15-19.27-10.78-30.11-12.53-20.77-3.36-41.62-5.85-62.84-4.61-21.42,1.25-42.36,3.56-62.73,11.14C121.72,40.65,90.81,58.15,67.45,88c-19,24.22-32.88,50.93-43.43,79.47-8.59,23.23-11.76,47.64-11.31,72.36.2,11.19-.36,22-4.38,32.6C6.17,278,5,283.88,6,289.94a13,13,0,0,0,7.39,10c4.28,2.05,8.7,1.73,12.22-2.08,2.81-3,4.43-1.13,5.28,1.51C37,318.25,48.29,333.17,65,344c-.47,3.19,2.71,3.92,4.15,5.66,6.64,8,14.53,14.61,24.9,17.13,12.93,3.15,26,5.83,39,8.48,11.79,2.39,23.41,4.7,35.43,4.63,6,0,12.05-1.72,18.09-.89,4.26.59,8.59,1.68,12.74.75,9.45-2.1,18.79-.05,28.09.47,8.91.5,17.89.31,26.77,1.53a6.93,6.93,0,0,0,1.49-.13c14.75-1.34,29.16-4.92,43.8-7.07,14.41-2.11,28.33-7.7,41.6-14.23,6.44-3.18,11.39-8.12,16.26-13.19a12.5,12.5,0,0,0,5.87-1.93c17.91-9.54,33.31-21.92,45.82-38.14,10.76-14,20.31-28.27,23.47-46,.34-1.92,1.27-2.61,3.28-2.75,7.36-.5,10.8-4.15,12-11.31,1.22-7.41-1.26-13.56-5.16-19.58-3.12-4.82-4.43-10-.58-15.21a12.45,12.45,0,0,0,2.05-6c1-7.39-2-13.87-4.21-20.58-1.67-5.14-6.85-7.65-9-12.19-5.07-10.88-10.8-21.39-16.85-31.73-1.6-2.74-2.13-4.38.91-6.93,6.29-5.28,6.19-13.87.62-19.43-5.85-5.84-13.27-9.08-20.55-12.56A5.25,5.25,0,0,0,390.09,99.77Z" fill="#fdfdfd"/><path d="M357.34,347.12c-4.87,5.07-9.82,10-16.26,13.19-13.27,6.53-27.19,12.12-41.6,14.23-14.64,2.15-29.05,5.73-43.8,7.07a6.93,6.93,0,0,1-1.49.13c-8.88-1.22-17.86-1-26.77-1.53-9.3-.52-18.64-2.57-28.09-.47-4.15.93-8.48-.16-12.74-.75-6-.83-12.05.85-18.09.89-12,.07-23.64-2.24-35.43-4.63C120,372.6,107,369.92,94,366.77c-10.37-2.52-18.26-9.14-24.9-17.13-1.44-1.74-4.62-2.47-4.15-5.66,1.47-.46,2.7,1.48,5.52-.3-23.44-21.37-42.28-45.33-45.27-78.29a11.55,11.55,0,0,0-1.71,8.9c.88,5.4,1.33,10.91-.38,16.25-1,3.09-3.18,5-6.68,4.81-2.94-.18-4.59-1.65-4.46-4.76,3.51-2.32,6.14-5.41,7-9.55a89.23,89.23,0,0,0,2.12-23.62c-.11-1.7-.76-4.1,1.65-4.62,2.09-.45,2.35,1.93,3.16,3.26,3.37,5.51,6.09,11.54,10.13,16.49,10.61,13,23.32,24,36,34.92,3.61,3.12,7.57,6.3,11.93,8,27.31,10.64,55.14,17.7,85,13.8,19.35-2.53,38.71-4.7,57.44-10.4,8.36-2.55,17-4.72,24.17-10.15,3.18-2.39,4.51-5,4.1-9.21-.47-4.83-3.73-6.79-6.87-9.06A24.21,24.21,0,0,1,237.67,274c-1.71-12.09,8.24-24.63,20.14-26.58,5-.81,9.51.63,14,2.55,2.59,1.11,4.9,1.25,7.35-.76,3.86-3.16,8.4-3.65,13.18-2.37,2.77.74,5.59,1,8.29-.22a28,28,0,0,1,13.07-2.32c3.77.18,7.52-.47,10.15-3.23,6.33-6.67,13.41-5.65,21-2.95,5.41,1.92,11,2.78,16.06-1.13,5.57-4.35,11-8.35,18-10.85,11-3.91,15.62-13.89,18.21-24.72,3,.37,5.83,1.52,8.9,1,.3.11.6.2.91.29-1.77,6.1,0,11.58,2.94,16.87.78,1.23,1.18,2.78,2.81,3.28.32,1.27.58,2.63,2,3.13a1.28,1.28,0,0,0,1.08-.57c.26-1.8-1-2.6-2.36-3.27-.17-.85-.34-1.7-.52-2.55,2.08-2.83.84-6.07,1.08-9.12.66-8.35,2.26-16.33,7.22-23.36,2.31-3.29,7-4.24,8.16-8.59,7.59,4.55,12.62,21.08,8.71,30.75-2.73,6.78-2,12.83,1.39,18.91a42.64,42.64,0,0,1,5,15c.58,4.21-1.73,7.09-5.09,8.84-3.05,1.59-5.73.09-7.88-2.42-1.77-2.07-3.68-4-5.94-6.51-1.18,4.56,1.66,7.78,1.66,11.52,0,10.94-3.65,20.8-8.34,30.36-11,22.36-28.73,38.4-49.05,52-2.75,1.84-5.7,3.38-8.47,5.17C359.48,343.26,357.1,344.18,357.34,347.12Zm-21.1-108.79-.49-.38.43.44c.1,2.78,3.41,3.42,3.95,5.91a54.68,54.68,0,0,0-6.9.11c-3.4.46-4.41-1-4-4.09l.56-.4c-.1,0-.26,0-.31,0a2.23,2.23,0,0,0-.2.41c-5.69,4.66-6.85,8.65-4.33,15.16.59,1.55,1.78,3,1.92,4.56.25,2.68,2,6.25-2.63,7.22-3.18.66-6.34-2-6.73-5.71a16.5,16.5,0,0,1,.45-3.92,8.43,8.43,0,0,0-7-9.64c-4.87-.7-7.62,2.18-9.5,6.15-.62,1.32-1,3.77-2.57,3-6.09-3.16-5.39,2.35-6.56,5-4.05,9-3,18.41-2.09,27.86.94,9.91,9.71,17.49,19.41,16,6.22-.94,12.55-1.67,18.52-3.51,12.11-3.72,23-9.38,32.38-18.53,7.51-7.34,14.72-14.05,15.34-25.38.43-7.91,3.74-15.47,3.25-23.56-.13-2.13-.23-4.46-2.85-4.31-6.33.38-9.17,6-13.48,9.5-2.42,2-.78,4-.18,5.83s-.21,3.27-1.35,4.47c-1.4,1.49-2.58.35-3.89-.48-2.6-1.64-3.27,0-3.23,2.24,0,2.34.49,4.68,2.48,6.23,1.46,1.14,1.77,2.8,2.25,4.33.91,2.95-.68,4.53-3.29,5.74s-3.95-.29-5.29-2.12-1.08-4.1-1.13-6.23a30.76,30.76,0,0,0-5.81-17A10.53,10.53,0,0,0,336.24,238.33Zm-56.87,63.82c0,5.76-5.18,9.21-6.88,15.49,5.79-4,8.33-8.9,10-14.44a8.14,8.14,0,0,0,1.76-5,297.76,297.76,0,0,1,3.89-38.38c.47-2.87-.93-5.75-3.71-8.62,2.79,4.86-.33,5-3.09,5.72a11.49,11.49,0,0,1-9.45-1.53c-3.62-2.3-7.5-4.6-11.86-4.72-6.39-.17-15,6.39-17.23,12.44-2.6,7.13-.33,17.36,5.08,21.94A83.39,83.39,0,0,0,279.37,302.15Zm22.33,26.48c15.59,7.46,50.45-4.6,57.55-20.24C341.24,320.58,322.56,327.63,301.7,328.63Zm78-67.81c7.22-8.52,8.64-19.55,3.48-26.35C382.67,243.37,378.06,251.12,379.73,260.82Z" fill="#6b6b6b"/><path d="M12,290.6c-.13,3.1,1.52,4.57,4.46,4.75,3.5.21,5.7-1.72,6.68-4.81,1.71-5.34,1.26-10.85.38-16.25a11.55,11.55,0,0,1,1.71-8.9c3,33,21.83,56.92,45.27,78.29-2.82,1.78-4-.16-5.52.3-16.69-10.81-28-25.73-34.08-44.63-.85-2.64-2.47-4.56-5.28-1.51-3.52,3.81-7.94,4.13-12.22,2.08a13,13,0,0,1-7.39-10c-1-6.06.16-11.91,2.32-17.55,4-10.55,4.58-21.41,4.38-32.6-.45-24.72,2.72-49.13,11.31-72.36C34.57,138.89,48.47,112.18,67.45,88c23.36-29.81,54.27-47.31,88.9-60.19,20.37-7.58,41.31-9.89,62.73-11.14,21.22-1.24,42.07,1.25,62.84,4.61C292.76,23,303,27.62,312,33.77c13.76,9.37,28.29,17.69,40.66,29.06,5.66,5.19,10.46,11.08,15.52,16.77L368,82.09a13.11,13.11,0,0,1-4.94-4c-9.13-12.2-21.73-20.43-34.23-28.47-10-6.42-21.05-11.13-31.53-16.79a83,83,0,0,0-26.76-9c-22.17-3.44-44.5-5.47-67-2.83-10.68,1.26-21.45,1.94-31.84,5.23-17.55,5.54-33.31,14.65-49.3,23.49-31.92,17.64-56.53,42.61-75,73.7-9.38,15.8-17.52,32.25-21.69,50.43-4,17.66-7.57,35.42-8.65,53.46-1,16.91-1.73,33.76-5.82,50.31C10.23,281.8,9.7,286.38,12,290.6Z" fill="#273d27"/><path d="M357.34,347.12c-.24-2.94,2.14-3.86,4-5.08,2.77-1.79,5.72-3.33,8.47-5.17,20.32-13.57,38.08-29.61,49.05-52,4.69-9.56,8.34-19.42,8.34-30.36,0-3.74-2.84-7-1.66-11.52,2.26,2.47,4.17,4.44,5.94,6.51,2.15,2.51,4.83,4,7.88,2.42,3.36-1.75,5.67-4.63,5.09-8.84a42.64,42.64,0,0,0-5-15c-3.4-6.08-4.12-12.13-1.39-18.91,3.91-9.67-1.12-26.2-8.71-30.75a368.51,368.51,0,0,0-26.34-48c-1.09-1.68-2-3.55-.2-5.42,1.17,1.14,2.38,2.25,3.51,3.42,1.28,1.33,1.59,4.37,3.93,3.68s3.2-3.62,3.71-6c.39-1.82.68-3.91-.65-5.66-1.47-3-3.93-5-6.67-7-4.66-3.41-10.12-5.92-13.62-10.82h2c7.28,3.48,14.7,6.72,20.55,12.56,5.57,5.56,5.67,14.15-.62,19.43-3,2.55-2.51,4.19-.91,6.93,6,10.34,11.78,20.85,16.85,31.73,2.12,4.54,7.3,7.05,9,12.19,2.19,6.71,5.18,13.19,4.21,20.58a12.45,12.45,0,0,1-2.05,6c-3.85,5.24-2.54,10.39.58,15.21,3.9,6,6.38,12.17,5.16,19.58-1.18,7.16-4.62,10.81-12,11.31-2,.14-2.94.83-3.28,2.75-3.16,17.71-12.71,32-23.47,46-12.51,16.22-27.91,28.6-45.82,38.14A12.5,12.5,0,0,1,357.34,347.12Z" fill="#273d27"/><path d="M368,82.09l.22-2.49c5.24,5.16,10.51,10.29,15.7,15.49a23.14,23.14,0,0,0,6.18,4.68c0,.36,0,.73,0,1.09-.69,1.26-1.6.88-2.45.27C380.17,95.72,373.2,89.81,368,82.09Z" fill="#182f18"/><path d="M390.07,100.86c0-.36,0-.73,0-1.09a5.25,5.25,0,0,1,4.93,3h-2l.06,0a1.47,1.47,0,0,0-1.69-1.12l-1.37-.93Z" fill="#6b6b6b"/><path d="M368,82.09c5.21,7.72,12.18,13.63,19.63,19,.85.61,1.76,1,2.45-.27l-.06-.08-.18,1.06c.88,1,1.85,1.7,3.24,1l-.06,0c3.5,4.9,9,7.41,13.62,10.82,2.74,2,5.2,3.92,6.66,7-1,2-2.54,1.74-4.48,1.38-2.57-.47-5.29-.34-6,3.13-1.81,1.87-.89,3.74.2,5.42a368.51,368.51,0,0,1,26.34,48c-1.14,4.35-5.85,5.3-8.16,8.59-5,7-6.56,15-7.22,23.36-.24,3.05,1,6.29-1.08,9.12a2.27,2.27,0,0,0-.73-.16c-2.77-6.07-3-12.57-2.11-18.91,1.29-9.24,3.3-18.41,12.93-23.12.93-.46,1.27-1.18.92-2a2.11,2.11,0,0,0-2.9-1.13c-2.77,1.06-2.61-.42-2.89-2.58A24.83,24.83,0,0,0,412,157.91c-5.08-5.71-12.65-7.88-17.82-13.33-3.48-4-3.18-10.07-7.67-13.5,2,4.51,2.15,9.63,5.26,13.62,1.92,7.15,5,14,5.24,21.6.13,4.15-2.34,6.55-5.29,6.35-3.32-.22-3.49-4.11-2.71-6.82,1.68-5.83.71-11.34-.6-17.08-1-4.46-3.65-8-5.23-12.08-.52-3.37-2.51-5.46-6-7.47l3.18,6.49c.51,5.78,1.48,11.56,1.46,17.34-.07,17.81,2.34,34.72,15.3,48.38-2.59,10.83-7.22,20.81-18.21,24.72-7,2.5-12.43,6.5-18,10.85-5,3.91-10.65,3.05-16.06,1.13-7.61-2.7-14.69-3.72-21,2.95-2.63,2.76-6.38,3.41-10.15,3.23a28,28,0,0,0-13.07,2.32c-2.7,1.21-5.52,1-8.29.22-4.78-1.28-9.32-.79-13.18,2.37-2.45,2-4.76,1.87-7.35.76-4.46-1.92-9-3.36-14-2.55-11.9,2-21.85,14.49-20.14,26.58a24.21,24.21,0,0,0,10.15,16.46c3.14,2.27,6.4,4.23,6.87,9.06.41,4.26-.92,6.82-4.1,9.21-7.22,5.43-15.81,7.6-24.17,10.15-18.73,5.7-38.09,7.87-57.44,10.4-29.87,3.9-57.7-3.16-85-13.8-4.36-1.7-8.32-4.88-11.93-8-12.66-10.94-25.37-21.91-36-34.92-4-4.95-6.76-11-10.13-16.49-.81-1.33-1.07-3.71-3.16-3.26-2.41.52-1.76,2.92-1.65,4.62A89.23,89.23,0,0,1,19,281c-.86,4.14-3.49,7.23-7,9.55-2.3-4.21-1.77-8.79-.73-13,4.09-16.55,4.8-33.4,5.82-50.31,1.08-18,4.6-35.8,8.65-53.46,4.17-18.18,12.31-34.63,21.69-50.43,18.47-31.09,43.08-56.06,75-73.7,16-8.84,31.75-17.95,49.3-23.49,10.39-3.29,21.16-4,31.84-5.23,22.46-2.64,44.79-.61,67,2.83a83,83,0,0,1,26.76,9c10.48,5.66,21.55,10.37,31.53,16.79,12.5,8,25.1,16.27,34.23,28.47A13.11,13.11,0,0,0,368,82.09ZM193.55,281.15c-.28.23-1.07,0-.69.79,0,.1.27.13.42.15,7.61.86,13.57-2.17,18.44-7.79,8.52-8.61,11.74-19.05,10.68-31,2.19.2,4-1,6-1.49,3-.7,5.76-2.74,9.07-1.46-.27.85-1.6,1.58-.56,2.56.82.78,1.48-.15,2-.67a19,19,0,0,0,2.11-2.1c10.92-13.56,20-28.15,24.11-45.28,2.95-12.31,7.06-24.42,7.18-37.28,1.24-3.14,1.69-6.25-.56-9.31-.16,1.76-.33,3.53-.49,5.3a2.53,2.53,0,0,1-2.06-1.16c-2.95-4.12-7.45-4.58-11.58-3.5s-5.83,5-6.27,9.22c-.15,1.47-.61,2.9-.76,4.36-.24,2.37-.38,5.18-3.63,4.58-2.87-.52-2.1-3-1.74-5.22.74-4.5-.43-8.65-4-11.63s-7.67-1.47-11.13.39c-2.87,1.54-4.31.26-6.53-1.18-2.76-1.77-.86-5.66-3.9-6.93-.85-2,3.21-3.08,1.09-5.51-4.84,3.09-4.46,7.9-4.37,12.61a4.23,4.23,0,0,0-.28.85c-2.24.5-2.51,2.18-2.77,4.12-.73,5.3-2.39,10-6.2,14.23-2.93,3.21-6,6.46-7.92,10.67a70.65,70.65,0,0,0-6.88,32.63c-5.45.43-10.92.68-16.35,1.31-12.52,1.45-21.05,8.12-25.5,19.95-1.57,5.57-1.58,11,1.25,16.38-1-5.13.6-10,1-15,7.32-12.75,18.16-18.79,33-17.41,9.54.89,18.57,2.58,23.06,12.63-.75,3.76,1.39,7,1.88,10.56,1.71,12.51,1.62,24.31-9.86,33C198.22,275.67,194.34,277,193.55,281.15ZM100.1,283c-2.23-3.14-3.08-6.48-1.29-10.09.54-1.1.51-1.94-.54-2.44s-1.61.32-1.78,1.16c-.91,4.55-2,9.22.05,13.65,2.51,5.46,12.58,9.64,19,8.26,6.13-1.31,9.27-6.34,10-14,.89-8.92-6.49-15.23-6-24.9-3.43,4.21-3,7.57-1.74,10.91.85,2.29,2,4.46,3.1,6.69-.37.51-1,1-1.07,1.54-1,6-4.55,9.16-10.54,10.17C106.09,284.51,103.15,283.71,100.1,283Zm42.82-111.37.42-3.13c4.23-6.8,3.18-13.84-3.33-19.37,3.16,6.32,3.22,12.84,1.77,19.47-1.57,3.29-3,6.67-4.75,9.85a20.32,20.32,0,0,0-2.29,12c.48,5.59,4.72,10.71,9.13,11,9.4.69,17.64-5.46,16.41-16.47-.94-8.33-4.5-16.35-2.85-25.07-4.3,5.69-4.33,11.7-.52,22.51-1.9,1.2-1.86,3.6-3.45,5.2-4.38,4.39-9.6,2.32-14.51,2.64-2-5-.84-9.75,3.17-13.16,1.3,3.46,3.42,4,6.38,1.86s2.53-4.59.68-7.16C147.21,169.17,145,172.13,142.92,171.66Zm141.13-5.26a25.13,25.13,0,0,0,1.09-2.71c.25-.93,2-1.87.4-2.83-1.25-.74-2.05.35-2.55,1.47-1,2.18-2.89,4-2.92,6.59-1.52,1.66-2,3.76-2.49,5.86a209.7,209.7,0,0,1-9.05,30.36c-2.24,5.68-4.83,11.26-6.53,17.1-1.46,5-1.46,10.23,3.8,13.65L267,237c.67-.82.24-1.31-.5-1.7l-.73-3.88c4.61,0,9.22.1,13.83,0,8.82-.26,14.5-6,14.72-14.81.14-5.79.48-11.65-.11-17.39C293,187.61,290,176.52,284.05,166.4Zm83.3-31.87a4.61,4.61,0,0,1-3,2.46c-8.56,2.92-14.08,9.36-19.1,16.4-1.39,2-2.43,4.27-4.88,5.23-3.33-5.23-5-5.15-8.34.4-.26.42-.49.86-.78,1.27-5.23,7.63-4.93,16.58-5.93,25.21a2.8,2.8,0,0,0,.84,2.16c1.11.89,1.71-.4,2.39-1,2.27-1.93,2.95-4.62,3.73-7.36,1.8-6.27,2.82-12.9,7.45-18-.26,4.55-2.66,8.44-3.89,12.7-3,10.54-3.59,21,.78,31.26,3.75,8.81,13.32,12.3,22.31,8.8,8-3.12,16-6.63,24.95-5.52-.22,3.72-2.48,6.52-4.45,9.61,5.36-1.6,7.08-5,7-13.69a21.88,21.88,0,0,0-1.29-6.29c-3.63-11.35-7.34-22.67-7.68-34.78-.18-6.11-1.1-12.2-1.55-18.3a6.6,6.6,0,0,0-2.92-5.4c-.2-3.14-2.52-4.9-4.69-6.49C366.84,132.09,366.32,133,367.35,134.53ZM91.63,148.68c3.2.63,6.31-.83,9.31-2.77,7.77-5,13.23-12.53,19.77-18.87,10.67-10.36,21.58-20.26,36.55-23.94a36.15,36.15,0,0,0,12.2-5.35c4.89-3.42,11-6.15,10.19-13.94-.75-7-11.35-17.1-22.64-14.2-17.48,4.5-32.89,13-46.84,24.33a127.83,127.83,0,0,0-30,34.87C74.49,138.63,80,148.49,91.63,148.68ZM225.25,76.79A63.56,63.56,0,0,0,240,75.85c4.29-.71,9-5.29,9.17-9.79.23-4.77-3.73-5.74-7.08-7.09a11.65,11.65,0,0,0-3.84-.91,87.25,87.25,0,0,0-30.33,4c-3.46,1.1-5.24,4-5.36,7.61s2.78,4.55,5.46,5.42A43.22,43.22,0,0,0,225.25,76.79ZM268.7,113.7a9.13,9.13,0,0,0-7.81,3c-1.44,1.46-2.24,3.28-.87,4.87,6,6.91,13,12.31,22.37,13.52,2.46.32,4.09-1.28,3.95-4C285.8,121.28,278.36,113.43,268.7,113.7Zm73.68,21c7.85-.11,15.48-12.7,11.93-19.66-1.8-3.54-5.46-4.58-9.26-2.55-4.94,2.64-7.95,7-9.58,12.12C333.54,130.68,336.63,134.81,342.38,134.73ZM160.7,240.35c.06,1.12-.19,2.42,1.28,2.88,1.74.54,2.81-.4,3.63-1.8,3.34-5.75,8.37-9.64,14.08-12.8a26.45,26.45,0,0,0,3.28-2.2c.78-.6,1.64-1.34,1.26-2.46s-1.33-1.29-2.36-1.48C172.85,220.76,160.47,231.18,160.7,240.35ZM267.81,72c3.59.89,5.51-1.4,6.17-4.86.51-2.71-4.16-7.38-7.12-7s-6.54.36-6.55,5S262.18,71.8,267.81,72ZM111.88,270.54c-.26-2.17-1.24-4.27-4.1-4.12-2.48.13-4.93.92-4.94,4.24,0,2.76,1.4,4.31,4.1,4.49C109.86,275.34,111.55,273.91,111.88,270.54Zm-14-17.68c1.85,4.19,3.68,7.35,2.79,11.12-.16.65-.89,1.68.31,2.06s1.61-.59,2.07-1.53C105.06,260.4,103.55,256.28,97.89,252.86Z" fill="#979797"/><path d="M343.34,243.22a30.76,30.76,0,0,1,5.81,17c.05,2.13-.28,4.32,1.13,6.23s2.54,3.39,5.29,2.12,4.2-2.79,3.29-5.74c-.48-1.53-.79-3.19-2.25-4.33-2-1.55-2.44-3.89-2.48-6.23,0-2.19.63-3.88,3.23-2.24,1.31.83,2.49,2,3.89.48,1.14-1.2,2-2.54,1.35-4.47s-2.24-3.87.18-5.83c4.31-3.46,7.15-9.12,13.48-9.5,2.62-.15,2.72,2.18,2.85,4.31.49,8.09-2.82,15.65-3.25,23.56-.62,11.33-7.83,18-15.34,25.38-9.35,9.15-20.27,14.81-32.38,18.53-6,1.84-12.3,2.57-18.52,3.51-9.7,1.46-18.47-6.12-19.41-16-.89-9.45-2-18.86,2.09-27.86,1.17-2.62.47-8.13,6.56-5,1.55.8,1.95-1.65,2.57-3,1.88-4,4.63-6.85,9.5-6.15a8.43,8.43,0,0,1,7,9.64,16.5,16.5,0,0,0-.45,3.92c.39,3.74,3.55,6.37,6.73,5.71,4.62-1,2.88-4.54,2.63-7.22-.14-1.57-1.33-3-1.92-4.56-2.52-6.51-1.36-10.5,4.33-15.16l-.05-.06c-.38,3.07.63,4.56,4,4.1a54.68,54.68,0,0,1,6.9-.11Z" fill="#182f18"/><path d="M279.37,302.15A83.39,83.39,0,0,1,247.84,285c-5.41-4.58-7.68-14.81-5.08-21.94C245,257,253.6,250.46,260,250.63c4.36.12,8.24,2.42,11.86,4.72a11.49,11.49,0,0,0,9.45,1.53c2.76-.68,5.88-.86,3.09-5.72,2.78,2.87,4.18,5.75,3.71,8.62a297.76,297.76,0,0,0-3.89,38.38,8.14,8.14,0,0,1-1.76,5Z" fill="#182f18"/><path d="M383.19,136.67c1.58,4.09,4.22,7.62,5.23,12.08,1.31,5.74,2.28,11.25.6,17.08-.78,2.71-.61,6.6,2.71,6.82,2.95.2,5.42-2.2,5.29-6.35-.22-7.63-3.32-14.45-5.24-21.6l2.41-.12c5.17,5.45,12.74,7.62,17.82,13.33a24.83,24.83,0,0,1,6.09,13.75c.28,2.16.12,3.64,2.89,2.58a2.11,2.11,0,0,1,2.9,1.13c.35.8,0,1.52-.92,2-9.63,4.71-11.64,13.88-12.93,23.12-.89,6.34-.66,12.84,2.11,18.91l-2.29.14c-2.93-5.29-4.71-10.77-2.94-16.87l-.24-2.31c-1,.43-.56,1.32-.67,2-3.07.57-5.94-.58-8.9-1-13-13.66-15.37-30.57-15.3-48.38,0-5.78-.95-11.56-1.46-17.34Z" fill="#182f18"/><path d="M301.7,328.63c20.86-1,39.54-8.05,57.55-20.24C352.15,324,317.29,336.09,301.7,328.63Z" fill="#273d27"/><path d="M379.73,260.82c-1.67-9.7,2.94-17.45,3.48-26.35C388.37,241.27,387,252.3,379.73,260.82Z" fill="#182f18"/><path d="M279.37,302.15l3.08,1.05c-1.63,5.54-4.17,10.44-10,14.44C274.19,311.36,279.37,307.91,279.37,302.15Z" fill="#273d27"/><path d="M343.34,243.22l-3.21,1.08c-.54-2.49-3.85-3.13-3.95-5.91l.06-.06A10.53,10.53,0,0,1,343.34,243.22Z" fill="#273d27"/><path d="M413.41,222.08c1.37.68,2.61,1.48,2.35,3.28a1.28,1.28,0,0,1-1.08.57c-1.43-.5-1.69-1.86-2-3.13Z" fill="#273d27"/><path d="M409.86,219.52l2.29-.14a2.27,2.27,0,0,1,.73.16c.18.85.35,1.7.52,2.55l-.73.71C411,222.3,410.64,220.75,409.86,219.52Z" fill="#273d27"/><path d="M406,202.36c.11-.7-.31-1.59.67-2l.24,2.31C406.61,202.56,406.31,202.47,406,202.36Z" fill="#273d27"/><path d="M336.18,238.39l-.43-.44.49.38Z" fill="#273d27"/><path d="M329.25,240.37a2.23,2.23,0,0,1,.2-.41c.05-.06.21,0,.31,0l-.56.4Z" fill="#182f18"/><path d="M402.8,125.09c.72-3.47,3.44-3.6,6-3.13,1.94.36,3.46.65,4.48-1.38,1.34,1.75,1,3.84.66,5.66-.51,2.33-1.24,5.23-3.71,6s-2.65-2.35-3.93-3.68C405.18,127.34,404,126.23,402.8,125.09Z" fill="#6b6b6b"/><path d="M393.07,102.83c-1.39.71-2.36,0-3.23-1l1.54-.13A1.47,1.47,0,0,1,393.07,102.83Z" fill="#273d27"/><path d="M391.38,101.71l-1.54.13c.05-.35.11-.7.17-1.06Z" fill="#182f18"/><path d="M216.21,150.48a4.23,4.23,0,0,1,.28-.85l2-1c0,3.32,0,6.63.1,9.94.13,4.94.81,5.19,5.19,3.46,3.42-1.36,4.93-4.14,6.8-6.87,2-3,5.13-4.75,8.58-3.07,3.15,1.53,3.9,4.61,2.76,8.1a35.43,35.43,0,0,0-1.36,6.29c-.32,2.33-.44,4.87,1.9,6.27s5,2.31,8,.86c5.56-2.71,7.13-6.09,5.53-13.69-.59-2.79-1-5.54,1.93-7,3.14-1.51,6.49-2.58,9.48.9,1.16,1.35,2,3.29,4.07,3.7h1c-.12,12.86-4.23,25-7.18,37.28-4.1,17.13-13.19,31.72-24.11,45.28a19,19,0,0,1-2.11,2.1c-.57.52-1.23,1.45-2,.67-1-1,.29-1.71.56-2.56,1.81-1.37,2.77-3.26,3.75-5.82-6.12,1.5-11.65,2.81-17.16,4.21-2.66.67-3.64,2.1-1.71,4.56,1.06,11.92-2.16,22.36-10.69,31L209.9,274a4.76,4.76,0,0,1,.61-1.35c9.72-10.73,6.3-34.5-1.57-42.66-4.49-10.05-13.52-11.74-23.06-12.63-14.83-1.38-25.67,4.66-33,17.41l-2.3-1.41c4.45-11.83,13-18.5,25.5-19.95,5.43-.63,10.9-.88,16.35-1.31,3.94,1.94,5.31.45,5.71-3.65,1-10.66,4.07-20.81,8.54-31.35,4.15,5.79,7.55,11,4.76,17.76-1.14,2.79-.89,5.48,1.49,7.08s4.82.38,6.77-1.43c2.33-2.18,2.43-4.59.41-7a5.79,5.79,0,0,1-1.54-3.56c-.52-10.53-2.76-20.94-2.05-31.56A72.53,72.53,0,0,0,216.21,150.48Z" fill="#182f18"/><path d="M91.63,148.68c-11.63-.19-17.14-10.05-11.42-19.87a127.83,127.83,0,0,1,30-34.87c14-11.38,29.36-19.83,46.84-24.33,11.29-2.9,21.89,7.24,22.64,14.2.83,7.79-5.3,10.52-10.19,13.94a36.15,36.15,0,0,1-12.2,5.35c-15,3.68-25.88,13.58-36.55,23.94-6.54,6.34-12,13.82-19.77,18.87C97.94,147.85,94.83,149.31,91.63,148.68Z" fill="#d1d1d1"/><path d="M373.05,139.69a6.6,6.6,0,0,1,2.92,5.4c.45,6.1,1.37,12.19,1.55,18.3.34,12.11,4.05,23.43,7.68,34.78a21.88,21.88,0,0,1,1.29,6.28l-2.12-1c-8.08.76-16,2-23.55,5.28-7.79,3.4-14.06,2.13-17.57-3.81-3-5-5.14-10.48-4.85-16.46A64.09,64.09,0,0,1,352.71,151c4.32-5.4,9.75-11.25,18.27-10.37Z" fill="#182f18"/><path d="M265.8,235.9c-5.26-3.43-5.26-8.64-3.8-13.66,1.7-5.84,4.29-11.42,6.53-17.1a209.7,209.7,0,0,0,9.05-30.36c.48-2.1,1-4.2,2.5-5.86l1.27,1.64c7.32,13.28,9.31,27.72,8.79,42.56-.31,8.81-4.8,13.06-13.35,14.42a64.71,64.71,0,0,1-9.82.89c-2.51,0-3.64.83-1.2,3l.73,3.88A4.14,4.14,0,0,0,265.8,235.9Z" fill="#182f18"/><path d="M225.25,76.79A43.22,43.22,0,0,1,208,75.09c-2.68-.87-5.58-1.75-5.46-5.42s1.9-6.51,5.36-7.61a87.25,87.25,0,0,1,30.33-4,11.65,11.65,0,0,1,3.84.91c3.35,1.35,7.31,2.32,7.08,7.09-.22,4.5-4.88,9.08-9.17,9.79A63.56,63.56,0,0,1,225.25,76.79Z" fill="#d1d1d1"/><path d="M371,140.61c-8.52-.88-14,5-18.27,10.37a64.09,64.09,0,0,0-14.31,37.45c-.29,6,1.87,11.42,4.85,16.46,3.51,5.94,9.78,7.21,17.57,3.81,7.51-3.3,15.47-4.52,23.54-5.28-.14,1.71-.29,3.41-.43,5.12-9-1.11-16.93,2.4-24.95,5.52-9,3.5-18.56,0-22.31-8.8-4.37-10.24-3.81-20.72-.78-31.26,1.23-4.26,3.63-8.15,3.89-12.7.22-.89.43-1.78.64-2.68,2.45-1,3.49-3.28,4.88-5.23,5-7,10.54-13.48,19.1-16.4a4.57,4.57,0,0,0,2.94-2.46C368.75,136.44,370.37,138.23,371,140.61Z" fill="#6b6b6b"/><path d="M216.21,150.48a72.53,72.53,0,0,1,.32,7.92c-.71,10.62,1.53,21,2.05,31.56a5.79,5.79,0,0,0,1.54,3.56c2,2.43,1.92,4.84-.41,7-2,1.81-4.47,3-6.77,1.43s-2.63-4.29-1.49-7.08c2.79-6.81-.61-12-4.76-17.76-4.47,10.54-7.51,20.69-8.54,31.35-.4,4.1-1.77,5.59-5.71,3.65a70.65,70.65,0,0,1,6.88-32.63c1.94-4.21,5-7.46,7.92-10.67,3.81-4.19,5.47-8.93,6.2-14.23C213.7,152.66,214,151,216.21,150.48Z" fill="#6b6b6b"/><path d="M271.39,157.61c-2.09-.41-2.91-2.35-4.07-3.7-3-3.48-6.34-2.41-9.48-.9-2.93,1.41-2.52,4.16-1.93,7,1.6,7.6,0,11-5.53,13.69-3,1.45-5.53.59-8-.86s-2.22-3.94-1.9-6.27a35.43,35.43,0,0,1,1.36-6.29c1.14-3.49.39-6.57-2.76-8.1-3.45-1.68-6.54.11-8.58,3.07-1.87,2.73-3.38,5.51-6.8,6.87-4.38,1.73-5.06,1.48-5.19-3.46-.08-3.31-.07-6.62-.1-9.94l1.32-6.14c3,1.27,1.14,5.16,3.9,6.93,2.22,1.44,3.66,2.72,6.53,1.18,3.46-1.86,7.48-3.43,11.13-.39s4.73,7.13,4,11.63c-.36,2.23-1.13,4.7,1.74,5.22,3.25.6,3.39-2.21,3.63-4.58.15-1.46.61-2.89.76-4.36.44-4.24,2.12-8.14,6.27-9.22s8.63-.62,11.58,3.5a2.53,2.53,0,0,0,2.06,1.16Z" fill="#6b6b6b"/><path d="M268.7,113.7c9.66-.27,17.1,7.58,17.64,17.4.14,2.67-1.49,4.27-3.95,4C273,133.84,266,128.44,260,121.53c-1.37-1.59-.57-3.41.87-4.87A9.13,9.13,0,0,1,268.7,113.7Z" fill="#6b6b6b"/><path d="M265.77,231.4c-2.44-2.14-1.31-3,1.2-3a64.71,64.71,0,0,0,9.82-.89c8.55-1.36,13-5.61,13.35-14.42.52-14.84-1.47-29.28-8.79-42.56l2.7-4.16c5.95,10.12,9,21.21,10.16,32.76.59,5.74.25,11.6.11,17.39-.22,8.86-5.9,14.55-14.72,14.81C275,231.5,270.38,231.4,265.77,231.4Z" fill="#6b6b6b"/><path d="M342.38,134.73c-5.75.08-8.84-4-6.91-10.09,1.63-5.1,4.64-9.48,9.58-12.12,3.8-2,7.46-1,9.26,2.55C357.86,122,350.23,134.62,342.38,134.73Z" fill="#6b6b6b"/><path d="M142.12,177.2c-4,3.41-5.15,8.14-3.17,13.16,1.52,4.47,4.72,6.06,9.53,4.73,6.71-1.85,9.88-6.57,8.43-12.57-3.81-10.81-3.78-16.82.52-22.51-1.65,8.72,1.91,16.74,2.85,25.07,1.23,11-7,17.16-16.41,16.47-4.41-.33-8.65-5.45-9.13-11a20.32,20.32,0,0,1,2.29-12c1.77-3.18,3.18-6.56,4.75-9.85l1.56-.1-.42,3.13A12.06,12.06,0,0,0,142.12,177.2Z" fill="#273d27"/><path d="M121,272.24c-1-2.23-2.25-4.4-3.1-6.69-1.25-3.34-1.69-6.7,1.74-10.91-.51,9.67,6.87,16,6,24.9-.76,7.69-3.9,12.72-10,14-6.44,1.38-16.51-2.8-19-8.26-2.05-4.43-1-9.1-.05-13.65.17-.84.81-1.63,1.78-1.16s1.08,1.34.54,2.44c-1.79,3.61-.94,6.95,1.29,10.09,4.26,6.64,11.55,8,19.33,3.7C123.72,284.34,124.25,279.37,121,272.24Z" fill="#273d27"/><path d="M208.94,230c7.87,8.16,11.29,31.93,1.57,42.66a4.48,4.48,0,0,0-.6,1.35c-5.14,3.09-10.4,5.92-16.36,7.12.79-4.13,4.67-5.48,7.41-7.56,11.48-8.7,11.57-20.5,9.86-33C210.33,237,208.19,233.78,208.94,230Z" fill="#6b6b6b"/><path d="M340.42,158.62c-.21.9-.42,1.79-.64,2.68-4.63,5.12-5.65,11.75-7.45,18-.78,2.74-1.46,5.43-3.73,7.36-.68.58-1.28,1.87-2.39,1a2.8,2.8,0,0,1-.84-2.16c1-8.63.7-17.58,5.93-25.21.29-.41.52-.85.78-1.27C335.42,153.47,337.09,153.39,340.42,158.62Z" fill="#d1d1d1"/><path d="M160.7,240.34c-.23-9.16,12.15-19.58,21.17-17.85,1,.19,2,.46,2.36,1.48s-.48,1.86-1.26,2.46a26.45,26.45,0,0,1-3.28,2.2c-5.71,3.16-10.74,7.05-14.08,12.8-.82,1.4-1.89,2.34-3.63,1.8C160.51,242.77,160.76,241.47,160.7,240.34Z" fill="#d1d1d1"/><path d="M121,272.24c3.28,7.13,2.75,12.1-1.54,14.49-7.78,4.34-15.07,2.94-19.33-3.7,3.05.68,6,1.48,9.26.92,6-1,9.52-4.17,10.54-10.17C120,273.22,120.6,272.75,121,272.24Z" fill="#6b6b6b"/><path d="M267.81,72c-5.63-.16-7.51-2.13-7.5-6.87s3.57-4.68,6.55-5,7.63,4.32,7.12,7C273.32,70.56,271.4,72.85,267.81,72Z" fill="#d1d1d1"/><path d="M156.91,182.52c1.45,6-1.72,10.72-8.43,12.57-4.81,1.33-8-.26-9.53-4.73,4.91-.32,10.13,1.75,14.51-2.64C155.05,186.12,155,183.72,156.91,182.52Z" fill="#6b6b6b"/><path d="M222.4,243.33c-1.93-2.46-1-3.89,1.71-4.56,5.51-1.4,11-2.71,17.16-4.21-1,2.56-1.94,4.45-3.75,5.82-3.31-1.28-6.08.76-9.07,1.46C226.43,242.32,224.59,243.53,222.4,243.33Z" fill="#6b6b6b"/><path d="M111.88,270.54c-.33,3.37-2,4.8-4.94,4.61-2.7-.18-4.11-1.73-4.1-4.49,0-3.32,2.46-4.11,4.94-4.24C110.64,266.27,111.62,268.37,111.88,270.54Z" fill="#d1d1d1"/><path d="M142.12,177.2a12.06,12.06,0,0,1,.8-5.54c2.07.47,4.29-2.49,6.26.24,1.85,2.57,2.28,5-.68,7.16S143.42,180.66,142.12,177.2Z" fill="#d1d1d1"/><path d="M143.34,168.53l-1.56.1c1.45-6.63,1.39-13.15-1.77-19.47C146.52,154.69,147.57,161.73,143.34,168.53Z" fill="#6b6b6b"/><path d="M193.55,281.15c6-1.2,11.22-4,16.36-7.12l1.8.27c-4.86,5.62-10.82,8.65-18.43,7.79-.15,0-.37,0-.42-.15C192.48,281.17,193.27,281.38,193.55,281.15Z" fill="#273d27"/><path d="M383.93,208.54c.14-1.71.29-3.41.43-5.12l2.13,1c.07,8.68-1.65,12.1-7,13.7C381.45,215.06,383.71,212.26,383.93,208.54Z" fill="#273d27"/><path d="M97.89,252.86c5.66,3.42,7.17,7.54,5.17,11.65-.46.94-.83,1.94-2.07,1.53s-.47-1.41-.31-2.06C101.57,260.21,99.74,257.05,97.89,252.86Z" fill="#273d27"/><path d="M394.19,144.58l-2.41.12c-3.11-4-3.31-9.11-5.26-13.62C391,134.51,390.71,140.63,394.19,144.58Z" fill="#273d27"/><path d="M150.59,233.39l2.3,1.41c-.45,5-2.07,9.84-1,15C149,244.43,149,239,150.59,233.39Z" fill="#6b6b6b"/><path d="M219.77,142.53l-1.32,6.14-2,1c-.09-4.71-.47-9.52,4.37-12.61C223,139.45,218.92,140.49,219.77,142.53Z" fill="#273d27"/><path d="M284.05,166.4l-2.7,4.16-1.27-1.64c0-2.62,1.91-4.41,2.91-6.59.5-1.12,1.3-2.21,2.55-1.47,1.61,1-.15,1.9-.4,2.83A25.13,25.13,0,0,1,284.05,166.4Z" fill="#273d27"/><path d="M371,140.61c-.61-2.38-2.23-4.17-3.64-6.08-1-1.53-.5-2.44,1-1.33,2.17,1.59,4.49,3.35,4.69,6.49Z" fill="#273d27"/><path d="M271.39,157.61l0-4c.16-1.77.33-3.54.49-5.3,2.25,3.06,1.8,6.17.56,9.31Z" fill="#273d27"/><path d="M383.19,136.67l-2.84-1-3.18-6.49C380.68,131.21,382.67,133.3,383.19,136.67Z" fill="#273d27"/><path d="M266.5,235.28c.74.39,1.17.88.5,1.7l-1.2-1.08A4.14,4.14,0,0,1,266.5,235.28Z" fill="#182f18"/></g></g></svg>