<svg xmlns="http://www.w3.org/2000/svg" viewBox="0 0 534 563"><g id="Warstwa_2" data-name="Warstwa 2"><g id="Warstwa_1-2" data-name="Warstwa 1"><path d="M0,0H534V563H0Z" fill="#fdfefd"/><path d="M415.76,211.66q-8.82-15.22-17.66-30.45c-.66-1.15-1.46-2.22-2.12-3.38-16.05-28.51-36.17-53.93-57.88-78.33C325.76,85.62,315,70.31,303.84,55.41c-1.92-2.56-2.41-6.28-3.22-9.54-.43-1.73.08-3.67-.17-5.47-1.68-12.46,5-20.26,14.68-26.27,4.08-2.53,8.33-4.8,12.54-7.12,9.61-5.28,20.16-4.95,30.62-4.93a5.26,5.26,0,0,1,4,2.07c3.92,7.43,7.95,14.86,11.17,22.61,5.47,13.15,10.37,26.53,15.63,40.13a14.87,14.87,0,0,0,7.16-12.14c.76-9,2.2-17.83,2.86-26.78.33-4.54,2.91-6.88,6.56-7.5,5.73-1,12.12.05,15.72,4.26,2.84,3.34,4.37,9.28,3.84,13.75-1.79,15.16-4.62,30.21-7.31,45.25s-3.79,30-.53,45.09a23.33,23.33,0,0,0,2.21,6c8.25,15.38,16.08,30.91,20,48.1,1,4.2,4.68,4.63,7.93,4.37,3.76-.3,5.79,1.16,7.59,4.19,3.42,5.8,3.07,11.61.4,17.4,10.56,5.24,12.86,6.21,10.95,19.73,2.53,2.61,5.06,4.41,6.5,6.86,3.67,6.25-1.12,10.73-4.59,14.61-2.38,2.65-2.56,4.29-1.29,7.14a86.61,86.61,0,0,1,4,10.71c2.4,8.07-3,15.23-12,15.52.51,4.43,1,8.82,1.52,13.21,1.22,10.34,2.28,20.7,3.71,31,.72,5.19,2.12,10.29,3.17,15.44.9,4.4-4.89,10.61-9.12,9.09-7-2.5-10.71,1-14.65,5.84q-19.94,24.6-40.36,48.81c-3.4,4-7.89,7.06-11.88,10.56-2.83-.33-2-2.53-2.21-4.24,1.59-6.14,6.63-9.83,10.5-14.24,13.34-15.24,27.86-29.38,40.9-44.89,2.52-3,6-4.69,9.26-6.63,2.38-1.11,4.8-.8,7.31-.51,3.51.42,5.54-1.38,4.62-4.48-3.35-11.27-2.06-23-3.92-34.43-1.68-10.29-3.14-20.62-5.05-30.88a22.52,22.52,0,0,0-4.7-10.79c-2.33-3.9-.68-9-3.95-12.37-.56,1.75-.88,4-2.43,5.65-1.81,1.89-3.77,2.93-5.16-.53a69.19,69.19,0,0,1,1-8.86c.59-4,.63-7.87-1.94-11.4-1.74-2.38-1.95-5.21-1.43-8.08a10.09,10.09,0,0,0,.54-3.06,90.52,90.52,0,0,0-8.19,6.45c-3.86,1.82-4.28,6.48-7.36,8.94-3.32-1.51-4.15-4.67-1.86-8.25A28,28,0,0,1,423.1,228c1.94-1.58,1.66-2.93-.1-4.43-2.13-1.79-4.66-3.27-5.47-6.23A51.31,51.31,0,0,0,415.76,211.66Z" fill="#1d341c"/><path d="M180.7,418.37c1.2,8.37,2.44,16.72,3.58,25.09,2.1,15.36-.71,29.89-7.39,43.79-1.24,2.56-2.8,3.91-5.8,3.34a31.54,31.54,0,0,0-5-.21c-6.65-.16-7.17-.85-9.67-7.41-5.2-13.66-5.95-27.84-5.29-42.18.41-9,1.22-17.89,1.91-27.55-4.8-.78-9.86-1.36-14.79-2.49a14.94,14.94,0,0,1-6.83-3.36c-8.49-8.19-17.39-16.1-24.83-25.2-7.24-8.86-16.75-12.73-26.91-15.73-12.25-3.62-24.64-6.75-37-9.82-3-.74-4.55-2.1-5.49-4.91-1.36-4.08-3.23-8-4.53-12.11-6.27-19.86-16.5-37.55-28.92-54.14a14.41,14.41,0,0,1-2.5-8.6c.53-12.46,1.57-24.9,2.43-37.34,0-.5.1-1,.12-1.49.32-8.87.29-8.71,9.42-6.88,11.39,2.28,22.84,4.18,34.23,6.44a22.8,22.8,0,0,1,7.32,2.77c16.9,10.24,33.39,21.2,50.69,30.7,7.33,4,16.26,5.2,24.55,7.34,1,.26,3.22-1.3,3.72-2.5,2.62-6.27,4.9-12.68,7.23-19.06,2.8-7.69,6.23-15,12.12-20.9,1.19-1.2,1.25-3.52,1.84-5.33a1.32,1.32,0,0,1,1-.35,3.46,3.46,0,0,0,2.41-1.41q7-6.92,13.85-13.9c2.39-1.68,3.58-5.3,7.44-4.62a2.18,2.18,0,0,1,.63,1.24c-.19,2.4-2.1,3.65-3.55,5.18-5.24,5.52-11,10.54-15.9,16.37a9.32,9.32,0,0,1-.92,1.06,15.86,15.86,0,0,0-1.85,2.16c-10.16,10.17-12.75,23.74-16.47,36.78-1.08,3.82-.15,5,4.3,5,4.61.05,8.65.61,12.22,4.22a20.19,20.19,0,0,1,6.2,13.43,186.7,186.7,0,0,0,8.59,40.35C175.4,344,180.75,350.7,186.2,357c.88,3.1,4.28,5.45,2.81,9.27-1,.85-2,.29-2.92-.1-8.66-3.57-11.45-12.06-15.78-19.15-7.43-12.16-8.66-26.39-12.63-39.71-1.35-4.52-2.74-8.85-5.77-12.52-2.13-4.43-5.64-6.73-10.51-7.3-2.46-.29-4.91-1-7.36-1.19-18.19-1.38-33.21-10.7-48.6-19.13-11.64-6.37-23.34-12.62-35-18.89a24,24,0,0,0-10.92-3.11c-7.8-.11-15.55-.9-23.32-1.19-2.28-.18-2.63,1.24-2.88,3.1C12,257,10.92,266.9,9.5,276.77a10,10,0,0,0,2.13,7.46c4.9,6.91,9.59,14,14.76,20.69A56.33,56.33,0,0,1,37.13,328.2c1.75,5.54,3.39,11.12,5.06,16.68,1.22,4.12,3.52,6.23,7.74,7.32,19.44,5.05,38.95,9.86,58.41,14.9a14.63,14.63,0,0,1,9.36,6.66c4.71,7.44,10,14.54,14.5,22.08,3.07,5.12,6.82,8.35,13,8.43,1.64,0,3.21.83,4.9.75a12.59,12.59,0,0,1,1.5.1c7.89,1.2,7.89,1.2,9-6.69a14.61,14.61,0,0,1,.83-3.39c1.26-3.21,3.47-5.37,7-5.52s5.61,2.14,6.89,4.94a75.88,75.88,0,0,1,3.61,10.35,65.61,65.61,0,0,0,1.73,7.56C180.86,414.36,182.11,416.35,180.7,418.37Z" fill="#1e351d"/><path d="M386.53,428.42c.71,12.78,1.3,25.59-1.85,38.15a106.7,106.7,0,0,1-5.26,16c-3.85,9-18.11,11.08-23.14,2.81-1.37-2.26-3.44-4.12-4.67-6.44s-1.71-4.8-2.65-7.62c-7.66,13.14-11.28,27.32-15.46,41.27-3.71,12.39-7,24.91-10.41,37.39-.69,2.49-1.48,3.87-4.75,3.52-4.59-.49-9.29,0-13.92.28-2.13.14-3.15-.39-2.91-2.62.6-6.14,1.64-6.59,7.16-5,6.65,2,9.16.19,10.81-4.92,4.8-14.83,8.74-29.92,13.65-44.7a13.24,13.24,0,0,1,.48-1.38,27.86,27.86,0,0,0,1.12-3.34c1.43-5.11,2.6-10.33,5.91-14.67a1.74,1.74,0,0,1,.91-.62c-.81-.2-.9.63-1.36.93-6,1.52-8.64,5.86-10.27,11.49-1.19,4.1-1.88,8.73-6.43,11.86-2.52-6.33.83-12.17-.1-18.17-5.19-.1-10.32.07-15.34-1-3.11,0-3.56,2.53-4.43,4.61-3,7.2-5.81,14.46-9,21.56-.41.8-.87,1.58-1.33,2.34s-1.21,1.76-1.76,2.67a10.13,10.13,0,0,1-.69,1c-.47.65-.94,1.31-1.36,2a9.08,9.08,0,0,1-.66,1c-.47.64-.93,1.29-1.35,2-.21.36-.44.7-.68,1l-1.1,1.59c-8,11.21-16.05,22.31-25.17,32.61a44.35,44.35,0,0,1-4.41,4.47,60.07,60.07,0,0,1-6.34,3.74c.2-2.41.27-3.29.34-4.17,1.91-5,6.29-8.06,9.51-12,11.18-13.67,21.78-27.71,30.32-43.21,3.14-5.71,4.61-12.1,6.92-18.15,1.69-4.42-1.88-5.18-5.3-6.2-3.8,8.51-7.32,16.92-10.84,25.31A31.61,31.61,0,0,1,274.4,514c-3.66,3-3.83,3.06-5.43.64,1.6-4.95,4.92-9,7.14-13.54-12.37,14.33-25.94,27.7-37.86,42.53-2.46,3.1-2.28,7.2-4,10.56-.14.41-.69.8-.59,1.08.16.48.34.46.13.09s0-.48.28-.71c4.94-5.56,10-10.93,17.06-13.92a1.68,1.68,0,0,1,1,.94c-2.11,6.46-6.76,11.06-11.46,15.62L224,560.81c2.24-4.8,3.79-8.25,5.45-11.64a29.28,29.28,0,0,0,2.64-17.28c-.42-3.07,1.3-6.37,1.4-9.58.24-7.46.08-14.92.08-22.17-.33.28-1.29,1.05-2.2,1.88-12.09,11-24.21,22.05-36.19,33.21-1.2,1.11-1.75,3.1-2.22,4.78-.71,2.53-1.08,5.15-1.64,8l-5.48.33c-3.55-1-1.31-3.25-.6-4.5a71.78,71.78,0,0,1,10.28-14.64c9.39-9.92,19.9-18.6,30.1-27.61a38.53,38.53,0,0,0,4.39-4.74c1.16-1.45.6-2.4-.73-3.24-.67-.75-1.21-1.52-.61-2.56,5-1.64,9.21-4.38,12.07-9,.85-1.38,1.92-3.74,4.16-2.26,2,1.32,1.41,3.48.58,5.42a28.75,28.75,0,0,1-2.06,3.29c3.91-1.73,5.12-6,8.51-8.48,2.77,2.52,1.91,5.1.45,7.6-2.32,4-5.85,6.81-9.68,9.17a6.33,6.33,0,0,0-3.14,4.73,33.78,33.78,0,0,0-.65,7.43c.38,7.63-.5,15.21-1.09,22.64,1.76.83,2.16-.37,2.74-1,9.52-10.88,18.94-21.82,29.32-31.92a88,88,0,0,0,13.32-16.08c.95-1.51,2.27-2.91,1.89-5.86-7.23.66-14.58-.13-21.58,2.94a1.5,1.5,0,0,1-1.27-.46c-1-3.91.91-5.94,4.41-6.93,4.32-1.23,8.86-1.06,13.5-2-16.89-11.4-33.13-23.46-49.31-35.72,4.73,8,7.76,17.21,16.43,22.33,2.06,1.21,3.48,3.11,3,5.8a2.36,2.36,0,0,1-.89,1.15c-1.35.48-2.44-.15-3.53-.82a44.26,44.26,0,0,0-10-4.42c-8.34-2.86-15.73,1.58-17.12,10.28a21.5,21.5,0,0,1-5.05,11c-7.33,8.62-15.13,16.29-24.77,22.63-9.45,6.21-15.5,16.19-19.68,26.92a110.24,110.24,0,0,1-5.82,12.1c-1,1.83-2,4.09-4.86,3-.19-.25-.59-.57-.53-.74,5-15.37,11.31-30.12,22.49-42.08,2.94-3.14,8-4.19,11.26-7.15a248.44,248.44,0,0,0,20.77-21.17c2.25-2.63,2.22-7.15,3.43-10.74,2.25-6.69,11.39-11.35,18-9.3a6.37,6.37,0,0,0,1.59,0c-3.35-6.72-7.35-13-9.71-19.9-3-8.69-10-12.66-16.79-17.27-4.32-2.23-4.49-3.9-.76-7.43,2.86-.79,4.77.86,6.52,2.69,4.25,4.44,8.9,8.44,13.52,12.48a34.73,34.73,0,0,0,10.56,6.4c7.79,3,13.81,8.82,19.19,14.73,7,7.69,15.42,13,24.25,17.93,3.8,2.38,7.52,4.86,11.14,7.54a27.75,27.75,0,0,0,18.44,5,78.14,78.14,0,0,0,31.48-8.84,8.43,8.43,0,0,0,2.76-2.11c.93-1.17,2.09-2.37,1.57-4s-2.3-1.81-3.76-1.77c-9.58.22-19.34-1.44-28.53,2.79a2.47,2.47,0,0,1-3.19-.5c-.19-4.58,2.45-7.09,6.5-8,9.9-2.19,19.91-3.11,30-1.31,7,1.24,8.78-.1,9.28-7.44-.38-3.39,1.41-7.57-1-10s-6.25-.29-9.48-.46c-4.63-.24-9.08-1.39-13.59-2.19-2.82-1.26-5.58-.53-8.33.31-7.56,2.47-15.34,4.14-23.06,6-2.2.53-4.92,1.78-6.25-1.62,2.29-2.66,5.65-3.41,8.7-4.49a155.27,155.27,0,0,1,18.58-5.36c5.5-1.21,11.06-2.07,16.69-.6,7.54,2,14.74.37,21.85-2.15,2.39-.21,4.31.38,5,3-2.31,4.76-4.87,9.47-3,15.32,4.73-3.6,8.19-8.69,12.95-12.37a2.73,2.73,0,0,1,2.92,1,90.69,90.69,0,0,1-1.32,34.43c-1.85,4.26-3.7,8.54-5.79,12.69s-3.37,4.28-6.86,1c-5.4-.38-8.73-3.3-10.37-8.38-.31-1-.35-2.48-2.12-2a1.7,1.7,0,0,0-.83,1.69c.75,6.74,4.51,11.69,10.1,14.95,4.47,2.61,7.35,1.56,10.89-2.38,2.75-3.06,3.69-6.95,5.11-10.63,2.63-10.6,5.22-21.16,3.33-32.24-.61-3.6.05-7.25.82-10.82C383.91,427.47,385.12,427.32,386.53,428.42Z" fill="#1e351d"/><path d="M155.57,230.63h-.67a138.9,138.9,0,0,1-7.17-51.95,12.92,12.92,0,0,0-3.11-9.47q-12.36-15-24.27-30.39a12.94,12.94,0,0,0-8.55-5.15c-12.65-2.28-12.63-2.39-16.09-15.29,6.36-4.84,13.55-5.23,22.09-3.09-1.58-3.35-2.7-5.69-3.8-8-3-6.36-1.15-11,5.24-13.61l21.9-8.79c3.48,5.63,7,11.05,10.14,16.68a6.54,6.54,0,0,1,0,4.94c-2.56,6.47-5.5,12.79-8.11,19.24-.55,1.34-.92,3.46-.24,4.46,5.08,7.56,10.44,14.93,15,21.32,12-3.41,23.15-6.55,34.32-9.83,8.07-2.38,16-5.6,24.17-7.2a56.19,56.19,0,0,1,19.77-.53c7.63,1.28,13.55,6.63,18.91,12.16,2.51,2.59,4.89,5.3,7.71,8.38C267,146.89,270.87,140,274.52,133c.7-1.33.59-3.2.51-4.81-.42-8.13-1-16.26-1.39-24.4-.26-5.79,6.05-11.21,11.76-10.32.61.09,1.54.31,1.7.72,2,5.13,4,10.3,5.92,15.46.09.92.28,1.7,1.49,1.17l.32-.39c2.93-3.39,5.34-8.68,8.92-9.66,3.8-1,8.76,1.92,13.14,3.35s8.4,3.06,13.38,4.9c-1.58,6.76-3,13.5-4.82,20.15-.27,1-2,2.2-3.24,2.36-7.19,1-14.41,2.19-21.63,2.3-6.27.1-9.95,3.46-12.7,8.07-4.67,7.83-8.81,16-13.23,24-2.27,4.09-.77,7.22,4.07,7.1,19.26-.46,33.61,9.9,47.79,21,5.87,4.59,12.11,8.71,18.29,12.88,9.8,6.62,17.29,14.9,20.06,26.77a25,25,0,0,0,1.87,5.67c4,7.84,1.09,15-1.82,22.28-2.75-.29-4.84-1.3-4.87-4.53,5.11-10.4,2.19-20.54-2.73-29.57a47.94,47.94,0,0,0-19.39-18.92,122.7,122.7,0,0,1-25.72-18.4C304,182.51,293,178.8,281.29,177.9c-21.87-1.67-42,4-61.72,12.6-12,5.2-22.86,12.12-33.71,19.21-1.79,1.17-3.44,3.46-6.16,1.94l-.11-1.31c.58-3.24,3.54-4.23,5.73-5.79,6.08-4.32,12.29-8.47,18.26-13,8.28-6.16,18.42-8.14,27.59-12.28,8.25-3.72,17.06-5.21,25.9-6.57a30.85,30.85,0,0,0,4.46-.88,9.39,9.39,0,0,1,1.49-.31c1.41-.28,3,.18,4.59-1A16.27,16.27,0,0,0,263.2,163c-7.07-7.24-13.89-14.71-22-20.95-7.06-5.45-14.87-5.57-22.06-2.29-13.67,6.25-27.38,11.78-42.36,14-5.61.81-10.48,4.07-15.63,6.35-2.49,1.1-3.34,3.47-4.28,5.84-3.54,8.94-3,18.25-2.73,27.55-.23,10.35,1.58,20.56,2.14,30.84.39,1.2.61,2.45.88,3.69a3.93,3.93,0,0,1,0,1.45A1.84,1.84,0,0,1,155.57,230.63Z" fill="#22381f"/><path d="M229.57,493.08l4.7.85c-2.93,3.19-5.16,6-7.74,8.38-10.29,9.55-21,18.68-30.91,28.59-4.23,4.22-7,10-10.29,15.07-.31.48.3,1.55.48,2.34-4.35,3.81-5.92,4-9.92.54-3.21-2.75-5.76.45-8.23,1.2-3.17,1-5.16.82-7-1.76,1.44-3.17,4.65-4.72,6.93-7.07,6.32-6.52,13-12.78,19.81-18.82,12.17-10.71,23.58-22.32,32.84-35.79,2.21-3.23,4.62-6,8.46-7.33a11.56,11.56,0,0,0,7-7.34,14.41,14.41,0,0,1,11-9.74l2.84,1.18.35.24-.23-.36c.17-3.86-2.71-5.36-5.38-7.1-5.15-3.37-14.59-18.35-15.36-24.72l54,39.57c-5.15.76-10,1.73-14.89,2.11-4.15.31-5.37,2.58-5.4,6.19l0,0c5.11-5.18,12-2.16,17.92-3.87,2-.58,4.23-.09,7.27-.09-.79,2.16-1.07,4.13-2.11,5.53-4.33,5.84-8.62,11.76-13.44,17.19-10.35,11.65-21,23-31.57,34.48a7.43,7.43,0,0,1-4,2.28c.57-12.59,1.14-25.17,1.7-37.56,8.74-3.11,14.51-10.06,13.65-16.15-3.39,3.63-4.81,9.69-12.07,9.25,2.35-3.49,6.93-5.73,4.24-11-4.24,5.61-7.21,12.37-15.46,12.13C227.05,493.08,229.34,492.5,229.57,493.08Z" fill="#6b6b6b"/><path d="M360.38,257.89l4.53,3.62.46,2.08a3.26,3.26,0,0,1-3,.86c-2.21-.53-3.7-2.19-5.26-3.64-6.08-5.63-13.38-8.08-21.49-9.11-6-.76-12.32-1.3-17.23-5.72-1.63-1.47-3.22-1.17-5,0-6.57,4.36-13.34,3.4-19.88.12-2.32-1.16-4-1.51-5.63.57-9.57,12.11-23.39,15.66-37.49,18.62-16.8,3.53-15.66,1.5-22.81,19.26-5.06,12.57-10.63,25.12-19.54,35.73-5.25,6.24-5.93,13.5-4.14,21.15a118.9,118.9,0,0,0,6.64,20.87c2.9,6.6,2.78,13.67,2.34,20.63-.57,8.89-.5,17.94-4.05,26.4-3.77,2.37-2.42,4.6.19,6.78l5.52,21.26a1.73,1.73,0,0,1-2.15.09c-8.23-3.89-11.93-11.5-15.64-19.1a2,2,0,0,0-2.07-2l-14,2.08-1-5.63c1.93-2.57,4.77-1.57,7.26-1.77,2-.15,3.93-.26,5.88-.43,3.56-.83.85-3.51,1.5-5.2A41,41,0,0,1,195.62,393a9.66,9.66,0,0,0,.16-6.56c-1.2-6-2.36-12-6.42-16.87-.7-.85-1.33-1.94-.66-3.18l-3-9c3.57-1.38,4.57,2.18,6.75,3.49.59.51,1.16,1,1.73,1.6,7.52,5.31,9.85,12.57,9,21.6a144.5,144.5,0,0,0-.1,19.3,1.69,1.69,0,0,1-.19,1.18c1,.14.21-.49.2-.63,0-.66.14.2,0-.47a21.56,21.56,0,0,1,.84-10.83c2.48-8.54,1.89-17.08.8-25.67a4.09,4.09,0,0,0,0-2.76c-.29-.68-.51-1.37-.78-2.05-4.28-7.88-5.12-16.72-7.07-25.25-.53-2.35.11-4.6.7-6.85a16.52,16.52,0,0,0,.84-4.24,7.17,7.17,0,0,1,.51-2,1.44,1.44,0,0,0,.12-2.16,55,55,0,0,1,8.61-14.36c8.65-10,12.78-22.29,17.58-34.24,2.45-6.1.5-11.33-4.16-15.69-3-3.82-5.53-7.94-8.3-11.92a26.18,26.18,0,0,1-1.43-3.62c-.5-1.53-1.23-3.33.58-4.35s3,.48,4.17,1.6a16.43,16.43,0,0,1,2.08,2.68c3.38,5.13,6.38,10.54,11,14.71,2.61,3.31,5.66,5.18,10.15,4,2-.53,4.22-.11,6.34-.18a8.43,8.43,0,0,0,2.63-.48c1.27-.43,2.51-1.08,3.92-.73.77.67,1.43.43,2-.26,10.63-2,18.62-8.29,25.69-16a12.1,12.1,0,0,0,3.1-9.2c-.38-5.8-1.18-11.58-4.59-16.59-3.7-5.44-5.84-12-11.44-16.1a2.28,2.28,0,0,1-.71-3.11c5.26-1.34,8.25,2.28,11.53,5.28,2,3,4.22,5.71,6.36,8.55,3.39,6.07,5,12.87,8,19.13.26.41.48.84.7,1.26a10.32,10.32,0,0,1,.62,1.3c.8,2,1.3,4.26,3.25,5.46,2.56,1.56,5.42,3.09,8.42,1.64,3.19-1.56,4.17-4.8,3.82-8.06a51.23,51.23,0,0,0-4.39-15.71c-1.95-4.33-5.37-8-5.83-13a2,2,0,0,1,2.29-1.45c4.23,2.81,6.09,7.54,9.13,11.32,3.36,5.18,4.86,11.15,7.11,16.8.58,5.86,3.14,10.52,8.31,13.57a6.71,6.71,0,0,0,5,1.49c7.45-.61,8.45-2.59,5.58-9.47-2-4.78-5.29-9.1-5.48-14.57a2.15,2.15,0,0,1,.94-1.06c3.31-.07,4.3,2.56,5.63,4.81,4.21,7.12,6.79,15.13,12.09,21.67a42.11,42.11,0,0,0,7.2,6.8C358.18,254.69,360.17,255.56,360.38,257.89Z" fill="#183018"/><path d="M362.53,263.56l2.84,0c1.92,2.49,3.74,5.06,5.76,7.46a28.83,28.83,0,0,1,6.79,22.61c-.9,7.5,1.73,13.34,6.6,18.4,4.68,4.86,4.19,9.93,1.77,15.5-4.63,10.65-4.44,10.92,4.64,18.38a5,5,0,0,1,1.4,4.12c-1.48,6.28-3.39,12.46-5,18.72a63.28,63.28,0,0,0-1,6.78c2.33,2.63.95,6.12,2.09,9,.68,4.57,1.68,9.1,1.38,13.76.61,4.61,1.69,9.21.08,13.83-.37,1.19.82,3.06-1.48,3.42-2.06-1.35-2.16-3.57-2.52-5.69-2-11.61-2.83-23.37-4.54-35-1.31-8.94-1.42-9-10.26-8.31a7.82,7.82,0,0,1-2.46-.17c-1.42-.41-2-1.45-1.1-2.58,2.08-2.63.87-4.65-1-6.49-5.73-5.76-10.17-12.56-15.38-18.74a20.35,20.35,0,0,1-5.15-7.22c-2.71-7.19,1.06-13.7,8.5-15.37,5.76-1.3,11.49-1.13,17.27-.73a4.46,4.46,0,0,1,4,2c-3.76,3.07-8.2,3.31-12.39,3.63a18.26,18.26,0,0,0,3.47.79c9.77,2.18,13.52,9.75,9.38,19a24.82,24.82,0,0,1-3.93,6.31c-.93,1.07-1.65,2.12-.41,3.43,3.34,4.15,7.84,6.94,11.79,10.74,4.16-7.49,2-13.2-3.22-18.3-3.78-4.83-2.51-10-1-15.14,2.46-8.05.16-15.64-6.5-20.82-.57-.44-1.28-.24-1.93-.2-6.07,1.1-6.5.8-7.78-5.11a14.2,14.2,0,0,1,.1,5.46,3.92,3.92,0,0,1-3.32,3.26,3.52,3.52,0,0,1-4-2.25,64.65,64.65,0,0,1-4.23-14.75c-.26-1.59.67-2.85,1.72-4,.9-1,1.93-1.81,2.83-2.78,6.65-7.19,6.65-7.19,15.09-1.35a13.48,13.48,0,0,0-2.72-6.8,61.06,61.06,0,0,1-5.72-9.87C362.32,267,360.86,265.38,362.53,263.56Z" fill="#1d341c"/><path d="M341.57,476.41q-3,7.92-5.95,15.85c-1.17.73-.3,2.22-1.16,3.06l0,0c-5.06,9-8.72,18.64-12.87,28.05-.47,1.06-.81,2.19-1.33,3.22-1.07,2.12-1.31,5.62-4.53,5.07s-3.78-4.12-3.82-6.8c-.06-3.81-.2-7.59-.49-11.41-.36-4.83-2.88-7.51-8-9.81-4,17.41-13,32.64-18.82,49.14a4.19,4.19,0,0,1-1.22,1.79,8.76,8.76,0,0,1-2.64.94l-.67.13c-.16-.17-.32-.33-.47-.5l-19.16-1c4.09-5.77,8.12-11.59,12.3-17.29s8.39-11.07,12.6-16.59a5.38,5.38,0,0,0,1.13-1l-.06,0c1.08-.74,1.34-2,2-3l0,0c1.08-.74,1.34-2,2-3l0,0c1.09-.83,1.45-2.11,2-3.26l.9-1.72c6.08-7.09,9.91-15.36,12.67-24.18.39-1.24.35-2.61,1.33-3.63l18,1.12c-.65,5.74-1.33,11.74-2,17.74l1.09.34c1.54-3.88,3.75-7.63,4.46-11.66,1.28-7.31,5.65-10.63,12.42-11.81Z" fill="#5a4220"/><path d="M246.69,462.2c-.08.33-.1.9-.25.93-7.06,1.64-8.7,8.14-11.93,13.22-.61,1-1.37,2.25-2.3,2.49-8.83,2.3-11.66,10.67-17,16.48-6.71,7.26-13.42,14.53-20.48,21.44-8.59,8.43-17.82,16.23-26.18,24.89-2.47,2.56-4.38,5.43-7.88,6.64l-2.07-3.86c1.24-1.12,2.91-2,3.64-3.41a147.55,147.55,0,0,0,6.8-14.39c3.5-8.84,9.21-16.16,15.76-22.74,3.32-3.34,8.32-5,11.71-8.27,6.86-6.67,13.27-13.82,19.54-21.06,1.23-1.42,1.08-4.09,1.43-6.21,1.37-8.45,7.53-13.57,15.75-11.86C237.89,457.46,242.2,460.24,246.69,462.2Z" fill="#969696"/><path d="M387.21,384.4c-.3-2.95-.59-5.9-.89-8.84.89-.13,2,0,2.64-.43,16.44-11.61,32.67-23.43,44.51-40.18a22,22,0,0,0,4.23-12.38c.65-16.23-1.22-32.19-4.53-48-.47-2.25-2.44-4.44-4.23-6.1-2.16-2-4.92-3.32-7.34-5.06-8.49-6.08-9.49-15.88-12.25-24.8-.34-1.1-.31-2.32-.73-3.37-3.92-9.79,0-17.16,7.14-23.59l2.58,4.85c-5.73,9.27-6.29,18.79-1.38,28.57a32.39,32.39,0,0,0,5.08,10c3.69,5.26,8.65,8.26,15.31,7.85,3.64,1.68,5.78,3.87,3.17,8.1-.92,1.48-.31,3.24.07,4.86.81,3.39,1.45,6.82,2.39,10.17,2.86,10.21,3.81,20.42,1.75,30.95a93.14,93.14,0,0,0-2.15,21.73c.06,1.62-.16,3.39-2.1,4.13-3.42-.53-1.72-3.81-3.2-5.87-5.92,6.46-11.74,12.91-17.39,19.48-8.48,9.87-18.51,18-28.31,26.41C390.44,383.92,389.14,385.35,387.21,384.4Z" fill="#22381f"/><path d="M283.51,553.36c1.51-4.36,2.91-8.75,4.53-13.06,4.47-11.91,9-23.77,13.53-35.67,1.25-3.29,2.27-3,5.11-1.28,8.3,5.12,6.22,13.06,6.52,20.52.1,2.45,1.14,4.86,1.76,7.29l1.25.24a33.49,33.49,0,0,0,2.25-3.7c4.24-9.53,8.35-19.12,12.67-28.62.67-1.47,2.23-2.54,3.37-3.8-3.22,11.12-6.41,22.25-9.67,33.35-1.45,4.91-2.82,9.86-4.67,14.62-.74,1.9-2.65,4.67-4.08,4.7-3.55.09-8,2.21-11-3.16l-3.6,6.38-7,1c-1.55-2.38-.08-4.55.68-6.61a163,163,0,0,0,8.4-33.31c-2.23,11.64-7.28,24.26-12.78,36.7C289.59,551.73,287.4,554.27,283.51,553.36Z" fill="#7e5e2c"/><path d="M379.94,430.59l-3.91-.06c-4,1.36-6.68-1.36-9.64-3.19l-4-3c-2.59.5-4.84-.66-7.15-1.52a13.77,13.77,0,0,1-2.82-2.73,120.15,120.15,0,0,1-6-10.86c-2.07-4.56-5.44-6.42-10.19-6.41-10.75,0-21.54-.81-32,2.66-3.76,1.24-7.77,1.69-11.68,2.41-7.28,1.32-13-4.27-11.77-11.64.52-3.1,1.26-6.16,1.77-9.27,4.13-7.85,9.88-13.61,19.14-14.85,5.27-.35,9.85.71,12.35,6a2.33,2.33,0,0,1-.47,1.5c-3.56,1.78-7.15-.21-10.75,0-7.22.49-14.84,7.83-14.91,14.79-.06,5.9,2.2,7.77,7.72,5.45,5.87-2.47,12.1-3.51,18.09-5.42a25.59,25.59,0,0,1,7.81-1.46,13.22,13.22,0,0,1,5.41.61c.81.51,1.16,2.5,2.65.82,8.85,1,17.41,2.48,21.81,11.8a22,22,0,0,0,10.78,10.52c3.13,1.51,6,3.46,9,5.23,6.72,4,11.29,3.48,16.82-1.91a1.8,1.8,0,0,1,2.11.24c.09,1.65.19,3.3.29,4.95a.57.57,0,0,1,.21.63c-.08.21-.15.31-.23.31l-3.82,2.15-3.17.69C382.64,430.58,381.33,430.68,379.94,430.59Z" fill="#1d341c"/><path d="M273.61,513.21c7.73-10,10.75-22.21,15.86-33.44.41-.89.76-1.81,1.1-2.64.45-.08.8-.28,1-.18,8.39,3.69,7.9,3.53,5,12.46-7.32,22.28-21.92,39.84-36.29,57.58-3.17,3.91-6.79,7.45-10.2,11.17l-2.51-.1c-1.8-4.25,1.2-6.89,3.53-9.46,6.59-7.25,12.66-14.9,18.63-22.64a37.61,37.61,0,0,0,4.56-8.23C275,516,275,514.54,273.61,513.21Z" fill="#7e5e2c"/><path d="M273.61,513.21l3.56.32c-3.14,11-10.77,18.64-17.41,26.93-3.09,3.86-6.74,7.3-9.75,11.23-1.32,1.73-1.66,4.22-2.44,6.37l-7-.8c3.16-4.35,6.33-8.68,9.45-13.06a25.89,25.89,0,0,0,1.58-2.94,3.56,3.56,0,0,1,.49-.6,3.23,3.23,0,0,1-.61.48q-7.8,6.14-15.61,12.26c-.76.6-1.54,1.19-2.31,1.78l0,0q2-6,4-12a2,2,0,0,1,.56,2.29,5.39,5.39,0,0,1-.4.61,3.77,3.77,0,0,1,.63-.58C250,539,256.76,528,264.49,517.87c1.27-1.65,1.66-4.71,5-3.69C270.48,515.89,270.48,515.89,273.61,513.21Z" fill="#5a4220"/><path d="M283.51,553.36a10.87,10.87,0,0,0,7.3-7.4c4.07-12.4,8.47-24.7,12.76-37a24.63,24.63,0,0,1,1.36-2.61c-.2,16.52-5.73,31.07-10.39,45.81-2.93,1.16-5.84,2.4-8.81,3.44a50.91,50.91,0,0,1-5.25,1.29.56.56,0,0,1-.39-.8,1,1,0,0,1,.49-.83l-.05,0c.46-.61,1.39-.36,1.82-1Z" fill="#1d341c"/><path d="M390.08,420.38h-1.45a2.18,2.18,0,0,1-1.09-1.2c-.36-1.43-.35-2.77.92-3.8l1-3.14a.51.51,0,0,1,.88,0l1.13,5.19Z" fill="#1e351d"/><path d="M194.7,416.29l3-.69-.91,2.74Z" fill="#1e351d"/><path d="M294.51,110.81l-1.23,1.87-.75-.25c.16-.93.33-1.86.49-2.79Z" fill="#969696"/><path d="M280.48,556.85l-1.72.11c.19-.32.38-.63.58-.94a1,1,0,0,1,1.28.15l.13.38Z" fill="#6b6b6b"/><path d="M212.41,437.44l2.15-.09.75,1.1a2.2,2.2,0,0,1-1.79.13Z" fill="#1e351d"/><path d="M213.52,438.58l1.79-.13-.05,1.13Z" fill="#969696"/><path d="M390.35,426.27c0-.31,0-.63,0-.94l.68.71Z" fill="#1e351d"/><path d="M280.62,556.17l-1.28-.15a2.39,2.39,0,0,1,.31-.92l.93.12A4.3,4.3,0,0,1,280.62,556.17Z" fill="#969696"/><path d="M383.38,62.85c3.29,7.36,6.57,14.73,9.9,22.09.93,2.06,2,4.07,3,6.11l1.07-.29c-.31-1.76-.47-3.56-.95-5.27-1.82-6.52.48-12.73,1.23-19.06q1.32-11.31,2.66-22.62c.59-4.92,1.52-9.82,1.67-14.76.12-3.63,2.27-4.48,4.93-4.8,8.12-1,16.56,5,15.24,14.33-2,14.38-5.51,28.56-8,42.88-1.58,8.94-3.63,18-3.46,27,.18,9.8,1.34,20,4.43,29.23,5.73,17.1,13.09,33.67,20,50.38,1.55,3.78,2.48,6.63-1.31,9.94-4.17,3.65-7.52,8.24-10.85,12-5-7.6-9.55-15.19-14.72-22.36-4.25-5.88-9.8-10.87-13.71-16.94-8.35-13-15.75-26.54-24.07-39.53-4.89-7.65-10.69-14.74-16.26-22Q339,89.54,323.53,70.06c-3.91-4.92-8.22-9.52-12.36-14.3,4.34-2.2,8.54-4.75,13.06-6.42,1.73-.63,4.69.08,6.26,1.28,17.27,13.26,32.1,28.75,42.55,48.09.12.23.55.3,2.16,1.14-8.78-20.62-17.11-40.18-25.38-59.63l16.88-15.6c7.55,14.64,11.07,30.17,16.46,45.22.06-1.16.15-2.32.18-3.48s0-2.33,0-3.49Z" fill="#594220"/><path d="M390.3,412.23l-.44.08-.44-.07q-.45-7-.91-13.92c3.77-4.46,8.45-8,12.56-12C412,375.42,422.55,364.13,433,352.76c2.93-3.19,3.86-7.47,6.8-10.53a9.14,9.14,0,0,0,1.32-2.8c1.15-11.18,2.43-22.36,3.15-33.58.27-4.33-.54-8.8-1.32-13.13-1-5.53-2.72-10.93-3.63-16.47-.47-2.88.14-5.94.27-8.91l1.47-.19-4.93-3.92c-.74-1.59-1.41-3.15,1.2-3.62,2.67,2.25,3.54-.29,4.24-1.89a59.74,59.74,0,0,0,2.2-7.29c3.59,4.27,4.73,9.25,4.56,14.65-1.17,15.86,3.05,31,5.67,46.44,1.46,8.61,3.83,17.76-.72,26.32a36.36,36.36,0,0,0-3.95,11.08c-10.83,6.86-17.55,17.8-26.3,26.72-10,10.15-19.26,20.94-28.8,31.49C392.78,408.72,391.6,410.53,390.3,412.23Z" fill="#6b6b6b"/><path d="M342.46,29.34,331.39,17c-1.74,8.76-3.43,16.78-4.89,24.84a6.46,6.46,0,0,1-5.32,5.7,92,92,0,0,0-10.93,3.35c-3.27,1.27-5.18.45-5.83-2.89-1.72-8.93-.85-17.25,5.05-24.79,6.66-8.51,16.26-11.8,25.81-15,6.5-2.15,13.31-4.49,20.35-2.28,2,.62,4.37,1.78,5.39,3.42,5.87,9.49,4.84,13.53-4.6,19.82-3.42,2.28-7,4.32-11.16,6.88l-.85-4.23c1.09-2,3.15-2.84,5-3.88a16.94,16.94,0,0,0,5.13-3.83c2.36-2.86,4.78-5.87,3-9.8-1.69-3.66-5.39-3.17-8.63-3.39,3.65.24,6.48,1.78,7.44,5.48a6.2,6.2,0,0,1-3.5,7.46C349.35,25.71,346.74,29.15,342.46,29.34Z" fill="#7e5e2c"/><path d="M449.31,348.92a7.32,7.32,0,0,1,.77-8.28c4-5.47,4.84-11.65,3.68-18.38-2.67-15.56-5.21-31.15-7.31-46.8-.45-3.32,1.19-6.91,1.86-10.38,1.94,3.47,5,6.75,5.64,10.45,3.54,19.24,7.15,38.5,7.3,58.19a20.56,20.56,0,0,0,2.06,7.56c1,2.24,1,3.84-.71,5.81-1.57,1.76-2.93,1.92-5.14,1.58C454.82,348.26,452,348.79,449.31,348.92Z" fill="#969696"/><path d="M437.31,259.61l-1.2,3.62c-6.72,3.58-10.4-2-13.85-5.55-3.08-3.15-4.39-8-6.48-12.15,1-1.2,2.86-1.33,3.49-2.94,1.54-3.61,2.23-7.86,6.91-9.06,3.25-.84,5.64-3.7,9.16-3.91-.09,4,0,8,3.32,11.06a3.65,3.65,0,0,1,.68,2.72C438.74,248.81,438,254.21,437.31,259.61Z" fill="#969696"/><path d="M443.88,193.34c2.51-3.79,5.47-1.51,7.5.08,2.93,2.29,4.94,5.86,2.68,9.53-3.34,5.39-7.3,10.39-11,15.56-3,2.24-5.32.52-7.34-1.55s-1.79-4.63-.23-6.82C439.19,205,441.38,199.08,443.88,193.34Z" fill="#969696"/><path d="M443.88,193.34c-2,5.11-4,10.21-6,15.34-.83,2.19-2.72,5.5-1.92,6.45,1.53,1.82,4.63,2.33,7.08,3.38-2,3.92-5.9,4.79-9.58,4.89-5.88.16-10.05-7.32-6.53-12.39,4.11-5.91,9.41-11,14.28-16.37C441.85,194,443,193.76,443.88,193.34Z" fill="#6b6b6b"/><path d="M455.25,214.63c8.35-.08,9.8,8.86,6.55,13.84a20.18,20.18,0,0,1-14.88,9.47c-2.79.34-4.87-.61-6-3.3.56-2.12,1.23-4.25,3.63-4.91,5.82-1.61,7.56-6.34,8.84-11.41C453.75,216.92,453.45,215.28,455.25,214.63Z" fill="#969696"/><path d="M467.62,235.12c4.39.75,3,4.31,2.2,6.23-3.18,7.48-10.11,10.71-17.18,13.27-2.76,1-4.81-.86-4.94-4a53.57,53.57,0,0,1,.26-5.36c4.88-2.27,9.94-4.17,13.34-8.81C462.79,234.42,465.24,234.31,467.62,235.12Z" fill="#969696"/><path d="M419.27,242.59c2.14,4.9-2.08,2.25-3.49,2.94-4.26-8.49-5.47-17.08-.55-25.73a19.24,19.24,0,0,1,3.11-3.29l8.49,9.47c-2.56,2.79-5.53,5.61-8,8.83C417,237.24,415.47,240.21,419.27,242.59Z" fill="#6b6b6b"/><path d="M453.35,258.67c1.66-.82,2.83-1.38,4-2,3.13-1.6,5.09-.83,6.34,2.6,1,2.78,2.71,5.29,3.86,8s1.31,5.18-1.69,7.3c-4.05,2.86-6.38,2.5-8.17-2.31C456.09,268,454.88,263.56,453.35,258.67Z" fill="#594220"/><path d="M342.46,29.34c3-2,6-4.18,9.15-5.94,2.77-1.55,5-3.74,3.56-6.63-1.06-2.1-3.93-3.41-6.18-4.74-.85-.5-2.24-.08-3.5-.9,2.39-.41,4.8-1.25,7.17-1.14,7.68.35,8.09,6.8,5.63,11.36-3,5.57-8.32,8.25-13.88,10.55Z" fill="#183018"/><path d="M455.25,214.63c-1.12,3.61-2,7.3-3.43,10.78-1.18,2.94-3.1,5.13-6.84,5.51-1.46.14-2.71,2.42-4.06,3.72.39-2.44.08-5.35,1.32-7.24a130.55,130.55,0,0,1,10.2-12.84C452.82,214.11,454.28,214.59,455.25,214.63Z" fill="#6b6b6b"/><path d="M467.62,235.12c-2.38,1.26-5.53,1.94-7,3.89-3.3,4.43-7.59,5.93-12.67,6.27,4.64-3.81,9.12-7.84,14-11.25C463.09,233.27,465.71,234.7,467.62,235.12Z" fill="#6b6b6b"/><path d="M435.34,229.62c-2.79,1.93-5,5.18-9.16,3.91,2.77-3.5,5.88-6.51,11.49-8Z" fill="#6b6b6b"/><path d="M383.35,62.87c-.29-.7-.58-1.41-.86-2.11l.69-.14.2,2.23Z" fill="#594220"/><path d="M177.8,405.33c-1-3-1.63-6.22-3.26-8.82-1.52-2.44-3.93-5.53-6.33-5.9-3.14-.49-5.61,2.49-6,6.06a38.79,38.79,0,0,0-.08,6.9c.24,3-.86,4.5-4,4-2.78-.42-5.54-1-8.31-1.48-6.63-4-11.69-9.66-16.09-15.91-4.2-6-7.49-12.53-12.48-18-6.3-6.86-14.22-10.29-23.22-11.32a123,123,0,0,1-17-3.5,79.56,79.56,0,0,0-14.64-2.82c-13.9-.95-21.92-9.81-27.78-21.34-.83-1.62-1.31-3.42-2.48-4.87-4-17.09-16.25-29.34-25.71-43.2a12.87,12.87,0,0,1-2.31-9.72c1.34-9.86,2.71-19.72,3.75-29.62.32-3.09,1.62-3.61,4.17-3.06.26,8.79,2.08,17.36,3.48,26,.32,1.91.38,3.94,1.69,6.17a138.45,138.45,0,0,0,9.48-17c1.49-3.4,3.7-4.65,7.3-4.69,6.61-.06,12.44,2.31,17.76,5.73a251.42,251.42,0,0,0,43.53,22.92c11.46,4.54,23.41,7.37,35.14,11,4.35,1.34,8.89-.91,13.36.14,1.75.42,3.68.18,5.15,1.52,1.68,2.94,4,5.69,4.93,8.84a250.5,250.5,0,0,1,6.58,24.89c2.39,12,9.43,21.62,15.36,31.79,1.38,2.37,4.45,3.77,6.74,5.61,7.73,11,9.19,27.63,3.24,37C186.48,407.8,183.15,408.55,177.8,405.33Z" fill="#969696"/><path d="M202.63,405.41c-.31-8.73-1-17.47-.79-26.18.15-5.28-1.13-9.26-5.28-12.47a35.54,35.54,0,0,1-4.06-4.33,1.86,1.86,0,0,0-.79-.78l-6-4.23a56.23,56.23,0,0,1-16.85-30.27q-2.85-13.84-5.63-27.71a12.32,12.32,0,0,1-.42-3.93c.66-4.76-1.38-8-4.67-11.34-3.45-3.5-7-5.11-11.83-4.72-2.36.19-4.79-.64-7.49-1.05,4.53-15.77,6.86-31.79,18.93-43.62.47-.72,1.49-.53,2-1.2l0,0c4.91-4.56,11.12-7.2,16.33-11.39,8.55-6.85,16.48-14.49,25.93-20.22a121.31,121.31,0,0,1,38.8-14.92c13.26-2.73,26.68-3,40.1-3.8,12.07-.74,20,5.86,27.19,14.06,1.23,1.41,3,3.28,1.4,5.3-1.4,1.84-3.64,1.17-5.58.7a12.26,12.26,0,0,0-2.4-.62l-2.67,1.15c-3.52.27-3.8-2.73-4.94-4.86a6.64,6.64,0,0,0-1-1.34L292,197c-.26-.19-.51-.39-.77-.56,0,0-.44-.1-.42-.07a2.92,2.92,0,0,0-.59,1.47c-1.51,6.28-6.13,8.38-12.76,5.85l-11-6s-.47,0-.47,0a9.71,9.71,0,0,1-1.33-.39,2.45,2.45,0,0,0-.84-.16,2.86,2.86,0,0,0-.56,1.37c-.51,7.33-.77,6.62-8,9.22a156.1,156.1,0,0,0-24.7,11.36c-3.31,1.88-6.48,4-9.78,5.95a5.81,5.81,0,0,1-4.23,1c-5.19-1-5.2-1-5.46,4a2.26,2.26,0,0,1-.64.83,1.75,1.75,0,0,0-.71.52,4,4,0,0,0,.45,1.33,4.4,4.4,0,0,1,.24,1.12,4.48,4.48,0,0,1-.35,1.85c-4.49,5.13-10,9.25-14.6,14.23-3,3.16-6.07,6.16-8.14,10-1.65,3.07-4,4.39-7.42,3-3-1.22-5.43,0-8.16,1.66,2.71,6.85,6.22,12.9,11.88,17.49,1.23,0,1.26-1,1.51-1.69,5-14.16,15.13-24.34,26.25-33.75a3.93,3.93,0,0,1,2.63-1.24l7.6,11.06C222.8,262,221,267,219.27,272c-4.8,13.87-10.89,26.9-20.46,38.38-5.68,6.8-7,15.8-5.39,24.58,1.42,7.66,4.74,14.82,7.72,22a11.42,11.42,0,0,0,4.29,5.37c.12.71.24,1.41.35,2.11a.78.78,0,0,1,0,1c2.94,11.69.69,23.09-1.79,34.5a36,36,0,0,0-.37,5.42A.61.61,0,0,1,202.63,405.41Z" fill="#5a4220"/><path d="M301.45,202.71l7.44-.41c-2.36-7.65-14.86-17.5-22.74-17.56a231.35,231.35,0,0,0-44.38,3.57c-13.34,2.49-26,6.75-37.32,13.78-10,6.23-18.77,14.56-28.37,21.56-5.15,3.75-10.91,6.66-16.4,9.95A40.71,40.71,0,0,1,163,229c5.5-5.82,11.12-11.55,16.69-17.31,5.37-3.25,10.82-6.38,16.09-9.78a169.16,169.16,0,0,1,61.87-24.47c11.63-2.13,22.8-1,34,.63,5.19.77,10.12,4.07,14.88,6.74,3.49,2,6.52,4.77,9.75,7.21,5.37,4.06,10.22,9.31,16.22,11.92,10.41,4.51,17.62,12.41,24.77,20.38,7.36,8.19,8.45,25.06,3.1,33.61-12.4-7.14-17.73-19.58-23.82-31.52-1.14-2.23-3.17-4-4.78-6-.88-.08-1.28-.84-1.87-1.33-.85-.82-1.72-1.63-2.53-2.5a19.68,19.68,0,0,0-1.53-2.52c-.69-.69-1.38-1.38-2.09-2.06-.61-.51-.71-1.3-1.06-1.95-.54-.39.4-.15-.23-.36.06.17.2.27.27.43a3.78,3.78,0,0,0,1.08,2c.69.73,1.41,1.43,2.07,2.19s1,1.83,1.72,2.59,1.46,1.49,2.17,2.25c.51.63,1.33,1,1.34,2,2.11,4.86,4.11,9.76,6.35,14.55,3.72,8,1.79,10.95-7.16,10.85-1.6-.7-3.42-.75-4.89-1.78-6.15-2.72-8.6-7.83-9.15-14.17a3.87,3.87,0,0,1,2.79-.68c4.95,0,5.77-1.33,3.67-5.92a31.87,31.87,0,0,0-3.27-5.51c-2.17-3-3.91-6.85-8.78-4-.32.19-.91-.28-1.31-.57Z" fill="#7e5e2c"/><path d="M152.94,294.52c-6.39,0-12.92.69-19.14-.36-7.13-1.21-14-3.93-21-6.12-20.9-6.59-40.22-16.38-58.51-28.41-5.25-3.45-11.23-6-17.85-4.92a6.13,6.13,0,0,0-3.86,2.62c-4,6.86-7.65,13.87-11.43,20.82L19.92,278c-1.32-7.53-2.88-15-3.85-22.59-.53-4.15-.05-8.43,0-12.65,9,.44,18,.68,26.89,1.44a23.08,23.08,0,0,1,8.34,3C67.12,255.6,83.1,263.8,98.6,272.81a89,89,0,0,0,33.54,11.68c3.45.46,6.83,1.63,10.28,1.85C148,286.7,151.31,289.38,152.94,294.52Z" fill="#cfcfcf"/><path d="M36.15,328.38c2.61,3.73,5.38,7.34,7.78,11.19,5.84,9.34,14.4,13.17,25.14,14.05,6.5.53,12.86,2.78,19.31,4.12,4,.83,8.1,1.4,12.15,2.1,12.36,2.14,21.74,8.7,27.77,19.61,5.64,10.21,13.6,18.42,21.59,26.66-4.08-.58-8.2-.94-12.2-1.87-1.34-.31-2.59-1.89-3.47-3.17C128.08,392,121.86,383,116.06,373.7c-2-3.18-4.58-4.38-7.87-5.22-20.36-5.19-40.69-10.56-61.09-15.61-3.08-.76-4.49-2.18-5.27-5C40,341.35,38.05,334.87,36.15,328.38Z" fill="#6b6b6b"/><path d="M203.62,192.8l-24,17.54-7.08,5.37c-5-3.27-6.41-8-5.58-13.69a4.76,4.76,0,0,1,2.6-3.06,17.71,17.71,0,0,0,2.35-.83c.32-.26.64-.5.94-.78.59-.64,1.1-1.35,1.69-2,7.67-6.5,16.87-10.33,25.74-14.72a3.82,3.82,0,0,1,3.8-.16C206,184.65,204.42,188.72,203.62,192.8Z" fill="#de6"/><path d="M173.67,436.79l-.93-5.84c-1.07-1,0-2.6-.91-3.69-2-8-4.32-16-5.85-24.12-.5-2.65,1-5.67,1.63-8.74,8.68,5.45,15.53,51.43,12,76.81-2.54,1.31-2.68-.93-3.21-2.29-.91-2.35-.67-4.86-.68-7.32,0-5.91.33-11.85-.64-17.7C174.68,441.53,175,439,173.67,436.79Z" fill="#de6"/><path d="M173.67,436.79c.05-.79.11-1.57.17-2.35l1.2,0c.53,8.4,1,16.8,1.61,25.19.25,3.45.71,6.88,1.24,10.29.08.52,1.13.89,1.72,1.33-.79,4.82-1,9.72-4.73,13.65-2.49,2.63-5.12,4-8.69,3.47-1.61.11-2.44-1.18-3.54-2l0,0a5.61,5.61,0,0,0-1-1.09l0,.06c-.57-.57-.42-1.51-1.07-2.05-1.57-6.17-3.71-12.27-4.57-18.55-1-7-.78-14.19-1.1-21.3,2.75,1.05,2,3.52,2,5.48A40.34,40.34,0,0,0,159.7,463c1.21,3,2.91,5.61,6.53,6.08.53,1.39.94,2.83,1.6,4.16,1.52,3.1,2.13,6-2.42,7.86l1.48,1.27c1.29-.84,3.26-1.4,3.74-2.57,1.43-3.47,3.08-7.15,3.19-10.79C174.14,458.28,173.77,447.53,173.67,436.79Z" fill="#bad20e"/><path d="M166.23,469.08c-3.29,3.19-5.25-.18-6-2.06a125.22,125.22,0,0,1-4.45-15.9,57.73,57.73,0,0,1-.81-7.7l.72-18.89c1.12-3.1,1.78-6.71,6.49-5.72a.92.92,0,0,1,.56,1.21A102.9,102.9,0,0,0,166.23,469.08Z" fill="#de6"/><path d="M177.8,405.33c9.08.9,13.5-3.67,14-13.26a56.26,56.26,0,0,0-5.27-26.42l2.15.74c5.17,5.74,7.22,12.76,8.34,20.18a19.19,19.19,0,0,1-.14,5.76l-1.26,14c-1.21,1.59.27,3.64-.88,5.24l-15,1.17C179.07,410.27,178.44,407.8,177.8,405.33Z" fill="#6b6b6b"/><path d="M167.62,422.49a134.55,134.55,0,0,1,2.13,46.2c-5.66-15-6.34-30.43-3.87-46.14C166.43,421.77,167,421.79,167.62,422.49Z" fill="#fdfefd"/><path d="M167.74,201.45a24.83,24.83,0,0,0,4.77,14.26l-13.83,14c-.79.41-1.52.5-2.05-.4a1.68,1.68,0,0,0-.07-.77c-.23-9.31,3.65-17.32,8-25.17C165.22,202.25,166.16,201.25,167.74,201.45Z" fill="#bad20e"/><path d="M162.78,419.9c-4.35-1.5-5.15,2.39-7.05,4.63.24-3.55.48-7.1.73-10.89l6,.93c1.19.81,1.93,1.79,1.24,3.31l0,.18A7.38,7.38,0,0,1,162.78,419.9Z" fill="#bad20e"/><path d="M162.65,486.33l3.54,2C164.06,489.35,162.63,489.13,162.65,486.33Z" fill="#dae1b4"/><path d="M156.63,229.35l2.05.4L156.05,233l-.48-2.35C155.92,230.2,156.27,229.77,156.63,229.35Z" fill="#969696"/><path d="M167.62,422.49l-1.74.06.27-2.81h1Z" fill="#6b6b6b"/><path d="M163.69,417.88l-1.24-3.31C166.14,414.44,164.88,416.17,163.69,417.88Z" fill="#dbe594"/><path d="M171.83,427.26l.91,3.69Z" fill="#dae1b4"/><path d="M160.68,483.27l1.07,2.05Z" fill="#dbe594"/><path d="M162.78,419.9l.87-1.84-.87,2Z" fill="#dbe594"/><path d="M159.73,233.58l-2,1.2Z" fill="#7e5e2c"/><path d="M161.71,485.26l1,1.09Z" fill="#dbe594"/><path d="M301.49,373.42c-8.46,1-13.35,6.72-17.71,13.18a8.57,8.57,0,0,1-5.57,2.95c-3,.32-4.28,2-4.28,5,0,6.3-.3,12.61,1.85,18.71a24.63,24.63,0,0,1,.7,12.8c-1.3,7,.2,13,5.14,18.35,3.58,3.89,6.6,8.29,10.37,12.06,1.73,1.73,4,3.82,2.64,6.43s-4.48,2.53-7.12,2.57c-2.21,0-4.1-1.23-6.08-2-8.29-3.9-16-8.54-22.3-15.46a87.43,87.43,0,0,0-23.06-17.74c-8.26-4.51-15-11.82-22.45-17.83a51,51,0,0,0-4.77-3.07c.63-5.93,1.07-11.88,1.92-17.78,1.87-12.92.69-25.2-4.58-37.44-3.47-8.08-6.15-16.95-3.48-26.15.59-2,1-4.32,2.33-5.86,11.28-13.66,18.42-29.52,24.36-45.95,2.22-6.15,5.76-9.54,12.29-10.53s13-2.72,19.42-4.19c12.31-2.82,21.85-9.92,29.36-20a16.61,16.61,0,0,0,22.9,2.79c1.67-1.29,3.07-2.64,5-.37,5.33,6.28,13,5.66,20.08,6.64,1.27.17,2.66,0,3.8.43,7,2.79,13.74,6.16,19.05,11.77a7.08,7.08,0,0,0,1.23.85c2.46,4.67,5,9.29,7.33,14,1.56,3.19,2.79,6.54,4.17,9.81l-1.23.91L364.61,282c-4.06,3.3-7.75,6.29-11.4,9.33a1.57,1.57,0,0,0-.42,1.33c1.5,5.26,3,10.53,4.7,15.72a2.91,2.91,0,0,0,2.65,1.05,4.29,4.29,0,0,0,2.29-2.7c.31-2.62.1-5.3.63-8.19l2.91,8,5.47-1.38c2.25,2.34,1.29,4.2-1,5.72a25.93,25.93,0,0,1-8.75,3.5c-8.23,1.87-16.32,4.46-24.78,5.22a67.16,67.16,0,0,1-24.62-2.18c-9.31-2.67-18.87-3.76-28.32-5.49a13.19,13.19,0,0,0-8.74,1c-8,1.12-15.89,2.57-22.8,7.35-2,1.41-3.9,3-5.92,4.42a5.22,5.22,0,0,0-1.32,1.45.6.6,0,0,1-.73.45c.71.18.7-.49,1-.84a5.48,5.48,0,0,1,.92-.88c2.78-1.65,4.75-5,8.71-4.18,2.38.75,4.09-.79,6-1.76a5.35,5.35,0,0,1,2.22-.05c7.59,1.21,15.31,1.8,22.54,4.63,2.25.88,5.41,1.25,5,5-2.41,2.13-5.34,1.55-8,1.22-12.68-1.56-23.31,2.62-32.48,11.17-2.78,1.79-4.25,4.42-5.43,7.48a118.26,118.26,0,0,0-7.37,27.34,34.3,34.3,0,0,1-4,11.75c-2.81,5.23-2.77,5.25,2.14,9.16,3.52,4.13,7.53,7.83,10.6,12.34,1.87,2.5,4.21,3,7,1.7a2.54,2.54,0,0,0,2.24-3.22,57.14,57.14,0,0,0-.9-6.41,31.71,31.71,0,0,1,.91-19.55c1-2.73.56-5.53,1.06-8.27,4.18-2,8.06.55,12.08.79a7.44,7.44,0,0,0,3.6-.22,10.55,10.55,0,0,1,1.45-.35c16.48-1.76,23.21-9.3,27.41-22.08a118.45,118.45,0,0,0,2.73-11.64c.38-1.71.23-3.74,2.22-4.74,2.07-.37,3.34.71,3.48,2.57C310.52,350.26,311.29,363,301.49,373.42Z" fill="#969696"/><path d="M281.43,463.41h13.48c-1.09-2.08-1.55-3.49-2.43-4.54-4.25-5.07-8.39-10.26-13-15s-5-10.39-4.82-16.51c.17-5-.36-10.06-.67-15.08-.42-6.91-1.07-13.8-1.27-20.71,0-1,1.7-2.59,2.94-3.05a66.25,66.25,0,0,1,8.12-1.95,67.2,67.2,0,0,0-1.43,8.82,19.32,19.32,0,0,0,1.11,7.36c1.5,3.93,4.15,5,8.66,3.87,13.67-3.27,27.39-6.36,41.72-5.29,6.49.48,12,1,14.4,8.34,1.22,3.73,3.44,7.13,5.2,10.68-1.59,1.65-3.69,1.3-5.63,1.27-7-.11-13.94.51-20.86-.79-3.36-.63-6.64.29-9.76,1.46-5,1.87-8.93.87-12.44-3.21-2-2.31-4-4.9-7.42-5.88-2.29,3-2.3,6.6-3,9.9-1.79,8.35-3.24,9.86-11.92,11.25.61.3,1.33.36,1.78.85,2.4,2.65,4.63,2.85,6.81-.27a3.38,3.38,0,0,1,2.16-1.17,3.29,3.29,0,0,1,3.49,2.71c1.52.12,3.14.63,4.55.29,8.17-2,16.3-4.14,24.44-6.24,2.66.49,5.27-.23,7.91-.26,5.7.7,11.4,1.6,17.12,2,2.7.2,5.46-.52,8.52-.86v13c-1.17,1-2.48.69-3.77.4-12.09-2.78-24.05-.72-36,1.18-5.31.84-10.81,10.83-8.94,15.17.43,0,.85,0,1.27.05l.64.06c9.62-5.38,20.17-3.9,30.49-4.08,2.74-.05,6.94-.67,6.94,2.72,0,2.6-2.84,6.54-5.35,7.54a175.32,175.32,0,0,1-26.85,8.55c-10.42,2.29-20.27.2-28.58-7.24C286.77,466.74,284,465.2,281.43,463.41Z" fill="#6b6b6b"/><path d="M311.37,462.69c-4.08,1.72-4.66-.93-3.53-3.54,1.73-4,4.34-7.67,6.48-11.52,2.67-4.81,7.7-3.15,11.61-4a69.12,69.12,0,0,1,16.2-1.19c5.7.18,11.37,1.29,17.05,2a28.7,28.7,0,0,1,.05,3.47c-.5,4.85-3.85,7.13-8.6,5.77-11.08-3.18-22.06-.9-32.92,1-2.09.37-3.54,4.31-5.28,6.6l.06-.05A6.44,6.44,0,0,0,311.37,462.69Z" fill="#969696"/><path d="M377.93,437.28c-.24,12.14-.88,23.55-5.95,34.33-2.3,4.87-8.5,5.12-11.63.26-2.45-3.79-3.44-7.72-1.26-12.76C363,450.05,368.91,443.13,377.93,437.28Z" fill="#fdfefd"/><path d="M296.64,436.5l-3.13-2.15c0-3.38,2.81-4.31,5.08-5.41,10.61-5.12,21.66-8.23,33.64-7.63,6.94.34,13.93.09,20.9.23a3.6,3.6,0,0,1,2.28.84l7,2c-5.47,1.29-11.38,4.59-16.33,3.49-15.38-3.4-29.07,1.47-43,6.15C300.91,434.73,298.79,435.66,296.64,436.5Z" fill="#969696"/><path d="M269.46,514.18a34.25,34.25,0,0,0-3.41,3.29c-6,7.55-11.7,15.44-18.15,22.62-2.55,2.83-6.82,4.11-10.3,6.1v0l0-3a97,97,0,0,1,6.09-8.32c10.63-11.81,21.39-23.49,32.12-35.2.64-.7,1.42-1.27,2.13-1.91l1.16.76Z" fill="#7e5e2c"/><path d="M379.38,473.1c-1,2.79-1.63,5.86-3.18,8.32-4.89,7.74-11.87,8.78-18.08,1.53-2.92-3.42-4.81-7.8-6.69-12-.42-.92,1.16-2.74,1.82-4.15,3,2.58,2.91,6.85,5.43,9.8,2.34,2.75,4.47,3.79,7.45,1.24l3.44,3.22,7.82-15C379.37,468.05,378.32,470.88,379.38,473.1Z" fill="#bad20e"/><path d="M379.38,473.1c-3.81-1.44-1.13-4.73-2-7,2.62-11.7,3.06-23.56,2.55-35.49l3.42-1.48c.79,13.24,1.2,26.47-2,39.5A26.27,26.27,0,0,1,379.38,473.1Z" fill="#de6"/><path d="M366.39,427.34l9.64,3.19c-1.6,2.15-3.07,4.42-4.84,6.42a60.85,60.85,0,0,1-8.23,7.77C363,438.56,360.36,432.08,366.39,427.34Z" fill="#6b6b6b"/><path d="M307.39,480.44c-.62,10.81-6.07,19.43-12.58,27.54-.23.29-.93.19-1.42.27,3.31-8.19,6.51-16.43,10-24.52C304,482.33,306,481.52,307.39,480.44Z" fill="#7e5e2c"/><path d="M366.13,477.88c-1.44,4-4.83,4.61-7.3.83-2.37-3.63-3.76-7.89-5.58-11.87.91-1,1.81-2.31,2.61.1a26.59,26.59,0,0,0,2,5.54C359.68,475.53,362.3,477.72,366.13,477.88Z" fill="#de6"/><path d="M333.54,430.29l-7.91.26Z" fill="#969696"/><path d="M229.57,493.08l-3.14-.44-.07-.83,2.31-.35Z" fill="#594220"/><path d="M292.49,510l-2,3.26Z" fill="#7e5e2c"/><path d="M288.5,516.19l-2,3Z" fill="#7e5e2c"/><path d="M290.49,513.19l-2,3Z" fill="#7e5e2c"/><path d="M334.46,495.32l1.16-3.06Z" fill="#7e5e2c"/><path d="M286.52,519.19l-1.13,1Z" fill="#7e5e2c"/><path d="M341.33,476.17l.61-.38-.37.62Z" fill="#5a4220"/><path d="M233.6,555.18l-.41.41c0-.09,0-.21.08-.25a1.07,1.07,0,0,1,.35-.14Z" fill="#5a4220"/><path d="M155.75,225.72c-.65-3.81-1.6-7.59-1.9-11.42-.57-7.19-.76-14.41-1.11-21.61,1.91-10.39,8.76-18.44,13.2-27.62,1.62-3.36,5.25-5.12,9.05-5.53,9.28-1,18-4.6,27.33-5.49,2.51-.23,4.65-1.67,6.86-2.85,9.11-4.87,18-6.23,27.86-.95,9.29,4.95,17,11.54,24.44,18.64,1.07,1,2.28,2.12,1.07,3.83l-1.2.07a2.33,2.33,0,0,1-1.52,0c-1.15-.17-2.4.16-3.47-.2-12.15-4.15-24.53-2.52-36.89-1.59a21.5,21.5,0,0,0-6.8,1.33,136.44,136.44,0,0,1-14.49,5.26c-10.51,3-19.46,8.92-27.16,16.12a44.46,44.46,0,0,0-13.86,25.82C156.84,221.65,157.28,223.91,155.75,225.72Z" fill="#5a4220"/><path d="M262.55,172.72c-4.09-4.2-7.72-9-12.4-12.44a100.26,100.26,0,0,0-19.71-11.38c-7-3-13.82.11-20.39,3.09A59,59,0,0,1,199,155.71c-8.5,1.94-17.21,3.14-25.58,5.51-2.93.83-5.9,3.78-7.52,6.54-4.74,8.1-8.82,16.59-13.15,24.93-.42-9.48-.42-18.88,3-28,1.06-2.8,2.34-4.78,5.19-6.11,7.83-3.66,15.66-7.09,24.39-8,10.07-1.08,19.18-5.24,27.95-9.86C225.13,134.48,236,134.4,246,144c6.58,6.33,13.08,12.75,19.29,19.44,2.17,2.34,3.35,5.6,5.45,9.26Z" fill="#7e5e2c"/><path d="M126.62,121.7c-2.82-7.18-5.63-14.37-8.58-21.88L139.29,91a110.77,110.77,0,0,1,6,9.47,7.4,7.4,0,0,1,.19,5c-1.84,6-4.22,11.88-5.92,17.94a10.85,10.85,0,0,0,.47,6.94c3.8,8.11,7.95,16.06,12.17,24,1.15,2.16,1.62,3.88-.33,5.67a11.6,11.6,0,0,1-6.54-5.74c-5-8.73-10.86-17-13.59-26.87C130.92,124.52,128.76,123.19,126.62,121.7Z" fill="#edf3c4"/><path d="M326.25,114.79c-2,4.72-2.76,11-6.28,13.7-3.27,2.48-9.48,1.11-14.4,1.43a56.85,56.85,0,0,1-6,.34c-7.2-.28-11.07,4.3-14.13,9.79-3.45,6.19-6.6,12.55-9.88,18.83-2.57-4.85-.93-9.68,1.4-13.64,4.25-7.23,6.83-14.53,6.3-23.05-.26-4.08,1.74-8,2.35-12.15.27-1.85,1.55-3.41,4-2.31a23.43,23.43,0,0,0,.86,5,32.91,32.91,0,0,0,3,4.9c3.43-.21,6.28-2.1,9-3.82,4.35-2.78,8.83-3.16,13.62-2.23C319.54,112.26,323.13,112.77,326.25,114.79Z" fill="#dbe594"/><path d="M155.75,225.72c-1.39-10.16,3.54-18.28,8.75-26.16,7.1-10.74,17.72-17,29.32-21.71,6.12-2.5,12.38-4.68,18.62-6.9a23.78,23.78,0,0,1,5.3-1.17c6.38-.71,12.8-1.93,19.17-1.74,6,.19,12,1.86,18,3,1.9.36,3.74,1,5.6,1.58-.93,1-2.14.45-3.21.63-2.81,1-5.62.09-8.4-.08-14-.82-27.35,2.95-40.69,6.44-1.61.42-3.15,1.1-4.87,1l-28.68,16.07c-.76.48-1.26,1.37-2.28,1.44l-.25.18c.17,1.34-1.13.83-1.65,1.31l-2.73,1.9c-3,6.67-6.13,13.32-9,20a62.42,62.42,0,0,0-2.14,7.09Z" fill="#1d341c"/><path d="M289.6,107.73c-1,.91-2.69,1.7-2.87,2.75-.94,5.49-2.19,11.06-2,16.56a24.75,24.75,0,0,1-4.7,15.37c-3.54,5.08-4.08,10.68-4.41,16.47l-4,6.84c-6.07-5.05-6.34-6.48-2.69-12.84,1.9-3.3,3.48-6.86,5.78-9.86,4.2-5.48,4.5-11.47,3.56-17.9-.7-4.76-1.15-9.57-1.54-14.37-.71-8.55-.09-9.43,8.56-12.92Z" fill="#edf3c4"/><path d="M126.62,121.7c3.2-.39,4.5,1,5.88,4.09,4.17,9.46,9,18.64,13.86,27.78,1.29,2.43,3.62,4.3,5.48,6.42l-1.7,3.89c-2.39.74-2.78-1.39-3.42-2.67-3-6-7.26-11.16-10.29-17.1-2.33-4.59-7.71-5.53-11.11-8.92-1.06-1.07-2.45.4-3.65.86-4-1.82-7.85-4.28-12-5.31-5.38-1.32-7.33-4.3-7-9.57,8.23-5.93,13.42,3,20.56,4.18Z" fill="#dbe594"/><path d="M203.33,180.55a21,21,0,0,1,3.88-2c16.64-4.72,33.33-9,50.88-5.77a2.4,2.4,0,0,0,.13,1c-15.78,1.55-30,8.09-44.56,13.71-3.51,1.36-6.7,3.53-10,5.32Q203.47,186.68,203.33,180.55Z" fill="#bad20e"/><path d="M121.67,136.05c1.89-4.05,2.16-3.53,5.85-1.3,10.53,6.34,14.86,17.19,20.75,26.95a16.71,16.71,0,0,0,1.87,2.18l-1.69,4.39Z" fill="#edf3c4"/><path d="M326.25,114.79c-3.36-.66-6.77-1.11-10.06-2-6.84-1.88-12.08,1.8-17.7,4.53-1.41.69-3.37.25-5.07.33L307,103.87c6,2.77,12.06,5.49,18,8.39C325.66,112.58,325.84,113.92,326.25,114.79Z" fill="#edf3c4"/><path d="M258.22,173.77l-.13-1,2.41-.17a1,1,0,0,0,.85.19Z" fill="#969696"/><path d="M249.65,463.26l.41.56-.53-.44Z" fill="#1e351d"/><path d="M262.55,479.28a1.76,1.76,0,0,1-.19.39c-.05.06-.2,0-.3,0l.52-.4Z" fill="#1e351d"/><path d="M214.06,245.44c-7.58,8.26-15.54,16.22-22.59,24.92-3.16,3.89-4.51,9.25-6.8,14.21-7.13-5.06-11.54-12.64-14.95-21.4,4.38-.78,8.09-3.65,12.42-.81.56.37,2.75-.57,3.24-1.43,5.47-9.8,14-16.67,22.26-23.85a28,28,0,0,0,2-2.19,1.54,1.54,0,0,0,0-2.29v0a1.32,1.32,0,0,1-.05-2c.25-.4.65-.78.7-1.21.25-1.94.4-3.9.58-5.85,1.78.38,3.55.85,5.35,1.1a5,5,0,0,0,3-.22c8.88-5.38,18.13-10,27.46-14.53,5-2.47,10.53-3.07,14.36-6.14l2.46-7.12a.62.62,0,0,1,1,.06l0,0c.56.57,1.48.41,2,1h0c.11.47.06,1.2.35,1.39,6.64,4.28,9.42,11.46,13.05,17.86,3.88,6.87,6.45,14.58,3.44,22.32-1.52,3.91-5,7.37-8.24,10.25-6.12,5.39-12.94,9.79-21.54,10.15a.74.74,0,0,1-1,.07l-4.07,1c-.63.37-1.45.23-2,.77-3.45.23-6.92.34-10.36.7-4.36.45-5.75-3-7.82-5.62a40,40,0,0,1,14.73-4.15c7.82-.78,14.67-4.26,21.7-7.15a11.33,11.33,0,0,0,7.08-9c.94-5.53,3.27-10.84.79-16.6-1.95-4.51-3-5.17-7.86-4.18a198.5,198.5,0,0,0-22.17,5.8c-9.08,3-14.69,9.27-19,17.28-1.3,2.44-2.71,4.68-6,4l-4.74-5.28-1.24.64Q212.86,241.73,214.06,245.44Z" fill="#7e5e2c"/><path d="M217.62,242.65c2.58-1.24,3.81-3.41,5.44-5.75,3.47-5,5.69-11.52,12.36-13.64,9.24-2.93,18.52-5.76,27.79-8.62.63-.19,1.32-.17,1.94-.37,5-1.51,6.73-.64,8.49,4.33a22.67,22.67,0,0,1,1,12.54c-1.72,8.57-5.06,14.39-14.25,17.69-10.52,3.77-21.28,5.54-32,7.8Z" fill="#5a4220"/><path d="M205.43,362.35c-4-.47-5.25-3.75-6.53-6.74-1.62-3.79-2.71-7.81-4.24-11.65-5.78-14.42-3.55-27.59,6.54-39.2,7.13-8.2,11.37-17.81,14.73-27.87,2.24-6.69,3.84-13.59,5.73-20.39,6.64,6.29,7.77,11.23,3.89,19.94S217.9,293.75,213.32,302c-3.44,6.16-8.12,11.63-12.18,17.46a14.91,14.91,0,0,0-1.22,3.11.74.74,0,0,1-.09.93l-.17,2c-1.06,1.15,0,2.75-.84,4C197.32,341.16,201.07,351.82,205.43,362.35Z" fill="#7e5e2c"/><path d="M277.5,203.68c2.9-.35,5.83-.53,8.67-1.14.9-.19,1.72-1.45,2.28-2.4a47.74,47.74,0,0,0,2.14-4.51.6.6,0,0,1,.93.1l0-.06c.36.33.72.68,1,1.05l0,0c.59.6,1.77.42,2,1.5l4.3,5.67a71.06,71.06,0,0,1,11.45,25.54c1.43,6-1.51,12.32-5.9,13-5.43.89-10.78-3.5-11.91-9.75,2-1.81,4.12-.44,6.16-.15s3.12-.38,3.49-2.47c.66-3.81-3.83-14.45-7-16.73-1.9-1.37-3.72-2-6-1.15-1.92.72-3.89.95-5.75-.3Z" fill="#7e5e2c"/><path d="M283.33,211.88c1.15-.09,2.63.25,3.4-.34,5.07-3.89,8.33.62,12.17,2.44.42.2,1,.58,1.06,1,1.22,5,2.71,10,3.4,15.1.45,3.35-1.22,5.32-5.17,3.71-1.78-.72-3.84-.75-5.77-1.09h.07a3.91,3.91,0,0,0-1.14-1Q287.35,221.76,283.33,211.88Z" fill="#5a4220"/><path d="M309.37,213.77l6.52-2.82c2.86,4.66,6.29,9.64,9,15,1.74,3.37-1,6.17-4.82,5.45-1.29-.25-2.56-.58-3.84-.88Z" fill="#5a4220"/><path d="M194.76,411.57l.88-5.24a37,37,0,0,1,.57,4.3C196.22,410.93,195.27,411.26,194.76,411.57Z" fill="#1e351d"/><path d="M325.42,244.66l4.89,1.78Z" fill="#6b6b6b"/><path d="M196.9,392.33c0-1.92.09-3.84.14-5.76C197,388.49,196.94,390.41,196.9,392.33Z" fill="#1e351d"/><path d="M198.82,329.45l.84-4Z" fill="#1e351d"/><path d="M202.63,405.41l1-.06-1.26,1.59Z" fill="#1e351d"/><path d="M246.53,261.55l2-.77Z" fill="#1e351d"/><path d="M199.83,323.48a1.36,1.36,0,0,1,.09-.93,3.46,3.46,0,0,1,.22.69C200.15,323.3,199.94,323.4,199.83,323.48Z" fill="#1e351d"/><path d="M205.8,365.43a2.43,2.43,0,0,1,0-1,4,4,0,0,1,.34.69C206.14,365.2,205.92,365.33,205.8,365.43Z" fill="#1e351d"/><path d="M191.71,361.65l.79.78Z" fill="#1e351d"/><path d="M291.35,231.63l1.14,1Z" fill="#7e5e2c"/><path d="M252.61,259.74a1.74,1.74,0,0,1,1-.07Z" fill="#1e351d"/><path d="M274.44,312.1c3.68-.52,7.52-2,11-1.39,10.22,1.7,20.24,4.59,30.45,6.33a81.42,81.42,0,0,0,36.78-1.77c5.39-1.56,10.71-3.37,16.09-4.94,2.88-.85,3.39-2.68,2.66-5.24,4.33.85,12.43,13,11.25,17-.84,2.86-2,5.64-2.74,8.52-1.08,4.09-1.42,8.18,1.51,11.8-4.25,2.14-6.59,6.4-10.23,9.22l-2.44-2.17c2.12-3.18,5-5.93,5.88-9.2a33.14,33.14,0,0,0,.19-13c-.24-1.48-3.38-2.88-5.44-3.58-3.26-1.11-6.72-1.59-10.19-3.21,2.45-.38,4.91-.68,7.33-1.17s5.09-1.22,7.63-1.84L374,316c-7.2.52-14.44.71-21.57,1.67-4.74.65-7.72,8.14-5.35,13,1.35,2.78,3.53,5.16,5.33,7.73-5.22,2.34-10.92,2.44-16.44,3.24-3.68.53-6.37,1.67-7.36,5.45a5.74,5.74,0,0,1-.54,1.08c-.13.5-1,0-1,.72a2.75,2.75,0,0,1,1.55.2,7.39,7.39,0,0,1,.94.73,30.74,30.74,0,0,0,3.75,2.42c3.08,2.51,6.46,4.61,9.4,7.28,7.09,6.42,12.85,13.63,15.05,23.31,1.09,4.81,3,9.44,4.63,14.12.89,2.69,1.46,5.51,3.13,7.9,1.23,3.4,2.57,6.75,4.14,10s4,4.76,7.48,4.45c3-.27,5.95-.17,8.89-.71a2.8,2.8,0,0,1,2.11.53l.44,1.17c-2.26,4.53-9.64,7.41-14.08,5-6.4-3.44-12.66-7.18-18.79-11.1a11.22,11.22,0,0,1-3.87-5c-4.05-10.08-13-12.23-22.15-14.05-.75-.28-1.64-.12-2.28-.72l-6.08-.28c-.56-.64-1.12-1.44-.88-2.22,1.84-5.88-2.15-8.74-6-11.71-.48-.48-.54-1.25-1.11-1.67-2.7-4.67-7.09-5.48-11.94-5.23,1.54-3.39,3-6.83,4.65-10.15,4.17-8.35,1.84-17.24,2.19-25.89,0-.57-1.78-1.22-2.73-1.83-1.81-1.56-1.48-3.92-2.21-5.88-2.66-7.2-6.16-13.49-14.93-14.5-3.26-.38-6.44-1.28-9.77-1.36C277.14,313.78,275.3,314,274.44,312.1Z" fill="#6b6b6b"/><path d="M439.78,342.23c-.69,6.81-5.6,11.19-9.74,15.75-8.68,9.59-17.72,18.88-26.92,28-4.52,4.47-9.72,8.26-14.61,12.36q-.64-7-1.3-13.92c15-10.82,27.9-23.87,39.91-37.84,3.44-4,6.91-7.95,11.17-12.84C438.9,337.24,439.34,339.73,439.78,342.23Z" fill="#969696"/><path d="M327.48,348.44c.27-5.94,2-7.57,7.52-8,5.83-.46,11.63-1.29,17.45-2L371.05,361l-4,5.26c-3.17,1-5.84,3.1-9.05,4-3.56-.49-5.88-3.14-8.11-5.39-4.86-4.89-10.57-8.45-16.39-11.93-1.37-1.63-3.71-1.86-5.06-3.51l.05.06C328.13,349.16,327.56,349,327.48,348.44Z" fill="#969696"/><path d="M357.61,369.62l9.46-3.39c2.58-.57,5.14-1.27,7.75-1.67,4.82-.74,6.9,1.07,7.52,6.08q2.48,20,5.06,39.89c.21,1.64.7,3.23,1.06,4.85l-.27,3.83-1.72-.25c-3.86-7.2-6.26-14.94-8.18-22.83-1.14-4.68-1.78-9.49-2.93-14.17-1.38-5.61-3.49-7.1-9.23-6.86-2.48.11-4.87,1.22-7.41.6C356.75,374,356.89,371.85,357.61,369.62Z" fill="#cfcfcf"/><path d="M371.23,351.62c2.47-4.12,4.27-9,10.23-9.22,7.65,5.87,6.43,13.09,3.07,21.47C379.85,359.57,375.54,355.59,371.23,351.62Z" fill="#969696"/><path d="M282.35,554.24l-1.82,1Z" fill="#969696"/><path d="M314.27,379.25a32.44,32.44,0,0,1,3.73,2.26c3.14,2.53,5.82,5.26,3.55,9.85-.39.8-.13,1.92-.17,2.89-8.39,2.35-16.88,4.42-25.15,7.13-7,2.31-9.68.84-9.69-6.4,0-8.77,8.29-16.82,17.07-16.52,3.29.11,6.57.34,9.86.51A.79.79,0,0,1,314.27,379.25Z" fill="#969696"/><path d="M355.41,422.38c-5.62,0-11.24.19-16.86.06-12.9-.31-25.53.78-37.2,6.89-2.74,1.44-5.24,3.34-7.84,5l-6,5.57-7.86-6.39a15.38,15.38,0,0,0,3.6-.33c2.51-.81,5.43-1.36,7.22-3,1.46-1.37,1.6-4.21,2.17-6.44,1.09-4.29,2.07-8.61,3.41-14.22,4.27,3.88,7.77,7.26,11.52,10.35,1.37,1.13,3.77,2.65,4.94,2.16,9.69-4,19.65-1.29,29.46-1.65,3.81-.14,7.62,0,11.43,0Z" fill="#1e351d"/><path d="M327.46,394.53l2.28.72Z" fill="#1e351d"/><path d="M314.27,379.25a1.24,1.24,0,0,1-.8-.28l0-.32Z" fill="#1e351d"/><path d="M237.6,546.19l-.36,1.33.37-1.31Z" fill="#7e5e2c"/><path d="M252.56,540.19l.45-.44-.42.47Z" fill="#1e351d"/><path d="M252.59,540.22c-.31.35-.63.69-1,1l-.12-.12,1-.95Z" fill="#1e351d"/><path d="M384.09,72.69c.08.68.15,1.37.22,2l-.56.08c-.1-.68-.21-1.36-.31-2Z" fill="#1d341c"/><path d="M159.63,366.56C154.19,369,149,368.07,144,365.27c-8-4.53-16-9.14-24-13.71-2.73-3.32-4.56-7.21-7-10.75-8-11.79-19.91-17.63-32.41-22.88q-12.16-5.1-24.15-10.62c-6.29-2.9-11.37-6.7-14.28-13.08-.53-.49-.82-1.18-1.33-1.69l.06.07c-.56-.62-.41-1.67-1.29-2.09-1.33-5.17-3.92-10.15-2-15.78.7-2,1.28-3.19,3.29-1.26-.1.76.64.75,1,1.08l-.06,0c2.34,1.56,5,2.58,7.31,4.15.53.38,1.21.47,1.74.85h0a311.67,311.67,0,0,0,45.89,24.91c8.16,3.62,17,5.72,25.6,8.17,3.75,1.07,6.48,2.9,8,6.67,5.9,14.18,13.44,27.41,23.53,39.08,1.09,1.25,1.8,2.78,2.76,4.13l-.06-.07a8.24,8.24,0,0,0,1.06,1.07l-.07-.06a3,3,0,0,0,1.55,1.06c.23.59.45,1.18.68,1.78Z" fill="#6b6b6b"/><path d="M156.79,362.47c-9.88-8.53-16.87-19.45-21.79-31.09C130.18,320,123.9,313,111.27,310.2,90.13,305.51,72,293.66,53.65,282.61c-1.11-.67-1.8-2.05-2.69-3.1l9,3.16c9.67,3.46,18.64,8.51,28.13,12.38,5,2,10.61,2.8,15,6.4,9.86,3.31,19.37,7.83,30,8.67,2.1.16,3.81.57,3.9,3.4.47,14.86,7.65,27.22,14.94,39.54C153.65,356.11,155.15,359.33,156.79,362.47Z" fill="#1d341c"/><path d="M41.94,293.51c7.47,11.74,20.38,14.87,31.91,20.21,9,4.16,18.51,7.62,26.68,13.06,8.89,5.92,16.18,14,19.47,24.78l.32,1.79a.88.88,0,0,1-1.37.11c-6.53-11-17-18.08-26.19-26.34a24.08,24.08,0,0,0-5.51-3.31c-11.17-5.48-22.22-11.24-33.61-16.2-6.2-2.69-9.89-6.83-11.72-13-.27-.25-.36-.48-.27-.72S41.84,293.51,41.94,293.51Z" fill="#1d341c"/><path d="M103.05,301.45c-14.93-5-29.54-10.65-43.09-18.78,5.73,2.15,11.48,4.26,17.19,6.48,7.5,2.91,15,5.82,22.41,9C101,298.69,101.9,300.31,103.05,301.45Z" fill="#22381f"/><path d="M49,279.48l-7-5,8.43,3.82C50.11,279,49.41,279.09,49,279.48Z" fill="#22381f"/><path d="M119,353.46l1.37-.11.48,1.57-.55.34Z" fill="#22381f"/><path d="M49,279.48l1.4-1.14.62,1.18Z" fill="#1d341c"/><path d="M42,274.56l-1-1.08Z" fill="#22381f"/><path d="M39.64,290.52l1.29,2.09Z" fill="#22381f"/><path d="M41.94,293.51l0,1.07-1.05-2Z" fill="#22381f"/><path d="M159.27,364.47l-1.55-1.06Z" fill="#1d341c"/><path d="M157.79,363.47l-1.06-1.07Z" fill="#1d341c"/><path d="M160,366.25l.35.69-.67-.38Z" fill="#6b6b6b"/><path d="M209.68,232.6l1.45,1.54-1.47.75Z" fill="#1e351d"/><path d="M294.48,198.19l-2-1.5Z" fill="#1e351d"/><path d="M266.54,197.71l-2-1Z" fill="#1e351d"/><path d="M209.64,230.64c0,.66,0,1.32.05,2l-1-2,0,0Z" fill="#1e351d"/><path d="M292.52,196.72l-1-1.05Z" fill="#1e351d"/><path d="M264.56,196.73a5.49,5.49,0,0,1-1-.06Z" fill="#1e351d"/><path d="M291.52,195.73l-.93-.1Z" fill="#1e351d"/><path d="M208.67,230.62l-.44-.41c.08,0,.21,0,.25.08a1.31,1.31,0,0,1,.16.36Z" fill="#1e351d"/><path d="M325.45,214.67l-2.06-2.95.22-.19,2.77,2.16A1.69,1.69,0,0,1,325.45,214.67Z" fill="#22381f"/><path d="M329.38,219.78l-2.11-3c-.1-.5.09-.66.56-.46l2.72,2.24A1.45,1.45,0,0,1,329.38,219.78Z" fill="#1e351d"/><path d="M325.45,214.67l.93-1,1.45,2.67a6.22,6.22,0,0,0-.56.46Z" fill="#1e351d"/><path d="M329.38,219.78l1.17-1.18,1.23,1.76a6,6,0,0,0-.66.68Z" fill="#183018"/><path d="M322.47,209.65l1.14,1.88-.22.19c-.32-.68-.63-1.36-.94-2.05Z" fill="#22381f"/><path d="M319.43,206.72l-1-2.05h0l1.06,2Z" fill="#594220"/><path d="M318.47,204.67l-.43-.42c.09,0,.21,0,.26.07a1.35,1.35,0,0,1,.17.34Z" fill="#594220"/><path d="M322.45,209.67l-.51-.48c.12,0,.27,0,.33.05a1.42,1.42,0,0,1,.2.41Z" fill="#22381f"/><path d="M319.53,206.61l.42.53-.52-.42Z" fill="#594220"/><path d="M172.37,198.06l2.28-1.44Z" fill="#bad20e"/><path d="M170.47,199.55l1.65-1.31Z" fill="#bad20e"/><path d="M274.44,312.1c5.89.82,11.84,1.35,17.64,2.59,2.33.5,4.63,2.25,6.38,4a23.15,23.15,0,0,1,7.14,16.86c-1.7,11.29-3,23-12.06,31.12-5.72,5.16-12.7,8.74-21,7.8-.12-2.35,2-2.3,3.32-3,4.08-2.19,8.51-3.82,12.12-6.76a16.12,16.12,0,0,0,6-9.86,56.24,56.24,0,0,1-10.12,4.67c-10.28,3.88-20.17,2.33-29.55-2.72-5.78-3.11-7.52-10-4.73-16.3,5.45-7.42,13.48-10.6,22-12,6.11-1,12.52-.24,18.79-.26,1.5-1,3.21-.37,4.84-.48-1.47-6.48-4.2-8.78-10.35-8.88-7.44-.13-14.83,1.2-22.27.81l-1.86.21c-1.66.63-3.2,1.81-5.15,1.16l-9.43,5c-.56.08-.84-.15-.8-.74a76,76,0,0,1,6.34-5.85A36.94,36.94,0,0,1,274.44,312.1Z" fill="#183018"/><path d="M249.61,340.49a16.51,16.51,0,0,1,0,2c-1.26,11.39,4.78,14.84,15.4,17,11.46,2.34,21.76-.66,31.82-8.46-2.17,8.11-5,14.13-11.94,17.36-4.16,1.93-8.24,4.05-12.35,6.08l.07,0c-.8.82-2.05.12-2.87.87l-13.23-1.78a34.45,34.45,0,0,0-9.82,11.34c-.79,1.36-1.36,3.08-3.47,2.92-3-2.73.17-5.9-.43-8-2.51,5.38-3.18,12.23-7.41,17.69l-6.73-5.12c6.29-7.45,7.72-16.05,9-24.76a79.79,79.79,0,0,1,2.87-11,51.67,51.67,0,0,1,3.53-9.77C245.39,344.45,247.73,342.6,249.61,340.49Z" fill="#6b6b6b"/><path d="M280,295.67l-.74,4.34c-10.33,1.82-14.81-.11-25.88-11.42,3.73-1,7.08-2,10.47-2.78,10.47-2.48,20.94-5,31.47-7.23A8.38,8.38,0,0,1,301,279.7,96.2,96.2,0,0,1,312,288.16c1,.89,1.83,3.14,1.42,4.28-1.95,5.42-4.36,10.68-6.55,15.86-8.31-.62-4.18-6.33-4.62-10.88L298,302.69c-4.15-.85-7.82-1.23-11.2-2.43C284.46,299.45,282.57,297.5,280,295.67Z" fill="#183018"/><path d="M243.27,387.36c2.22-3.15,4.19-6.53,6.76-9.36,1.71-1.89,4.28-3,6.47-4.47.44,1.44,1.65,3.18,1.22,4.26-4.32,10.68-2.53,21.31-.27,32a9.28,9.28,0,0,1-.15,2.27l-4.4-.87a4.68,4.68,0,0,1-2.85-1.67c-1.36-1.87-3.05-3.46-4.45-5.31-2.11-3.69-4.73-7.21-4.17-11.85C241.74,390.57,242,388.77,243.27,387.36Z" fill="#cfcfcf"/><path d="M262.59,319.67c5.31-.66,10.62-1.35,15.94-2a28.83,28.83,0,0,1,3.48,0c10.65,0,11.82.82,16.1,11.89l-7.74-1.35c-2.87-1.58-5.58-3.77-8.66-4.6C275.44,321.92,269,320.94,262.59,319.67Z" fill="#6b6b6b"/><path d="M243.27,387.36l-1.08,4.84c-2.41,5.45,1.73,8.58,4.34,12.25l4.07,4.93c-1.7,2.81-3.32,1.36-4.94-.08l-10.29-11.79,7-20.28.86.19Z" fill="#1d341c"/><path d="M245.66,409.3l4.94.08,2.3,1.8C250.63,413.63,247.93,412.93,245.66,409.3Z" fill="#6b6b6b"/><path d="M255.58,321l5.15-1.16C259.3,321.54,257.92,323.43,255.58,321Z" fill="#6b6b6b"/><path d="M256.34,414.5c-.26.07-.61.29-.76.19s-.33-.5-.49-.77c.29-.08.64-.3.84-.2S256.21,414.23,256.34,414.5Z" fill="#6b6b6b"/><path d="M269.73,375.31l2.87-.87Z" fill="#183018"/><path d="M245.68,326.69l-1.36.81-.17-1A1,1,0,0,1,245.68,326.69Z" fill="#6b6b6b"/><path d="M245.68,326.69l-1.53-.19,1.2-1.23.8.74A3.06,3.06,0,0,1,245.68,326.69Z" fill="#183018"/><path d="M311.37,462.69l1.12-1.42Z" fill="#1e351d"/><path d="M359.28,376c7.78-5,15.34-2.28,17.55,6.16,2.92,11.17,6.07,22.28,9.1,33.42a32.27,32.27,0,0,1,.54,3.41c-7.53,4.38-15,2.49-18.22-4.68-1.33-2.94-2.52-5.94-3.77-8.92a75,75,0,0,0-2.57-8.38c-1-5-2.47-9.87-3.3-14.9C358.26,380,357.66,377.86,359.28,376Z" fill="#969696"/><path d="M359.28,376q1.88,10.77,3.76,21.52a1.39,1.39,0,0,1-1.57,0c-1.58-4.55-3.61-9-4.65-13.66C354,371.27,345.79,363,336,355.74c-1.33-1-2.54-2.1-3.8-3.15a.91.91,0,0,1,1.46-.2c8.23,2.88,14.2,8.94,20.5,14.54,1.09,1,2.32,1.8,3.48,2.69Z" fill="#1e351d"/><path d="M361.47,397.47l1.57,0,1.44,7.87Z" fill="#594220"/><path d="M333.63,352.39l-1.46.2-3.71-3.18Z" fill="#22381f"/><path d="M327.48,348.44c.34.34.69.68,1,1l-2-1,0,.06Z" fill="#22381f"/><path d="M326.49,348.44l-1.25-.3,1.21.36Z" fill="#22381f"/><path d="M299,416.9l6.28,7.17-7.77,3C298,423.57,298.47,420.7,299,416.9Z" fill="#fdfefd"/><path d="M246.53,404.45c-6-3.41-7.66-8.13-4.34-12.25Q244.36,398.32,246.53,404.45Z" fill="#6b6b6b"/></g></g></svg>