<svg xmlns="http://www.w3.org/2000/svg" viewBox="0 0 394.45 663.7"><g id="Warstwa_2" data-name="Warstwa 2"><g id="Warstwa_1-2" data-name="Warstwa 1"><path d="M198.73,37.47S178.11,160.56,71,324.1c-6.79,10.35-31,37.9-47.65,77.2C.89,454.23-3.36,529.38,37.2,585.47c64.61,89.36,219.69,96.46,300.32,14.38,65.79-67,56.89-142.88,31.25-203.91-17.85-42.48-43.29-69-65.11-96.51C230,206.59,198.73,37.47,198.73,37.47Z" fill="#29abe2" stroke="#1d71b8" stroke-miterlimit="10" stroke-width="13"/><path d="M113.29,598c-37.6-54.79-40-60.66-52.52-126.08-2.34-12.21-3.57-40.39-3.57-40.39s-26.79,59.78-13,105.65c15.16,50.25,90.13,85.05,90.13,85.05S120.21,608.08,113.29,598Z" fill="#fff"/></g></g></svg>