<svg xmlns="http://www.w3.org/2000/svg" viewBox="0 0 455.43 667.56"><g id="Warstwa_2" data-name="Warstwa 2"><g id="Warstwa_1-2" data-name="Warstwa 1"><path d="M309,7.9C204.81,21.69-46.2,232.39,16.38,429.18c20.26,63.7,81.88,140.72,173.11,151.66,73.13,8.77,191.49-44.43,212.94-124.08,40.39-150-87.32-127.15-107.24-229.79C271,102.38,309,7.9,309,7.9Z" fill="#04d704" stroke="#063" stroke-miterlimit="10" stroke-width="13"/><path d="M72.8,474.39A355.35,355.35,0,0,1,241.91,496c9.36-23.42,28.16-60.37,65.28-92.06a226.48,226.48,0,0,1,39.06-26.81" fill="none" stroke="#008d36" stroke-linejoin="round" stroke-width="8"/><path d="M58.51,350.76A180.47,180.47,0,0,1,193.19,381.4c.9-15.57,28-67.69,85.15-84.26a73.91,73.91,0,0,1,13.79-2.3" fill="none" stroke="#008d36" stroke-linejoin="round" stroke-width="8"/><path d="M115.19,182.54c20.12.14,33.79,5.44,42.9,10.73,0,0,5.54,3.22,31.61,25.16h0a102.81,102.81,0,0,1,65.66-30.53" fill="none" stroke="#008d36" stroke-linejoin="round" stroke-width="8"/><path d="M245.42,85.39c-22.74,38.94-70.1,68.56-59,253.41,5.86,97.67,61.15,169.55,112.4,221.26,69,69.63,144.22,101.36,149.55,103.5l3.05-7.1a476.78,476.78,0,0,1-152.6-96.4" fill="none" stroke="#063" stroke-linejoin="round" stroke-width="8"/></g></g></svg>