<svg xmlns="http://www.w3.org/2000/svg" viewBox="0 0 428 422"><g id="Warstwa_2" data-name="Warstwa 2"><g id="Warstwa_1-2" data-name="Warstwa 1"><path d="M428,188.57V422H0V0H154.55c-2.31,4.14-6.63,3.73-10.33,4.19-4.44.54-9,.15-13.46.15-19.13,0-38.26,0-57.38,0-14.11,0-15.23,1.35-21.29,14-6.94,14.48-9,30.22-13.07,45.42-6.75,25-12.73,50.28-17.78,75.73-1.94,9.78-2.28,19.15,4.91,27.27a26.08,26.08,0,0,1,3.33,5c9,16.59,22.39,29.12,36.93,40.66,2.37,1.88,6.3,3.68,5.06,7.17S66,221.73,63,221.81c-10.45.27-21-.67-31.3,1.77a25.94,25.94,0,0,0-17.54,13.5,13.46,13.46,0,0,1-5.32,5.64c-4.76,2.75-6.15,6.44-4.49,10.84,1.53,4.05,5.61,6.09,10.58,5.29a4.29,4.29,0,0,0,1.45-.35c6.44-3.78,10.35-.76,14.72,4.24,6.13,7,11.59,14.58,17.87,21.45a6.75,6.75,0,0,1,1.93,3.44c-.43,2.2-2.25,3.23-3.79,4.41-9.38,7.23-9.39,16.21-7.68,25.55.4,2.16,2.35,3.13,4.13,4.06,5.81,3,11.94,5.49,18.45,5.77,5.85.26,11.29,2.39,17.06,2.66,2.58.12,3.79,1.81,4.4,4.07.73,2.74,1,5.55,1.58,8.33,1.84,9.48-3.93,15.18-13.64,13.2-6.2-1.27-12.47-2.12-18.61-3.61-6.46-1.57-11.84.95-16.88,4.27-4.14,2.72-5.42,10.42-2.74,14.86,5.6,9.24,11,18.64,18.21,26.76a24.38,24.38,0,0,1,3.71,4.69c4.56,8.81,12.43,12.52,21.61,14.27.7.2,1.39.46,2.08.71s1.31.43,2,.66a12.88,12.88,0,0,0,2.6.59c5.38,1,10.76-1.33,16.19.11,1.43.38,2.61-1.23,3.75-2.2a5.74,5.74,0,0,1,4.09-1.6c6.76.64,12.71-1.94,18.66-4.57.61-.27-.13-.23.45-.17,8.47.86,16.5-5.21,25.12-1.59,2.88,1.21,5.92.54,8.86.84.58.15,1.49.6,1.57-.33.47-5.5,1.13-11.2-4-15.12-3.59-2.74-3.63-5.59-1.18-9a3.41,3.41,0,0,0,.7-1.31c1-6.54,4.58-10.71,11.06-12.49,2-.54,2.61-2.9,4.29-4.71,8.46,3.21,16.44,1.27,24.05-3.23,2.63-1.55,5.05-1.13,7.23,1.05,4.76,4.76,10.58,8,16.33,11.35a13.71,13.71,0,0,0,16.76-2.73c2-2.33,1.2-4.05-.93-5.87-9.18-7.83-17.45-16.88-29.29-21a4.46,4.46,0,0,1-2.57-2.4c.72-2.27,2.85-1.8,4.5-2.1,14.06-2.52,26.59-8.11,36.78-18.32,3.65-3.65,7.54-4.73,12.66-3.26,5.87,1.69,11.84,3,18.15,1.23,7.36-2,11.66-6.47,12.32-14.22.93-10.76,2.54-21.43,4.05-32.12.63-4.43,2.68-7.18,6.89-8.82,10.05-3.92,19.68-8.93,30.08-12,2-.6,4-1.5,6.18-1,1.33,2.37-.13,4-1.07,5.66-2.61,4.64-5.66,9-8,13.79-1,2.09-2.15,4.4-.46,6.57,1.82,2.34,4.23,1.12,6.43.51,1.44-.41,2.82-1.1,4.27-1.38,8.45-1.62,13-6.8,14.1-15.2.09-.66-.05.16.12-.49,3.07-11.78,8.6-16.38,20.78-16.57,4.15-.06,6.4-1.4,7.65-5.41,1.58-5.07,3.84-9.92,5.31-15a8,8,0,0,1,5.17-5.58c12-4.75,21.2-13.51,31-21.41a11.62,11.62,0,0,0,4.46-7.55C426,190.07,426,188.41,428,188.57Z" fill="#fefefe"/><path d="M166.53,0H428V184.58c-6.18.53-10.6,4-14.9,8.18-7.18,7-16.25,11.52-23.78,18.08a4,4,0,0,1-4,.9c-2.28-2.85,0-4.87,1.82-6.56,5.16-4.7,10.35-9.36,15.25-14.34,6.39-6.49,9.7-14.59,12.36-23,.85-2.72.68-5.46-2.13-7-3.06-1.67-5.43,0-7.4,2.26-7,8.23-13.61,16.79-18.24,26.67-2.34,5-5.46,9.5-8.42,14.12-.86,1.35-1.86,2.46-3.64,1.46s-1.46-2.39-.87-3.89c3.43-8.67,6-17.63,8.62-26.54,2.45-8.2,3.57-16.54,2-25.08-.39-2.1-.41-4.62-3.2-5s-4.28,1.56-5.23,3.81c-3.66,8.62-5.38,17.8-7.65,26.82a121.53,121.53,0,0,0-3.27,21.63,14.71,14.71,0,0,1-1.66,6.22,3.14,3.14,0,0,1-3.25,1.85c-1.61-.21-2.13-1.43-2.37-2.81a16,16,0,0,1,.14-4.47,158.22,158.22,0,0,0-2.35-45.6c-.49-2.51-1.78-4.6-4.3-4.9-2.79-.33-3.35,2.37-4,4.32a89.45,89.45,0,0,0-3.84,45.66c.74,4.2,1.11,8-1.09,12-1.63,2.94-1.43,6.39-1.22,9.77.32,5.08-.42,5.75-5.33,5.92-8.87.31-12.78,4.45-12.66,13.46,0,1.9-.06,3.89-1.83,4.9A180.75,180.75,0,0,1,298.9,254c-1.91-2.48-1-4.45-.55-6.32,1.19-5,2.17-10.07,3-15.16.59-3.52-.77-5.25-4.19-6-5.12-1.1-10.28-.56-15.42-.71-6-.18-7.11-1.29-6.51-7.15a74.82,74.82,0,0,0,.5-12.43c-.28-4.49,1.63-7.64,5.9-9.37,2.16-.87,4.3-1.79,6.43-2.72,12.52-5.51,15.44-20.09,6.05-30.24a16.48,16.48,0,0,0-2.47-2.47c-8.92-6.24-9.24-15.13-8.54-24.87.67-9.5,1.82-18.12,10.05-24.68,3.34-2.65,3.61-7.53,2.25-12.1-3.17-10.63-8.47-20.19-14.15-29.6-3.17-5.27-6.49-10.46-9.36-15.9a25.06,25.06,0,0,0-9.6-10.52c-5.41-3.14-7.06-9.1-9.94-14-5.94-10.22-13.55-17.24-25.94-19.49-18.49-3.36-36.93-6.72-55.71-8C169.12,2.15,166.85,2.73,166.53,0Z" fill="#fefefe"/><path d="M166.53,0c3.89.66,7.79,1.87,11.68,1.89,18.37.1,35.94,5.23,53.85,8.15,4.19.68,7.57,2.83,10.94,5.75,6.3,5.46,10.29,12.32,14,19.45,1.81,3.54,3.72,6.56,7.45,8.27,4.76,2.18,6.66,6.83,9.12,11,5.42,9.13,11.3,18,16.17,27.44a100,100,0,0,1,7.92,21.1c.71,2.82-1.69,6.47-2.87,9.68a5.41,5.41,0,0,1-2.07,2.1c-6.11,4.28-8.25,10-7.54,17.45.48,5.17-.84,10.48-.7,15.71.07,2.34,1.43,4.84,2.76,6.91a19.45,19.45,0,0,0,4.87,5c5.65,4.16,8,10.27,8.92,16.66.47,3.21-1.52,6.77-2.29,10.2-.84,3.75-2.6,6-6.75,7.15-5,1.42-9.64,4.31-14.56,6.62-.38,8-.76,15.8-1.15,24,5.38,0,10.33-.12,15.28,0a41.48,41.48,0,0,1,8.69,1.06c2.93.75,3.53,3.3,3,6-1.49,7.19-3.11,14.35-4.69,21.59l23.95-11.25c-1.36-5.26-1.87-11.14,2.77-14.53,3.91-2.87,8.86-5.84,14.79-2.55.77-7-2.11-14.48,3.6-19.95-4.37-20.7-3.83-40.83,5.74-60.32,6.71,1.29,8.3,6.25,8.67,11.37,1,13.11,1.55,26.26,2,39.4.11,3-.75,6-1.17,9.07,3.13.3,4.24-.61,4.57-3.19,1.08-8.36,2-16.79,3.78-25,2.16-9.72,5.16-19.25,8-28.81a6.07,6.07,0,0,1,2.93-3.58c5.41-2.11,6.91-1.07,7.84,4.46a57,57,0,0,1-2.76,29.14c-2.49,6.92-4,14.19-6.21,21.24-.56,1.79-1.89,3.34-3,5.23l2.69,1.5c5.78-10.29,11.26-20.78,17.49-30.8a79.61,79.61,0,0,1,11.91-14.23c1.64-1.62,4.92-1.58,6.75-2.1,6.37,5.29,3.4,10.53,1.63,15.29-4.55,12.3-13,21.59-23.27,29.59-2.51,2-6.33,3.8-6,9,6.43-4.77,12.43-9.08,18.27-13.59,5.41-4.18,10.52-8.73,16-12.81,2.4-1.78,5.31-3.3,8.46-1.11v4c-1.52,10.3-9.67,14.74-17.13,20.1-7,5.05-13.68,10.53-22,13.4-1.1.37-1.88,2.32-2.37,3.7-2.54,7.1-4.94,14.24-7.14,20.66-5.59,1.07-10.63,2.16-15.71,3-6.65,1.08-8.9,6-10.43,11.56-.77,2.78-1.27,5.64-2.07,8.41-1.45,5.1-4.89,7.95-10.07,9.09a50.59,50.59,0,0,0-9.13,3c-2.48,1.08-5.21,1.91-6.49-.71a9.28,9.28,0,0,1-.1-7.15c2.63-5.5,6-10.63,9.07-15.91.64-1.11,1.25-2.23,2.38-4.27-6.12,2.05-11.49,3.6-16.68,5.63-7,2.75-13.85,5.94-20.84,8.77-2.74,1.11-4.55,2.83-4.93,5.72-1.08,8.38-2.05,16.78-3,25.18-.4,3.4-.54,6.84-1.06,10.22-1.16,7.54-5.51,11-12.94,13.54-7.18,2.42-13.61.53-20.13-1.33-4-1.13-7-.68-9.6,2.42-7.78,9.44-18.86,13.38-29.68,17.6-4,1.55-8.5,1.77-12.95,2.64,1.45.75,3,1.69,4.63,2.38,8.77,3.66,16.49,8.71,22.6,16.13a26.06,26.06,0,0,0,5.26,4.33c4.08,2.89,3.93,6.14-.54,8.62-1.84,1-3.9,1.69-5.57,2.92-3.77,2.8-7.49,1.46-10.65-.51-7-4.34-13.64-9.22-20.95-14.24-7.75,4.54-16.45,9.1-27,4.45.76,4.53-3.33,5.16-6.33,6.1-3.83,1.2-5.91,3.09-6.73,7.15-.63,3.14-2.48,6-3.68,8.77,2.54,3.24,6.16,6.18,7.41,9.92s.29,8.49.29,12.78l-1.55.6-1.71-3c-1.31-1.33-1.17-3.07-1.19-4.7a8.62,8.62,0,0,0-3-6.61,12.89,12.89,0,0,1-4.51-8.58,10.26,10.26,0,0,1,1-7.15,22,22,0,0,0-5.43-26.9c-4.53-3.33-8.69-7.22-14-9.35C126,341.2,114,345,109.18,354.07c-1.26,2.35-.33,4.52-.05,6.78,1.33,2.45,3.05,1.23,4.66.44,4.92-2.4,9.57-5.28,14.33-8,1.73-1,3.37-2.12,5.82-2.31a15.67,15.67,0,0,0,5.85,3.58c4.28,1.3,7.66,12.2,5.81,17.67a41.48,41.48,0,0,1-15,20.47,2.92,2.92,0,0,1-2.85-.51,61.87,61.87,0,0,1,8.44-14.3,21.56,21.56,0,0,0,4.26-8.36c.84-3.8-.94-6.53-3.48-8.78s-5-.7-7.36.65a38.08,38.08,0,0,1-10.73,3.91c-6.36,1.41-8.42,4.17-7.88,10.48.8,9.21-1.79,12.68-10.8,14.85-2.74.65-4.48-.4-5.94-2.48a74.5,74.5,0,0,0-6.57-8.77c-2.73-2.87-6-3.75-9.52-2.38a7.62,7.62,0,0,0-5.06,6.82c-.38,4.06,1.13,6.92,4.63,9.17,6.56,4.24,14,3.45,21.18,4.34,8.45,1.05,16.12-.85,23.56-4.58,1.65-.83,3.5-2.32,5.45-.37.6,2.86-1.62,3.64-3.48,4.6a59.21,59.21,0,0,1-24.55,6.45A73.48,73.48,0,0,1,86,402.39c-10.47-1.7-17-8.54-22.16-17-2.49-4.08-1.94-13.3.28-17.15,2,.12,2.22,2.31,4,3.17,5-4.61,11.6-1.45,17.24-3.07,1.37-1.54.73-2.94.2-4.34-.87-2.63-3-3.22-5.42-3.52-8.17-1-16.33-2.06-24.57-1.94-1.23,0-2.45-.08-3.68-.09a6.89,6.89,0,0,0-2.62.42l-1.18.64a17.43,17.43,0,0,0-6.42,7.38c-3.46,6.6-1.14,11.78,3.6,16.5,1.9,2.11,4.13,3.92,5.62,6.39,4.33,7.69,10,13.77,18.39,17.36,6.84,2.92,13.34,6.62,20.61,8.52.77.75,1.41,1.53.7,2.67-2.35,1.53-5,1.33-7.59,1.2-.76,0-1.57.12-2.16-.57l-2.09-.46a1.28,1.28,0,0,1-1.11-.38c-5.2-1.62-10.69-2.67-15.48-5.1-2.77-1.41-4.37-5.09-6.56-7.69a215.37,215.37,0,0,1-24.14-34.51c-2.11-3.84-.65-13.46,3-15.58,5.6-3.22,11.39-6.15,18.34-4.52,4.84,1.14,9.88,1.52,14.64,2.9,6.32,1.83,12,1.49,17.5-3.69-1-5.72-2.08-12-3.25-18.8l-8.64.68-.74-2.42c-10.81.62-20.93-2.1-30.45-7.21-1.12-.6-2.93-1.32-3-2.16-.66-5-1.68-10.17-1.14-15.13.84-7.74,5.78-13.13,13-16.71-8.34-9.88-16.4-19.45-24.5-29-1.7-2-3.41-2.27-6.05-.9-6.93,3.61-11.38,2.93-15.77-1.61C2,254.2,1,247.44,3.58,245.83c6.76-4.17,9.52-11.65,15.09-16.73,5-4.55,10.56-7.46,17.47-7.63,10.06-.24,20.12-.62,30.17-1,1.71-.06,3.41-.35,6.37-.67-4.81-4.35-8.37-8.25-12.57-11.26-12.45-8.93-22.17-20.21-30-33.23a46.07,46.07,0,0,0-4-6c-8.21-9.78-8.59-20.47-5.43-32.44,4.06-15.4,6.66-31.18,10.26-46.72C34,76.38,37.75,62.73,41.19,49c1.57-6.23,2.48-12.71,4.72-18.68C49,22.09,53,14.18,56.82,6.22c.48-1,2.17-1.74,3.41-1.95A65.33,65.33,0,0,1,70.91,3c23.77-.1,47.54.09,71.31-.18,4.12,0,8.22-1.86,12.33-2.86Z" fill="#182f18"/><path d="M130.38,391.79c5.27-5.66,10.77-11,13.67-18.57,2.49-6.49-.6-11.59-3.33-16.67-.71-1.33-4.12-1.2-6.51-1.79,0-.81.1-1.87.18-3.2a16.1,16.1,0,0,0-2.07.79c-6.48,3.64-12.92,7.36-19.45,10.92-2.42,1.32-4.91,2-5-2.25a9.8,9.8,0,0,1,4.09-4.85,128.34,128.34,0,0,1,17-9.46c1.49-.68,3-1.52,4.69-.5l13.91,9.05c1.64,3.21,3.51,6.31,4.19,9.91.16,1.5.11,3,.12,4.49a35.79,35.79,0,0,1-4.13,14.59c-1.18,2.25-2.69,4.54-1.66,7.2,2.77,1.41,4.08-2.44,6.53-1.34.49,3.69,2.61,6.33,5.37,8.65,3.77,3.15,2.49,7.47,2.43,11.49-3.62-.23-7.34,0-10.83-.79-3.9-.87-7.4-1.94-10.62,1.57-.71.78-2.77,1.38-3.5.92-6.29-3.93-10.76,1.77-16.09,2.73-3.82.69-7.73.88-11.56,1.51a23.58,23.58,0,0,0-4.43,1.66c-4.45-3.12-9.76-4.24-14.71-6.2a47.28,47.28,0,0,1-12.11-6.44A10.63,10.63,0,0,0,73.29,404,27,27,0,0,1,58.7,391.44a22.38,22.38,0,0,0-.87-3.5c-.81-2.8-2-5.48-2.31-8.43a16.09,16.09,0,0,0-.62-3.57c-1.18-4.51,1.69-7.55,3.91-10.84.83-1.26,1.52-2.64,2.92-3.41a4.51,4.51,0,0,1,2.27-.22,19.27,19.27,0,0,0,5.36.34c6,.37,11.73,2.29,17.75,2.17l1.45,6.09c-4,0-7.68.18-11.27-.05-4-.25-7.69-.12-9.06,5.58l-3.75-6.66A23.4,23.4,0,0,0,67.88,389c7.88,11.63,19.56,13,31.92,13.26,6.21,1.27,12.51.61,18.75.59,3.77,0,6.21-2.88,8.23-5.82C128,395.3,129.71,393.91,130.38,391.79Z" fill="#6b6c6b"/><path d="M87.11,364c-4.07,0-8.13.14-12.19,0a55.14,55.14,0,0,1-6.22-.9c-1.53-1-3.46.22-5-.89h-2c-1.38.52-1.39,1.94-2,3-1.34,3.64-5.33,6.31-4,10.93.85.84.06,2.17.9,3,.69,3,1.37,6,2.06,9,.91.79.1,2.12.91,2.94a31.42,31.42,0,0,0,14.09,12.08c.81.81,2.13,0,2.91.91,7.79,3.33,15.63,6.57,23.34,10.09,1.4.64,2.27,2.42,3.39,3.67-1.46,2.38-3.34,2.91-6.2,2.37-2.66-.5-5.54.31-8.32.27a53.23,53.23,0,0,1-6.26-.77c-.22-.17-.29-.34-.2-.49s.18-.21.26-.21l7.9-1.06c.4-.53,1.1-.32,1.59-.65-.85-.42-1.75-.69-2.56-1.15-16-4.47-31.48-9.78-39.7-26.1,2.35-2.43,2.32-4.92,1-8.05-2.41-5.93-3.84-12,1.73-17.29,2.13-2,1.24-5,2.06-7.42l29,2.1C86.66,359.61,86.89,361.79,87.11,364Z" fill="#979797"/><path d="M82.66,419l-.06.7L80.86,419Z" fill="#6b6c6b"/><path d="M77.66,418.13l1.11.38Z" fill="#6b6c6b"/><path d="M36.77,168.69c-2.64-2.51-5.47-4.85-7.86-7.58-2.25-2.57-4.43-5.39-2.3-9.28a5.08,5.08,0,0,0,.16-3.43c-2.33-8.75,1.35-16.78,3.25-24.9C36.7,94.94,43.49,66.39,51,38a59.47,59.47,0,0,1,10.5-21.48c3-3.75,9.66-5.88,14.87-6.31C90.19,9.13,104.14,9.33,118,9c10.58-.26,21.27.3,31.71-1.06,13.57-1.78,26.5,1.25,39.65,3,10.89,1.43,21.8,2.7,32.7,4.12,4.86.63,9.69,1.45,14.87,2.23,11.06,16.29,22.47,32.63,33.38,49.3,6.17,9.43,11.53,19.39,17.22,29.13,1.38,2.35-.21,11.8-2.27,14.19-2.82-3.79-5.08-8-9.25-10.69a23.42,23.42,0,0,0-31.16,4.72c-2.8,3.47-5.46,7.06-9.55,9.17-1.29.25-2.69.11-3.82,1-4.42.82-8.83,1.62-13.32.51-1.94-.64-4-.42-6-1.06a62.62,62.62,0,0,1-12.65-6.7c-8.7-5.68-18.07-8.3-28.78-5.51-8.29,2.16-16.88,3-25.07,6-3.92,1.4-7.49-1.84-11.19-3.08-1.5-1.8-.91-3.73-.35-5.66.93-3.18,1.46-6.48,2.55-9.59,4.55-13,1.73-25.49-2.72-37.81-1.73-4.79-3.79-9.46-5.44-14.43-.51.7-.23,1.39-.58,1.93C124,40,121.09,37,117.69,36c-1.6-.93-3.24-.45-4.87-.14A201.47,201.47,0,0,0,89,37c-2.17.27-4.27.87-5.75,2.67-8.57,10.4-13.18,22.79-18.36,35.62a66.41,66.41,0,0,1,19.55-.07c12.08,1.94,19.83,9.1,22.14,21A111.78,111.78,0,0,1,109,122.48c-.09,2.17-.13,4.33-1.13,6.32-1,1.58-.86,3.38-1,5.13a89.85,89.85,0,0,1-12.82,29c-3.92,5.7-9.46,8.65-16.36,10.28-13.45,3.17-26,1.39-38.1-4.78a2.31,2.31,0,0,0-1.45-.13A9,9,0,0,1,36.77,168.69Z" fill="#979797"/><path d="M106.59,128.72c.35-5.57,1.22-11.17.91-16.71a111.21,111.21,0,0,0-2.8-17.51C102.48,84.44,95,78,84.78,76.81A85.51,85.51,0,0,0,74,75.9c-3.55.06-7.09.81-11.41,1.35,1.08-2.68,1.93-5.24,3.11-7.63,4.47-9,9.13-18,13.57-27,2.65-5.4,7.29-7.4,12.81-7.6,7.19-.27,14.39-.13,21.59-.17a4.65,4.65,0,0,1,4,0l9.92,4.06a4.72,4.72,0,0,1,2.34,3.63c2.69,15.45,6.68,30.72,6.2,46.61-.1,3.34-1.28,6.47-1.63,9.76-.18,1.64-.73,3.24.07,4.84,1.46.22,3.23,0,4.34.74,4,2.68,7.51,1.22,11.53,0,5.64-1.72,11.57-2.48,17.36-3.7,2.88-.61,5.71-1.6,8.61-1.93,7.89-.92,15.06,1.64,21.83,5.34,4.88,2.66,9.56,5.68,14.33,8.55,1.81,1.29,4-.13,5.89.91l13-.89a2.49,2.49,0,0,1,2.95,0c3.26-3.38,6.57-6.72,9.77-10.15,10.37-11.1,27.92-12.6,38.79,1.4,1.25,1.61,1.6,3.91,2.36,5.9q-3.63,5.54-7.25,11.06c-.35.82-.29,1.74-.62,2.57a31.92,31.92,0,0,0-.13,4.26c0,3.41.07,6.8-.07,10.2a9.81,9.81,0,0,0,0,5.32c.61,4.2.48,8.48,1.42,12.64a8.94,8.94,0,0,0,.67,3.79c2.66,8.28-.24,12.72-10.42,16a44.71,44.71,0,0,0-5,.55,5.39,5.39,0,0,1-2,0,4.78,4.78,0,0,1-1.21-.51l-.53-.34c-.36-.21-.71-.45-1.06-.67s-.74-.39-1.11-.58c-.58-.24-1.18-.47-1.77-.7-4.07-1.43-6.47-5.48-10.67-6.69-2.45-2.59-3.14-6.11-4.79-9.13-2.55-4.65-4.93-9.3-9.45-12.47-1.85-1.29-2.46-3.43-2.56-5.66.1-1.23.53-2.49-.25-3.66a15.6,15.6,0,0,1-2.06-4.6,5,5,0,0,0-1-2.19c-1.6-1.5-3.5-1.27-5.4-.93a5.18,5.18,0,0,0-.93.75,6.1,6.1,0,0,0-.44,3.15c0,.87,0,1.73,0,2.6a11.59,11.59,0,0,0,.52,3.83,11.78,11.78,0,0,1,.33,1.3,18.23,18.23,0,0,0,.91,3.33c2.14,5.1,2.18,9.63-1.9,14.19-3.4,3.8-5.65,8.54-8,13.15a21.5,21.5,0,0,1-12.84,11.1,41.51,41.51,0,0,0-4.43.94,19.78,19.78,0,0,1-3.91.45,16.88,16.88,0,0,0-3.25.24,67.15,67.15,0,0,1-18.62.52,18.5,18.5,0,0,0-4.68-.8,15.49,15.49,0,0,1-3-.44c-1.43-.45-2.92-.68-4.34-1.14-2.23-1.33-5.47-.94-6.71-3.95-.37-1.31-.29-2.7-.67-4a12.43,12.43,0,0,1-.29-1.24c-.14-.75-.19-1.51-.39-2.25a1.88,1.88,0,0,0-.64-.76,2.29,2.29,0,0,0-1,.37,19.32,19.32,0,0,1-2.82,2.13,10.77,10.77,0,0,1-1.14.65,11.56,11.56,0,0,1-1.25.55c-8.5,3.73-10.8,13.72-5.06,22.2,3.54,5.22,7.6,9.7,14.57,10.08,1.43.08,3,.27,4,1.7.53,1.55-.13,2.91-.72,4.26a76.36,76.36,0,0,0-5.76,22.37,25.21,25.21,0,0,0-.18,10.73c.24,3.77.87,7.54.24,11.33,1.44,15,2.89,30.06,4.36,45.33-3-5.16-6.06-10.17-8.77-15.39-7.41-14.23-14.67-28.53-21.91-42.84a10.77,10.77,0,0,1-1.53-5.1c.32-5.38-1.67-9.93-3.88-14.64a150.53,150.53,0,0,0-16.26-27.59,21,21,0,0,1-1.63-3l-1.39,1.06c1.29,6.53,2.58,13.06,4,20.36-9.57-1.17-19.09,2.23-28-2.29-1.79-.91-3.07-3.06-4.29-4.85-2.37-3.49-4.11-7.5-6.87-10.63-7-8-14.37-15.56-21.6-23.3a16,16,0,0,1-3-5c.6-3.44,2.57-1.26,3.54-.59,8.51,5.87,18.38,6.84,28,6.29,6.47-.36,13.88-.58,19.06-5.67,3.61-3.54,7.19-7.49,9.42-11.94,3.53-7,5.92-14.64,8.79-22C106.85,132.2,105.54,130.24,106.59,128.72Z" fill="#6b6c6b"/><path d="M217.48,134.71c0-1,0-2,0-3,1.06-1.11-.11-2.77,1-3.87l.11-.11c2.76-.93,5.4-.89,7.79,1,.37.61.73,1.22,1.09,1.83a4.65,4.65,0,0,1-1,1c-3.13.9-4,3.14-3.49,6.08.73,4.57,2,8.92,4.83,12.72,1.14,1.53,2.67,3,2.24,5.22-4.3,6.51-9,12.73-12.55,19.75a13.31,13.31,0,0,0-.63,10.62c1.53,4.69,5.78,6.6,10.21,4.47,3.46-1.67,6.72-3.15,10.89-2.51s6.95-3.22,5.41-7.69c-1.78-5.16-3.4-10.42-6.35-15.14-1.56-2.48-3.47-5-3.08-8.23a3.83,3.83,0,0,1,2.69-2.46c2.31.49,2.82,2.59,3.7,4.29a161.08,161.08,0,0,1,9.36,21.68,5.94,5.94,0,0,1,.25,1.89c-.38-.3.26-1.28-.2-2-.71-4.61-4.5-8.42-3.45-13.48a29.8,29.8,0,0,1,4.35,1.65c2.34,1.32,4.55,2.89,6.81,4.35a6.88,6.88,0,0,1,.95.84l1.05.19a4,4,0,0,1,.89.81l.12.11,1,.9h2c1.5-1.14,3.47.18,5-.94a43.57,43.57,0,0,0,4.51-1.86c6.45-3.52,7.45-6,5.48-13.18-.89-.8-.08-2.14-.93-3q-.54-7-1.07-14a4.34,4.34,0,0,1-.05-4.07l.12-11.92c1-1.17-.1-2.82.91-4l.77-1.81c.08,5.78-.06,11.57.31,17.33a155.63,155.63,0,0,0,2.16,19.9c.5,2.59,3.21,4.74,4.88,7.12,1,1.42,1.93,2.89,2.88,4.35,2.3,3.73.8,6.58-2.09,9.15s-6.76,3.33-10.54,4c-1.83.32-4.12-.09-4.91,2.48,1.1,2.38,3.33,1.7,5.18,2,1.63.3,3.83-.44,4.35,2.15l-2.9,2.16c-.67.47-1.53.57-2.17,1.11l-.94.78,0,0a.76.76,0,0,0-.25.68c0,.25.09.37.15.37-.54.81-1.1,1.6-1.61,2.43-2.31,3.72-4.26,6.7-2.7,12.19,1.87,6.56.36,14.09.31,21.2-1.44,1.07-3.4.87-4.83,2h-3.72c-.16-2.59-.31-5-.46-7.56-2.57-.56-4.47-.45-4.85,2.57,0,.31-.3.6-.32.92-.59,6.93-4.33,10.13-11.64,9.23v-11.4c-5.8-1.11-6.25-2.84-8.58,9.75-2.41-.94-5.47-1.21-6.75-2.86s-.93-4.77-1.41-8.05c-2.91,4.51-.4,10.44-7.13,12.73-.36-3.92-.81-7.51-1-11.12-.16-3.31-.16-6.64,0-10,.15-3-1-4.36-4-4.22a1.47,1.47,0,0,0-2.11-.08c-1,1.09-2.44,2-2.93,3.3-2.71,7.11-5.19,14.31-7.87,21.81l-9.15-2.1c-4.43-4.26-4.51-10-5.13-15.49-.34-2.94-.95-5.84-1.21-8.78-.35-4.07-2.11-6.77-6.35-7.44-1.79-4.14-6.2-3.42-9.37-5a18.24,18.24,0,0,0-3.73-1c-5.15-2.13-10.77-1.72-16.09-3-5.56-1.36-9.83-4-11.27-10a7.41,7.41,0,0,0-3.56-4.6c-1.52-4.66,2.43-6.13,4.93-8.45l0,0a3.1,3.1,0,0,1,1.48-1.07l2.44-2a1.47,1.47,0,0,1,2.05,0l0,0c.88.81.07,2.16,1,3,0,.32.06.64.07,1,1,1.18-.1,2.84.9,4l6.06,4c1.17,1.07,2.85-.05,4,.94l3,.09c1.17,1,2.83-.09,4,.93l19.95-.9a2.6,2.6,0,0,0,3,0l4-.08c1.14-1.06,2.79.05,4-.93,8.73-3.21,12.06-11.14,16.22-18.4,1.68-3,4.05-5.51,5.71-8.47a11.11,11.11,0,0,0,1.08-5.31,32.49,32.49,0,0,0-1.05-5.79c-.87-.83-.08-2.16-.91-3l-.09-1C217.39,137.54,218.5,135.88,217.48,134.71Z" fill="#979797"/><path d="M196.63,322.26l-1.81-4.45c11.79-11.93,17.61-26.13,16.5-42.81-.26-3.82-.43-8.22-4.37-10.81.74-5.24,4.13-6.09,8.77-5.85,6.34.32,12.72,0,19.07.17,1.18,0,2.33,1.28,3.49,2-1.36,1.23-3.28-.14-4.65,1-.6,2.85,3,12.18,5.14,13.46,1.78,1.08,3.08-.59,4.65-.65l2,2.15c2.16-6.34,4.18-12.29,6.37-18.71l15.44-4c.54,3.63,1,7,1.67,11.16a27,27,0,0,0,2.29-3.33c1.26-2.65,2.18-5.48,3.63-8,.85-1.49,2.37-3.5,3.74-3.64a28.39,28.39,0,0,0,15-6.43c.3-.23.84-.16,1.83-.31-1.14,4.94-2.2,9.57-3.27,14.2-2.08.16-1.87-2.64-4.83-2.88-.78,0-1.38,1.39-1.62,2.89-1.3,8.09-4.06,16.08-2.47,24.44,3.14-.08,2.49-4.6,5.73-3.59l-3,19c-2.85,4.71-12.65,8.92-18.73,7.68-3.39-.69-7-1-10.06-2.67-3.34-1.78-5.81-1.07-8.54,1.19C237.1,313,223,317.91,209.51,323.71,205.64,325.38,200.51,326.34,196.63,322.26Z" fill="#979797"/><path d="M127.53,392c-5.53,2.19-11,4.51-16.61,6.5a17.39,17.39,0,0,1-6.31.77c-3.79-.13-7.61-1.15-11.33-.8-6,.56-11-1.68-16-4.13s-7.06-7.77-5.22-13.52c1.08-3.37,7.66-7.08,11.57-5.54,2.85,1.13,5.27,3.79,7.35,6.22,2.36,2.74,4.12,6,6.34,9.29,3.46-1.6,7.33-2.49,9.83-4.84,1.87-1.75,2.7-5.4,2.68-8.19,0-4.23-1.69-8.61,3.06-11.41a30.27,30.27,0,0,1,4.35-1.93c4.43-1.73,9-3.11,13.27-5.2s5.57-1.61,8.77,1.79c4.52,4.79,3,9.76.51,14-3.49,6-8.14,11.34-12.29,16.95Z" fill="#fefefe"/><path d="M196.63,322.26c6.94,2.78,13.31.58,19.51-2.4,8-3.86,16.07-7.63,23.85-11.93,4.59-2.53,8.66-6,13.1-9.15,11.18,6.51,22.25,7,32.89-1.52-.87,5.57.45,11.38-5.56,15.8-5.64,4.15-10.95,3.57-16.77,2.29a18.51,18.51,0,0,1-4-2c-7.84-3.9-7.81-3.87-14.29,2.37-4.52,4.36-8.81,9.07-13.82,12.78-6.82,5-14.39,8.76-23.4,7.74-2.32-.27-5.38.87-6.84-.26-1.65-1.27-2-4.36-2.7-6.7S197.28,324.62,196.63,322.26Z" fill="#6b6c6b"/><path d="M178.63,363.89c-1.8-1.11-4.25-1.8-5.28-3.4-6-9.36-11.63-18.93-17.36-28.45-1-1.65-2.4-3.5.51-4.8,5.76,1.13,11.53-1.29,17.29,0a18.92,18.92,0,0,0,3.73.72,18.81,18.81,0,0,1,3,.45,29.35,29.35,0,0,0,4.48.78,2.6,2.6,0,0,1,.94.3c6.45,4.5,7.67,20.79,1.92,26C184.78,358.33,181.49,360.88,178.63,363.89Z" fill="#6b6c6b"/><path d="M69.71,284.39c-7-5.32-13.25-11.1-17.7-19C47.3,257,53.56,246,59.25,242.52c2.62-1.58,5.49-2.75,8.65-4.31l4.15,7.67-8.68,7.34L59.59,246c-5.86,8.24-5.41,15.32,1.47,22.35a49.26,49.26,0,0,0,31.85,15.11c9.61.86,19.15,2.53,29,2.92l2.79,3.94c-2.68,3.41-6.74,3.3-10.42,3.8-15.48,2.1-29.92-1.19-43.44-8.85l0,0C70.4,285,70.05,284.7,69.71,284.39Z" fill="#909390"/><path d="M81.67,302.34c.35-.63.73-1.8,1-1.78a7.53,7.53,0,0,1,3.23.88c3.6,2.06,7.17,3.7,11.45,1.92.79-.33,1.89.06,3.75.18-1,3.11-1.92,5.74-2.88,8.65-4.15-.59-8.49,2.14-12.43-1.13,0,0-.71.81-1.08,1.24-3.77,2.33-4.6-2.2-7-3-8.48-6.63-16.69-13.55-22.9-22.48-4.06-5.83-8.19-11.62-12-17.61-1.19-1.88-1.41-4.37-2.12-6.57-.53-1.64-1.14-3.26-2.08-6l-2.41,8-7.41-9.27c-1.49-2.8-4-5.77,1.22-7.48,2.2.51,1.45,3.14,3.09,4.23,1.1.51,2.42.07,3.69.25,7,8.82,13.81,17.87,21.21,26.38,5.71,6.58,12.19,12.49,18.37,18.65,1.7,1.7,3.56,3.23,5.35,4.85Z" fill="#909390"/><path d="M356.2,246.16a5.81,5.81,0,0,1-2-.82c-.8-.79-1.19-2.38-2.06-2.67-6.8-2.24-6.86-8.34-7.51-13.65-.7-5.67-.42-11.47-.31-17.21,0-1.07,1.23-2.11,1.9-3.16A142.42,142.42,0,0,0,369.72,219c5.32,1.87,6.59,4.13,3.84,9.2a41.74,41.74,0,0,1-13.89,15.27C358.44,244.26,357,244.74,356.2,246.16Z" fill="#6b6c6b"/><path d="M180.52,329.25l-3-.1c-.86-.78-2.16,0-3-.86-4.27.3-8.54.82-12.81.8-1.72,0-3.44-1.2-5.17-1.85l8.11-7.82c2,3.79,4.89,4.95,8.95,3.1,1.49-.68,3.25-.41,4.88-.58,2-.21,5.12.11,4.85-2.8-.3-3.13-3.36-2.4-5.61-2.2-1.31.11-2.59.5-3.91.52-1.48,0-3,.11-4.14-1.11.57-2.11,1.62-3.08,4.13-3.14,11.83-.29,15,1.75,18.78,13.17,2.88,8.65,4.9,17.47,5,26.67,0,2.7-.77,4.26-3.12,6-4.81,3.55-9.63,6-15.76,4.86,0-5.19,5.17-6,7.87-8.71,2.41-2.45,4.19-4.78,3.88-7.95a96.52,96.52,0,0,0-2.56-14c-.31-1.22-2.19-2.05-3.34-3.07S181.66,330.31,180.52,329.25Z" fill="#979797"/><path d="M356.2,246.16c.12-.89,0-2.41.4-2.58,7.09-2.94,11.36-8.81,15.35-14.85,3.55-5.39,2.7-6.56-3.44-8.68-5.75-2-11.22-4.8-16.85-7.18-2.21-.93-5.74-.08-5.44-4.22,11.6-2.37,23.4-5,33.93,2.73,2.32,1.71,4.15,6.4,3.62,9.23-1.27,6.78-3.92,13.34-6.39,19.85a5.27,5.27,0,0,1-4,2.82A38.66,38.66,0,0,0,356.2,246.16Z" fill="#979797"/><path d="M159.51,348.22c2.81,4,5.74,7.9,8.37,12,2.21,3.44.29,7.48-5.06,10.07-.85-1.57-2.27-3.1-2.5-4.8-1.35-9.78-8.9-13.81-16.25-18.11-2.22-1.3-4.32-2.77-6.48-4.17-1.7-3.28-5.31-2.72-8-4-3.05-1.58-6.3-2.85-9.09-4.79-4.54-3.16-8.76-3-13.25-.08a48,48,0,0,1-5.64,2.72c-1.61-1.95-1-3.88.07-5.81,1.87-3.8,5.37-4.76,9.51-5.27l-2.62-4.63a3.8,3.8,0,0,1,2.41-3.25,3.46,3.46,0,0,1,2.45,1c11.35,11.39,26.22,17.61,39.16,26.68C154.73,347.28,157.35,347,159.51,348.22Z" fill="#6b6c6b"/><path d="M147.58,255.48q-.53-5.5-1-11a27.86,27.86,0,0,1,0-11c-.2-9.6,3.59-18.14,7.06-26.78,1.34-3.57,4.67-4.41,7.74-5.61,1.42.14,2.87.24,4,1.38-2.92,6.35-5.94,12.65-8.69,19.07a13.37,13.37,0,0,0-1,5.68c.31,7.52.84,15,1.32,22.95C152.44,250.29,149.27,251.77,147.58,255.48Z" fill="#979797"/><path d="M165.79,312.3l-6.45,2.39a341.6,341.6,0,0,1-8-55.64l6-1.37A83.61,83.61,0,0,1,159.8,267c1.88,12.94,3.57,25.92,5.3,38.88C165.37,307.87,165.52,309.83,165.79,312.3Z" fill="#909390"/><path d="M72.58,319.22v6.84c-11.56.21-21.73-2.9-32-8.51.22-4.26.14-8.66.72-13,.92-6.75,6.28-10.51,10.8-14.76,0,0,.45.34.69.52,1.37,2.07-.38,3.38-1.25,4.84C46.88,302.92,49,310.05,57.19,314,62.1,316.4,67.61,317,72.58,319.22Z" fill="#6b6c6b"/><path d="M159.51,348.22c-3,1.36-5.43,0-7.81-1.54-9.94-6.5-19.89-13-29.79-19.56-3.7-2.46-7.26-5.14-11-7.81l-2.33,2.07c-2.63-2.17-3.64-4.58-3.1-8.28.46-3.18,2.64-3.74,4.52-4.25,1.07-.29,3,1.22,4,2.38a44.46,44.46,0,0,1,4.45,6.39c2.66,4.37,6.93,6.69,11.12,9.19,7.4,4.41,14.58,9.19,22.12,13.34C155.28,342.13,158.33,344.14,159.51,348.22Z" fill="#979797"/><path d="M337.1,228.7c4.9,1.71,7.11,8.72,5,13.47-2.53,5.77-7.77,7.07-12.68,9.18-10.82,4.64-21.64,9.31-32.6,14-1.26-3.94-.56-6.58,3.19-8.36,8.47-4,16.84-8.26,25.25-12.41,1.15.79.78,2.55,2.18,3.28,2.19-.07,3.89-1.52,5.82-2.39,2.86-1.3,3.9-3.26,2.61-6.38C334.39,235.49,335.23,232,337.1,228.7Z" fill="#6b6c6b"/><path d="M411.16,164.82c-1,19.47-14.89,29.44-27.54,40.5C383.57,196.84,404.79,165.06,411.16,164.82Z" fill="#909390"/><path d="M77.78,220.4c.78,8.36,5.06,15.21,9.89,21.65a172.85,172.85,0,0,0,12.24,14c.86.92,2.59,1.16,4,1.45,5.23,1.06,10.48,2,15.73,3,2.15,1.66,3.42,3.32,0,5l-9.89-.38c-17-2.77-26.67-13.88-33-28.87a24.57,24.57,0,0,1-1.38-13.57C75.46,221.23,76,220.07,77.78,220.4Z" fill="#979797"/><path d="M176.69,268.4l.15-1.92a2.69,2.69,0,0,1,.6-1.13c.94-.54,2.24-1.74,2.73-1.47,1.29.7,2.89,1.89,3.19,3.16,2.47,10.77.44,21.42-1.27,32-.52,3.2-1.31,6.35-2.07,10l-2.49.12c-4.38-2-3.63-5.94-3.27-9.43.77-7.37,1.08-14.77,2.07-22.1.62-2.35,1.24-4.71.64-7.18A4.89,4.89,0,0,1,176.69,268.4Z" fill="#979797"/><path d="M123.68,270.56c4.66-1.13,6.9,2.54,8.57,5.36,7,11.73,13.5,23.72,20,35.7,2.11,3.85,1.85,5.05-.82,9.13l-7.9-12.46a219.47,219.47,0,0,0-18.39-31.1C123.84,275.23,121.72,273.32,123.68,270.56Z" fill="#909390"/><path d="M41.64,230.63l-10.9-2.16-9.65,12.66c-.37-.16-2.3-.42-2.6-1.26a4.87,4.87,0,0,1,.82-4c4.16-4.86,8.35-9.79,15.48-10.24,4.91-.31,9.81-.77,14.72-1.11,6.54-.44,13.09-.83,20-1.27l-.9,6.21c-3.66,2.76-8,1.4-11.92,1.54C51.68,231.14,46.6,232.4,41.64,230.63Z" fill="#909390"/><path d="M30.85,248.47c-5.52.89-1.34,4.61-2,6.92l-6.31-3.11c-10.85,6.93-11.57,7-17.37.72l3.23-9.48c3.68,1.13,6.91,2.28,10.22,3.08,2.49.6,4.76.72,6.41-2.3,1.4-2.57,3.82-4.57,5.79-6.83C35.68,243.51,35.68,244.94,30.85,248.47Z" fill="#6b6c6b"/><path d="M378,152.55a6.44,6.44,0,0,1,.67-1.8,11.4,11.4,0,0,1,2.18-1.6c.5,2.55,1.18,4.52,1.21,6.5.26,14.34-4.46,27.57-9.35,40.75a20.65,20.65,0,0,1-2.22,4.89c-.74,1-2.17,1.59-3.29,2.35l-1-.82q.61-5.56,1.25-11.13A239,239,0,0,0,378,152.55Z" fill="#909390"/><path d="M348.34,156.67c1.08-2.25,2.17-4.51,3.26-6.76l1.48.22c1,5.27,2.69,10.5,2.92,15.8.46,10.74.18,21.51.12,32.27,0,3.24-.32,6.48-4.91,6.22-1.55-1.57-1.59-3.6-1.56-5.58Q350,177.72,348.34,156.67Z" fill="#979797"/><path d="M72.58,319.22c-6.91.3-13.06-2.32-18.77-5.63-6.72-3.88-8-12.53-3.57-19.11.91-1.33,1.68-2.76,2.52-4.14l5.5,6.18-4.7,6.26c3.18,8.32,11.28,8,19,9.06Z" fill="#909390"/><path d="M423.66,189.48c-1.18,2.75-1.81,5-3,6.84-4.28,6.76-11.46,10-17.83,14.18-4.48,2.93-9.3,5.32-14.17,8.07-.47-1.41-.82-2.46-1.32-4,7.57-5.48,15.31-11,23-16.68,3.47-2.56,6.73-5.39,10.15-8C420.9,189.55,421.71,189.7,423.66,189.48Z" fill="#979797"/><path d="M70.8,285.29c6.76,2,13.54,4,20.28,6.11,11.33,3.51,22.48,2.26,33.58-1.06.41.28.94.48,1.18.86.62.95,1.11,2,1.87,3.38-4.67,2.09-8.61,4.54-14.33,3.06-5.46-1.41-11.43-.8-17.15-1.36-4.54-.46-9.07-1.17-13.54-2.08C77.39,293.12,73.69,289.69,70.8,285.29Z" fill="#6b6c6b"/><path d="M201.63,356.15c.3-2.16.6-4.33.92-6.59,5.59,2.74,11.67,5.32,17.34,8.61s10.75,7.22,16,10.82c-1.27,5-4.67,7.18-10.47,7.05-3.45-3.08-.69-4.66.94-6.12-5.83-5.46-13.85-7.27-21.19-10.52C203.66,358.72,202.19,357.91,201.63,356.15Z" fill="#979797"/><path d="M94.58,343.2c4-2.5,5.79-2.06,6.6,2.18,1.95,10.16,3.69,20.37,5.32,30.59.44,2.76.46,5.73-2.8,7.23-2.23,1-3-.66-3.58-2.13-1.8-4.59-2.91-9.32-1.84-14.3l2.56-2.31-2.13-.75a2.17,2.17,0,0,1-2-1.92C95.84,355.62,94.08,349.54,94.58,343.2Z" fill="#909390"/><path d="M54.72,357.3c1.71,2.72,1.7,5.69-.62,7.67-6.53,5.58-3.93,11.71-1.51,17.83,1.93,4.87,1.78,5.61-2.7,7.26l-5.08-6c-5.18-10.36-4-18.19,4-25.82l0,0c.48-.67,1.39-.46,2-.95Z" fill="#d0d1d0"/><path d="M130.73,323.29l9.18-13.63c3.18,4.75,6.65,8.85,8.85,13.55,1.77,3.77,2,8.27,3,12.81Z" fill="#fefefe"/><path d="M77.78,220.4c-3.77,2.84-2.39,6.79-1.48,10,3.48,12.51,10,23.08,21.61,29.67,3.69,2.09,7.84,3.35,11.78,5-10.45-.52-20.15-3.19-27.53-11.07A30.9,30.9,0,0,1,74,226.17c.38-2.08.81-4.15,1.29-6.61Z" fill="#6b6c6b"/><path d="M207.27,271.47c2.1,16.45-2.7,30.36-14.91,41.55-4.81-1.94-1.48-5.06-1.55-7.62a1.33,1.33,0,0,1,.74-1l.27-1a77.43,77.43,0,0,0,11.75-28.32C203.92,273.49,203.67,270.29,207.27,271.47Z" fill="#979797"/><path d="M152.61,390.11l-7.32,5c-.33-2.91-1.11-4.85-.63-6.39,1.51-4.82,3.56-9.46,5.26-14.23a25.71,25.71,0,0,0,.74-4.34,6.22,6.22,0,0,0,0-4.95q-1.53-5-3.07-9.93c4,2.34,5.9,5.77,7.39,10.28,2.36,7.13,2.89,13.46-1.71,19.81C152.41,386.49,152.79,388.5,152.61,390.11Z" fill="#979797"/><path d="M289,278.25a33,33,0,0,1-2.57,3.78,17.85,17.85,0,0,1-2.9,2.23c-.74-1.11-2.19-2.28-2.1-3.33.54-6.67,1.41-13.32,2.2-20,.17-1.45.15-3.08.81-4.3.84-1.55,2.06-3.51,3.53-4,2.45-.77,3.37,1.22,3.45,3.52,0,.4.51.79.77,1.18-.06,1-.13,1.93-.19,2.89a6.49,6.49,0,0,0-.81,3.11l-.19,1.88c-.88,1.25-.6,2.72-.81,4.1-.06,1-.13,1.92-.19,2.88a6.64,6.64,0,0,0-.81,3.11Z" fill="#d0d1d0"/><path d="M165.3,202.44l-3.86-1c-8.86-.35-17.45-1.17-23.48-9.06-3.13-4.1-3.79-8.2-1.32-12.76,3.13-.73,4.39,1.31,4.67,3.73.79,6.72,5.42,9.07,11.14,10.15,3.07.58,6.29.44,9.3,1.18,2.08.5,3.92,1.95,5.87,3Z" fill="#d0d1d0"/><path d="M348.34,156.67c.94,5.61,2.45,11.19,2.7,16.83.45,10.29.15,20.61.17,30.92-4.42.56-3.74-3.19-3.91-5.32-.64-7.86-.86-15.77-1.1-23.66-.14-4.68-.2-9.38.08-14.05C346.38,159.78,347.62,158.24,348.34,156.67Z" fill="#6b6c6b"/><path d="M123.1,256.56c-5.68-1.17-10.55-2-15.3-3.29a3.83,3.83,0,0,1-2-3.22c1.29-6.2,2.93-12.33,4.79-19.8Z" fill="#fefefe"/><path d="M280.27,189.44a59.09,59.09,0,0,0-6.18-.82c-2.68-.08-5.45-.46-5.47-3.63,0-2.86,2.55-3.33,5.1-3.46a35.44,35.44,0,0,0,7.32-1.07c4.83-1.23,7.21-5,7.24-10.85l5.09,4.48c-.29.71-.64,1.15-.61,1.56C293.29,184.51,286,186.28,280.27,189.44Z" fill="#d0d1d0"/><path d="M180.72,203.63c4.92-1.53,5.84-1.2,6.79,3.65,1.19,6.06,1.88,12.22,3,18.29.38,2.06,1.57,4,2.22,6a25.09,25.09,0,0,1,.65,3.78L186,234.22C184.22,223.93,182.47,213.78,180.72,203.63Z" fill="#d0d1d0"/><path d="M337.1,228.7c.13,4.26-1.89,8.63.93,12.82.42.63-.61,3.07-1.57,3.64-3.35,2-7,3.5-11.18,5.53V244.6a39.55,39.55,0,0,0,.89-5.55C326.32,231.82,329.67,228.58,337.1,228.7Z" fill="#979797"/><path d="M133.65,346.21A86.71,86.71,0,0,0,107.92,361c-1.39-7.49,2.51-13.86,9.83-16.39C123.34,342.7,128.77,341.42,133.65,346.21Z" fill="#909390"/><path d="M201.63,356.15c4.1,1.78,8.26,3.42,12.27,5.37,4.72,2.29,9.31,4.84,13,6.78-.62,3.24-1,5.49-1.49,7.74-6.16-4-12.39-7.83-18.46-11.93a58.38,58.38,0,0,1-6-5.28Z" fill="#6b6c6b"/><path d="M349,245.63c3,2.32,3.19,5.35,2.13,8.66-.59,1.85-1.73,3.66-1.81,5.53-.44,9.69-6.59,13.18-15,14.4-1.86-2-.9-4,.67-5.18,6.51-5,8.24-12.55,11-19.6C346.49,247.88,346.36,245.64,349,245.63Z" fill="#979797"/><path d="M77.74,309.3a12.24,12.24,0,0,1,3,.57,40.09,40.09,0,0,1,4.07,2.43c1,3.52,2.42,7,2.8,10.59.42,4.05-1.81,5.2-7.35,5.42-4,.17-4.8-1.84-4.5-5.16.12-1.3.11-2.62.16-3.93,2.72-1.62,2.15-4.55,2.82-7C78.37,311.25,78.06,310.27,77.74,309.3Z" fill="#6b6c6b"/><path d="M80.44,274.6c-5.61-2.2-7.22-4.51-10.74-14.8l6.57-4.4,6.3,7.57C82,265.93,81.26,270.12,80.44,274.6Z" fill="#fefefe"/><path d="M169.63,316.35c2.77-.32,5.54-.72,8.32-.91,1.63-.1,3.46-.26,4.87.37a4.66,4.66,0,0,1,2.41,3.28c.06,1.08-1.18,3-2.17,3.24A85.13,85.13,0,0,1,168.13,325c-3.15.19-3.2-3.17-3.52-5.62Z" fill="#d0d1d0"/><path d="M100.29,279.2c.14-3.22.26-5.85.36-8.31h16.14v10.54Z" fill="#fefefe"/><path d="M123.68,270.56c2.83,5,5.81,9.83,8.45,14.88,3.94,7.55,7.64,15.22,11.44,22.85l-15-20.87c-1-1.92-1.65-4.2-4-5.05-.92-1.11-1.9-2.18-2.75-3.34C119.55,276,120.17,273.22,123.68,270.56Z" fill="#6b6c6b"/><path d="M176.69,268.4l.88,1a12.88,12.88,0,0,1,0,6.94c-.69,8.83-1.53,17.65-1.95,26.5-.1,2.08,1.22,4.22,1.88,6.34h-4.88c0-13.06-1.39-25.88,2.7-38.38A15.11,15.11,0,0,1,176.69,268.4Z" fill="#6b6c6b"/><path d="M207.27,271.47c-.94,1.72-2.29,3.35-2.73,5.19-2.06,8.64-4.52,17.08-9.91,24.34a18.07,18.07,0,0,1-2.81,2.47c1.83-6.27,3.48-12.59,5.55-18.77a108.78,108.78,0,0,1,5.25-12.53C203.6,270.11,205.38,269.5,207.27,271.47Z" fill="#6b6c6b"/><path d="M30.85,248.47,33.6,244c-1.08-2.5-1.94-4.5-2.8-6.51,2-2,4.76-3.21,6.87-1.26,1.8,1.65,3.37,4.63,3.29,7-.1,2.86.33,7.21-4.68,7.48l.55,1.74-5.42,2.37C31.17,252.09,31,250.28,30.85,248.47Z" fill="#d0d1d0"/><path d="M121.56,314.38l-3.07-5.27,15-8.47c1.54,2.77,5.35,3.86,3.07,7.64C132.43,312.5,128.55,317.25,121.56,314.38Z" fill="#909390"/><path d="M94.58,343.2c1,5.47,2,10.94,3.08,16.4.27,1.38.7,2.74,1,4.11l-7.42,1.62c-.79-5.59-2.13-10.78-2-15.91C89.41,347.29,92.73,345.27,94.58,343.2Z" fill="#6b6c6b"/><path d="M97.61,244.49c-3.75-2.89-4.4-6.27-2.67-10.77,2.21-5.75,3.72-11.78,5.79-18.53l4,4.2C103.81,228.17,102.74,236.9,97.61,244.49Z" fill="#6b6c6b"/><path d="M130.38,391.79c.07,5.37-6.75,12.41-12.95,12.71a120.11,120.11,0,0,1-14.67-.65c-1-.08-2-1-3-1.57,8.48-.73,16.7-2.51,24.24-6.58,1.41-.76,2.34-2.43,3.49-3.68h0Z" fill="#909390"/><path d="M243.42,274.32c-3.39,4-5.06,3.84-7.33-.69a50.7,50.7,0,0,1-3.23-6.58c-.67-2-.65-4.31-.94-6.47l6.36-.11.8,1.87a.88.88,0,0,0,.35,1Z" fill="#d0d1d0"/><path d="M349,245.63c-1.95,4.87-3.59,9.89-5.95,14.54-1.67,3.29-4.42,6-6.5,9.11a33.52,33.52,0,0,0-2.26,4.94l-3.74,1.1c4.93-10.08,9.38-19.27,13.92-28.41C345.79,244.17,345.91,244.24,349,245.63Z" fill="#6b6c6b"/><path d="M95.7,339.27l-7.61,3.14c-.91-3.81-1.77-7.39-2.69-11.23,9.54-1.89,3.29-9.57,6-14.44,2.49-1.57,4.1.05,5.46,2.38-1.3,1.4-2.66,1.21-4,.15-2.68,3.22.06,5.85.92,8.69C95.73,331.49,94.4,335.61,95.7,339.27Z" fill="#6b6c6b"/><path d="M378,152.55c-.12,13.53-4.36,26.08-9.32,38.43-.14.35-.82.48-1.25.71.34-3.57.11-7.31,1.12-10.68C371.43,171.44,374.81,162,378,152.55Z" fill="#6b6c6b"/><path d="M98.28,366.77c1,4.58,2,9.19,3.16,13.73.27,1,1.48,1.8,2.26,2.7l-5.78,4.74c-1.92-5.56-4-10.24-5.09-15.13C91.92,369,95.88,368.3,98.28,366.77Z" fill="#6b6c6b"/><path d="M83,219l11.5-2.82-6.65,14.7C83.48,229.38,82.38,226.62,83,219Z" fill="#fefefe"/><path d="M122.61,340.87c-5.3,1.45-11.5.6-15.25,7.91-1.63-3.41-2.61-5.47-3.56-7.47C112.22,335.25,115.22,335.2,122.61,340.87Z" fill="#fefefe"/><path d="M97.61,244.49q3.56-12.56,7.12-25.1c3.89,3.52.94,7.42.35,11-.89,5.44-2.54,10.75-4,16.7Z" fill="#979797"/><path d="M48.82,358.27c-.19.61-.19,1.4-.59,1.8-5.57,5.69-6,12.44-4.18,19.68.35,1.42.51,2.89.76,4.34C35.33,375.46,37.16,363.71,48.82,358.27Z" fill="#909390"/><path d="M121.56,314.38c4.43.64,7.93-1.37,11.29-3.89a37.88,37.88,0,0,1,3.69-2.21c.1,4.71-3.19,7.58-6.28,10.08C126.14,321.68,125.22,321.05,121.56,314.38Z" fill="#6b6c6b"/><path d="M41.64,230.63l27-1.21c-.67,1-1.31,2.88-2,2.9-7.39.21-14.8.19-22.2,0C43.46,232.34,42.55,231.23,41.64,230.63Z" fill="#6b6c6b"/><path d="M91.77,267.64l4.67,1.07v10l-5.68-1.45C88.4,273.75,89.45,270.63,91.77,267.64Z" fill="#979797"/><path d="M60.92,299.16l11.52,10.1C61,307.32,59.22,305.69,60.92,299.16Z" fill="#fefefe"/><path d="M91.77,267.64c-.34,3.2-.67,6.39-1,9.59l-5-1.07c.45-3.66.83-6.7,1.27-10.32Z" fill="#6b6c6b"/><path d="M187.41,297.28V284.56l5.48,1.27-3.64,12.4C188.08,299,187.33,298.94,187.41,297.28Z" fill="#979797"/><path d="M127.13,301c-.71.41-1.45.77-2.13,1.23-4.74,3.25-9.49,3.83-14.62-.14l16.19-1.8C127.15,300.21,127.34,300.44,127.13,301Z" fill="#fefefe"/><path d="M92.79,319.27l4-.15,4.79,3.08-6.89,3.43C94,323.14,93.38,321.21,92.79,319.27Z" fill="#909390"/><path d="M119.58,265.48l0-5c5.23-.17,5.23-.17,7.11,4.05Z" fill="#6b6c6b"/><path d="M187.41,297.28l1.84,1-3.13,11.89-1.63-.36Q185.95,303.52,187.41,297.28Z" fill="#6b6c6b"/><path d="M78.69,312.22c1.77,5.25,1.49,5.94-2.82,7V312Z" fill="#909390"/><path d="M47.48,244.78c-.91-5-.86-5.07,6.06-6.24Z" fill="#fefefe"/><path d="M129.58,339.24c3,.71,7.78-2.24,8,4Z" fill="#909390"/><path d="M95.7,339.27q-1-5.65-2-11.31c.68,1,1.82,2,1.93,3.1A80.24,80.24,0,0,1,95.7,339.27Z" fill="#909390"/><path d="M101.67,331.28l-.07,5.81C97.83,335.62,97.84,335,101.67,331.28Z" fill="#909390"/><path d="M124.57,282.37c3.84-.31,4.21,2.15,4,5.05Z" fill="#909390"/><path d="M168.07,281.86c.19,2.53.37,5.07.56,7.61l-.73.09c-.39-2.52-.77-5-1.16-7.57Z" fill="#6b6c6b"/><path d="M290.14,269.37c-1.19-1.65-1.65-3.17.81-4.1Z" fill="#979797"/><path d="M265.31,232.37l4.83-2Z" fill="#6b6c6b"/><path d="M97.32,300.53h5.77V301H97.23Z" fill="#fefefe"/><path d="M36.81,167.6c1,1.66,2,3.31,3,5l-3-3.87Z" fill="#909390"/><path d="M89.59,416.16l3.49.51,0,1-2.48.3Z" fill="#6b6c6b"/><path d="M289.14,275.36l.81-3.11Z" fill="#979797"/><path d="M291.14,263.39l.81-3.11Z" fill="#979797"/><path d="M213.36,212.33l.85-1.46,1.26,1.54Z" fill="#6b6c6b"/><path d="M126.57,300.28l2.27-1.09.35.66L127.13,301C126.94,300.76,126.76,300.52,126.57,300.28Z" fill="#fefefe"/><ellipse cx="106.15" cy="349.76" rx="0.24" ry="1.11" fill="#6b6c6b"/><path d="M99.14,327.9H97.38v-.39h1.76Z" fill="#6b6c6b"/><path d="M274.28,192.46l3.09-.86-1,1A1.37,1.37,0,0,1,274.28,192.46Z" fill="#909390"/><path d="M50.81,357.3l-2,.95Z" fill="#909390"/><path d="M88.46,345l-.13.41a2.27,2.27,0,0,1-.38-.45c0-.06.17-.22.26-.33Z" fill="#6b6c6b"/><path d="M89.42,373.07l-.12.37A1.85,1.85,0,0,1,89,373c0-.06.16-.2.25-.3Z" fill="#6b6c6b"/><path d="M90.36,377.5l-.29.09-.12-.4.48-.11Z" fill="#6b6c6b"/><path d="M274.28,192.46l2.05.17-2.07.86C274.27,193.15,274.28,192.81,274.28,192.46Z" fill="#6b6c6b"/><path d="M239.43,263.37l-.35-1Z" fill="#979797"/><path d="M177.44,265.35l-.6,1.13Z" fill="#6b6c6b"/><path d="M274.14,194.58a5.08,5.08,0,0,1-.28-.8c0-.06.24-.17.38-.25Z" fill="#6b6c6b"/><path d="M69.71,284.39l1.06.88Z" fill="#6b6c6b"/><path d="M191.55,304.43l-.74,1Z" fill="#6b6c6b"/><path d="M150.63,365.19l0,4.95Z" fill="#909390"/><path d="M63.73,362.19l5,.89Z" fill="#909390"/><path d="M59.78,365.19l2-3Z" fill="#909390"/><path d="M56.68,379.13l-.9-3Z" fill="#909390"/><path d="M59.65,391.1l-.91-2.94Z" fill="#909390"/><path d="M76.65,404.09l-2.91-.91Z" fill="#909390"/><path d="M86.05,111.41c-1.3,9.11-1,17.54-9.67,22.23-5.66,3.05-9.7,2.25-12.81-3.39-2.55-4.63-3.79-9.56-2.17-14.81,1.47-4.71,2.74-9.54,4.77-14,1.37-3,3-7.12,7.25-6.5s8.36,2.66,10.1,7C84.85,105.27,85.4,108.9,86.05,111.41Z" fill="#d0d1d0"/><path d="M273.86,89.4c-1.58-1-3.72-1.67-4.67-3.1C258.4,70,247.8,53.66,237.14,37.31c-1.45-2.21-3-4.39-4.39-6.61-2.18-3.37-1.43-5.58,3.62-6.62,2,2.64,4.31,5.54,6.36,8.63,8.52,12.8,17,25.6,25.36,38.51A103.67,103.67,0,0,1,274.43,83c.72,1.51.62,3.41.9,5.12Z" fill="#d0d1d0"/><path d="M134.51,103.73c-.24-2.56-1-5.23-.62-7.68,2-11,.3-21.72-1.55-32.45-1.43-8.26-3.2-16.47-4.81-24.71l-.78-6.55,1-.28c1.27,3.14,2.5,6.3,3.83,9.41,4,9.3,7.45,18.76,8.4,28.9a40.76,40.76,0,0,1-.37,11.2C138.21,89,136.25,96.35,134.51,103.73Z" fill="#182f18"/><path d="M148.05,88.58a65.93,65.93,0,0,1-2.38-7.67c-1.43-7.58-2.77-15.19-3.79-22.83-.22-1.58.61-4.25,1.77-4.86,2.3-1.21,4.3.56,4.74,2.9,1.53,8.23,3.05,16.49,4,24.79.28,2.44-1.28,5.09-2,7.64Z" fill="#d0d1d0"/><path d="M218.4,113.64l-5.89-.91Z" fill="#909390"/><path d="M106.59,128.72l-.93,5Z" fill="#909390"/><path d="M117.61,34.83h0Z" fill="#909390"/><path d="M234.38,112.7l-2.95,0Z" fill="#909390"/><path d="M153.54,128.94l-4.54-.7c.21-.57.24-1.13.53-1.38,4.07-3.62,8.2-7.17,12.26-10.79,2.69-2.39,5.52-4,9.39-3.48a50.63,50.63,0,0,0,9.46.19c7.59-.43,13.8,2.79,19.48,7.27a8.44,8.44,0,0,1,2.54,4.06c2.55,8.56,5,17.14,7.27,25.79a6.53,6.53,0,0,1-1,4.92c-3.44,4.45-7.15,8.72-11,12.84a6.19,6.19,0,0,1-4.29,1.77c-6.43-.36-12.86-1-19.27-1.75a6.49,6.49,0,0,1-3.71-1.94c-3.94-4.26-8.15-8.39-11.34-13.18-2.07-3.12-2.79-7.23-3.68-11C154.69,137.55,154.26,133.43,153.54,128.94Z" fill="#182f18"/><path d="M267.39,157.2,251,160.67c-3.89-4.91-8-9.67-11.55-14.84-1.13-1.65-1.12-4.44-.83-6.61.74-5.74,2-11.41,2.9-17.13.56-3.66,2-6.49,5.51-8.16a15.4,15.4,0,0,0,4.56-3c4.16-4.43,8.51-2.79,12.5-.23s7.75,6,7.17,11.55C270.06,133.75,268.72,145.26,267.39,157.2Z" fill="#182f18"/><path d="M136.64,179.62c-2.08,7.75,1.79,13.12,7.65,17,2.68,1.79,6.48,1.93,9.77,2.81l7.38,2-7.83,5.23c-9.14.44-15.06-4.53-19.89-11.59-5.79-8.45-2.86-20.27,6-23.37a6.24,6.24,0,0,1,1.94-.07Z" fill="#182f18"/><path d="M122.25,209.17l12.8-3.48c6.91,9.24,6,17.59-2,20.7C125.26,223.28,125.51,215.46,122.25,209.17Z" fill="#182f18"/><path d="M249.16,181.11c-3.32-7.32-6.6-14.66-10-22a50.93,50.93,0,0,0-2.72-4.6c-6.42-5.19-10.38-11.71-10.95-20.1a5.13,5.13,0,0,1,.73-3.77l1.16-.15,1.84,4.71a3.13,3.13,0,0,1,.25,3.36c.23,3.1,2.14,5,4.09,7.32,4,4.69,6.87,10.24,10.11,15.51a51.3,51.3,0,0,1,2.49,5.3l4,13.71A.87.87,0,0,1,249.16,181.11Z" fill="#182f18"/><path d="M146.55,233.45v0Z" fill="#909390"/><path d="M226.33,128.71l-7.79-1C221.36,126.29,224.08,125.67,226.33,128.71Z" fill="#909390"/><path d="M268.31,174.66l-5,.94Z" fill="#909390"/><path d="M277.28,122.72c-.3,1.33-.6,2.65-.91,4C276.68,125.37,277,124.05,277.28,122.72Z" fill="#909390"/><path d="M166.55,182.57l-4-.93Z" fill="#909390"/><path d="M159.59,181.55l-4-.94Z" fill="#909390"/><path d="M197.45,180.67l-4,.93Z" fill="#909390"/><path d="M149.5,176.59l-.9-4Z" fill="#909390"/><path d="M276.25,138.62l.05,4.07Z" fill="#909390"/><path d="M217.48,134.71l.93,4Z" fill="#909390"/><path d="M218.43,127.83l-1,3.87C217.78,130.41,218.11,129.12,218.43,127.83Z" fill="#909390"/><path d="M229.51,138.61l-.25-3.36Z" fill="#909390"/><path d="M148.53,171.61l-1-3Z" fill="#909390"/><path d="M147.55,168.61l-2.05,0,1.67-1.25Z" fill="#909390"/><path d="M277.37,156.66l.93,3Z" fill="#909390"/><path d="M218.5,139.7c.31,1,.61,2,.91,3C219.11,141.7,218.81,140.7,218.5,139.7Z" fill="#909390"/><path d="M189.47,181.68h0Z" fill="#909390"/><path d="M260.25,174.58l-.89-.81Z" fill="#909390"/><path d="M261.36,175.59l-1-.9Z" fill="#909390"/><path d="M258.31,173.58l-.95-.84Z" fill="#909390"/><path d="M143.06,170.6l-1.48,1.07Z" fill="#182f18"/><path d="M234.09,157.09c3.61,7.8,7.37,15.54,10.78,23.43,1.73,4-2.17,10.1-5.83,9-5.22-1.63-8.94.79-13,2.85-.87.45-1.79.81-2.59,1.17-9.86-5.27-11.7-10.85-6-20.51,3.57-6.1,8-11.68,12.09-17.49C231.57,154.4,233.16,154.78,234.09,157.09Z" fill="#182f18"/><path d="M234.09,157.09l-4.62-1.58c-3.26-5.45-7.07-10.61-7.93-17.22-.67-5.17.33-7,4.72-7.6.78,4.05,1.36,8.16,2.42,12.13.43,1.63,1.89,3,2.88,4.46l4.92,7.28Z" fill="#d0d1d0"/><path d="M249.16,181.11l1.06-.66.19,2.31-.61.17Z" fill="#6b6c6b"/><path d="M180.52,329.25l4,.93Z" fill="#909390"/><path d="M174.48,328.29l3,.86Z" fill="#909390"/><path d="M81.67,302.34l.75,1-.41.24-.25-1.29Z" fill="#182f18"/><path d="M360.43,209.41c10.56-2.34,16.91.63,18.27,8.08-5.9,3.53-9.83-2.76-14.86-3.32C362.64,214,361.73,211.32,360.43,209.41Z" fill="#d0d1d0"/><path d="M177.6,276.35l0-6.94Z" fill="#909390"/></g></g></svg>