<svg xmlns="http://www.w3.org/2000/svg" viewBox="0 0 606.67 557.66"><g id="Warstwa_2" data-name="Warstwa 2"><circle cx="297.63" cy="432.66" r="125" fill="#f15a24"/><circle cx="297.63" cy="433.95" r="100" fill="#fbb03b"/><path d="M623.16,188.42C583.35,321.06,472.88,406.85,472.88,406.85l10.42,29.29-73.23-29.87,37.12-70.22,9,24.9s52.32-60.65-.19-106.81c-17.49-15.38,33.8,2,80.78-13.34S626.44,177.5,623.16,188.42Z" transform="translate(-26.39 -13.53)" fill="#8cc63f"/><circle cx="481.67" cy="125" r="125" fill="#8cc63f"/><circle cx="481.67" cy="125" r="100" fill="#d9e021"/><path d="M138,26.86C272.82-4.66,402.23,48.41,402.23,48.41l20.21-23.62L433,103.17l-79.38,2.77L370,85.73s-77.92-15.17-91.81,53.35C268.94,184.73,115.77,32.05,138,26.86Z" transform="translate(-26.39 -13.53)" fill="#29abe2"/><circle cx="125" cy="134.25" r="125" fill="#29abe2"/><circle cx="125" cy="134.25" r="100" fill="aqua"/><path d="M225.4,514.17C134.05,410.1,123.1,279.28,123.1,279.28l-40-2.9L153.64,218l39.86,68.7-26.9-4.91s24.71,75.87,91.68,55.82c23.09-6.91-19.88,32.7-32.73,82.23C213.57,466,232.66,522.44,225.4,514.17Z" transform="translate(-26.39 -13.53)" fill="#f15a24"/></g><g id="Warstwa_3" data-name="Warstwa 3"><path d="M148.15,86.44s-4.06,24.78-25.16,57.7c-1.34,2.08-6.11,7.63-9.39,15.54-4.42,10.65-5.25,25.78,2.73,37.07,12.73,18,43.28,19.42,59.17,2.89,13-13.48,11.2-28.76,6.15-41-3.51-8.55-8.53-13.89-12.82-19.43C154.31,120.48,148.15,86.44,148.15,86.44Z" transform="translate(-26.39 -13.53)" fill="#29abe2" stroke="#1d71b8" stroke-miterlimit="10" stroke-width="2.59"/><path d="M129.28,478c-7.41-11-7.88-12.21-10.34-25.38-.46-2.46-.71-8.13-.71-8.13s-5.28,12-2.55,21.27c3,10.12,17.76,17.12,17.76,17.12A44.76,44.76,0,0,1,129.28,478Z" transform="translate(-26.39 -13.53)" fill="#fff"/><path d="M299.76,408.77a28.29,28.29,0,0,1,1.13,13.51c-3.51,20.6-12,24.4-15.8,33.13a40.75,40.75,0,0,0,.68,33.6c9.16,19.14,45.45,23.67,67.8,14.13,14.36-6.14,16.92-13.07,19.94-23.66,3.82-13.42-.51-31.59-20.17-44-5.85-3.71-4.68-17.4-4.68-17.4s-5.74,2.87-9.52,14.3c-1.31,4-.27,9.23-.27,9.23s-1.16-2.27-4.56-11.12c-5.16-13.43,2.42-16.65-2.8-28.75-6.44-15-10.06-19.09-10.06-19.09s1.74,6.62-.73,20.15c-1.27,6.91-5.89,9.56-7.71,20.88-.86,5.37-.2,7.37-.2,7.37a22.1,22.1,0,0,1-4.1-11.08C308,412.63,299.76,408.77,299.76,408.77Z" transform="translate(-26.39 -13.53)" fill="#ed1c24" stroke="#7c1622" stroke-linecap="round" stroke-miterlimit="10" stroke-width="2.66"/><path d="M296.81,489.68c-2.42-5.57-1.86-12.07.21-17.78s7.75-12.57,7-22.56c2.91,4.72,8.16,9.05,8.88,14.56,0,0-1.36-3.29.41-9,1.7-5.55,6.16-13.77,5-19.46A28,28,0,0,1,324.42,456c-.52,4.29,5.05,10,5.05,10s6.6-4.14,7.47-9.08c2,3.88,1.3,3.73,3.86,7.26s7.66,8.49,8,12.83A28.65,28.65,0,0,1,346.59,492c-3.22,7.95-8.06,12.6-25.68,12.6-15.35,0-21.6-9.61-24.1-14.93" transform="translate(-26.39 -13.53)" fill="#f15a24"/><path d="M322.61,500.11c-2.53,0-5.18,0-7.7-1.82-3.08-2.18-5.2-5.9-4.15-9.33s2.43-4.54,5.05-9.17c1.95-3.43,4.42-6.94,4.42-6.94a23.37,23.37,0,0,0,5.33,8c3.49,3.35,6.39,4.08,8,6.75,1.85,3,1.21,6.85-1.45,9.81C329.65,500.15,325.94,500.13,322.61,500.11Z" transform="translate(-26.39 -13.53)" fill="#f7931e"/><path d="M506.87,64.79c-24.23,3.1-82.63,50.5-68.07,94.76,4.71,14.33,19.05,31.66,40.27,34.12,17,2,44.56-10,49.55-27.91,9.39-33.75-20.32-28.6-24.95-51.69C498,86,506.87,64.79,506.87,64.79Z" transform="translate(-26.39 -13.53)" fill="#04d704" stroke="#063" stroke-miterlimit="10" stroke-width="2.97"/><path d="M525.82,488.79" transform="translate(-26.39 -13.53)" fill="#006837" stroke="#063" stroke-miterlimit="10" stroke-width="1.37"/><path d="M534.71,475.47" transform="translate(-26.39 -13.53)" fill="#006837" stroke="#063" stroke-miterlimit="10" stroke-width="1.6"/><path d="M451.92,169.72a85.46,85.46,0,0,1,39.35,4.86,52.34,52.34,0,0,1,24.28-26.74" transform="translate(-26.39 -13.53)" fill="none" stroke="#008d36" stroke-linejoin="round" stroke-width="1.83"/><path d="M448.6,141.91a43.44,43.44,0,0,1,16.75.52,42.62,42.62,0,0,1,14.58,6.38c.21-3.51,6.52-15.23,19.82-19a18.45,18.45,0,0,1,3.2-.51" transform="translate(-26.39 -13.53)" fill="none" stroke="#008d36" stroke-linejoin="round" stroke-width="1.83"/><path d="M461.79,104.08a20.14,20.14,0,0,1,10,2.41,79.66,79.66,0,0,1,7.35,5.66h0a23.81,23.81,0,0,1,7.44-5,24.51,24.51,0,0,1,7.84-1.9" transform="translate(-26.39 -13.53)" fill="none" stroke="#008d36" stroke-linejoin="round" stroke-width="1.83"/><path d="M492.09,82.22c-5.29,8.76-16.31,15.42-13.73,57,1.37,22,14.23,38.14,26.15,49.77a116.27,116.27,0,0,0,34.8,23.29l.71-1.6a112.59,112.59,0,0,1-17-8.13A110.56,110.56,0,0,1,504.51,189" transform="translate(-26.39 -13.53)" fill="none" stroke="#063" stroke-linejoin="round" stroke-width="1.83"/><path d="M526.51,404.65" transform="translate(-26.39 -13.53)" fill="none" stroke="#063" stroke-linejoin="round" stroke-width="1.83"/></g></svg>