<svg xmlns="http://www.w3.org/2000/svg" viewBox="0 0 598.23 556.26"><g id="Warstwa_2" data-name="Warstwa 2"><circle cx="299.12" cy="125" r="125" fill="#f15a24"/><circle cx="299.12" cy="126.29" r="100" fill="#fbb03b"/><path d="M34.29,377.62C75,245.27,186.1,160.25,186.1,160.25l-10.22-29.36,73,30.38-37.61,70-9.2-24.34s-52.39,59.66-.21,106.19C236.65,344.08,27.58,399.41,34.29,377.62Z" transform="translate(-24.35 -4.6)" fill="#29abe2"/><circle cx="473.23" cy="421.94" r="125" fill="#8cc63f"/><circle cx="473.23" cy="421.94" r="100" fill="#d9e021"/><path d="M423.24,51.83C517.49,153.29,532.1,283.75,532.1,283.75l40,1.78L503.3,345.87l-41.78-67.56,27,4.16s-26.83-75.15-93.21-53.23c-22.89,7.56,19-33.24,30.4-83.11C436.42,99.64,415.76,43.77,423.24,51.83Z" transform="translate(-24.35 -4.6)" fill="#f15a24"/><circle cx="125" cy="421.94" r="125" fill="#29abe2"/><circle cx="125" cy="421.94" r="100" fill="aqua"/><path d="M511.67,551.27c-135,30.89-264.16-22.78-264.16-22.78L227.19,552,217,473.58l79.4-2.4-17.2,20.14S357.77,506.85,372,438.4c4.73-22.8,15,30.36,51.49,63.64S522.78,548.73,511.67,551.27Z" transform="translate(-24.35 -4.6)" fill="#8cc63f"/></g><g id="Warstwa_3" data-name="Warstwa 3"><path d="M146.11,365.19s-4.06,24.78-25.17,57.7c-1.33,2.08-6.1,7.63-9.38,15.54-4.42,10.65-5.26,25.78,2.73,37.07,12.73,18,43.28,19.42,59.16,2.89,13-13.48,11.21-28.76,6.16-41-3.52-8.55-8.53-13.89-12.83-19.43C152.27,399.23,146.11,365.19,146.11,365.19Z" transform="translate(-24.35 -4.6)" fill="#29abe2" stroke="#1d71b8" stroke-miterlimit="10" stroke-width="2.59"/><path d="M129.28,478c-7.41-11-7.88-12.21-10.34-25.38-.46-2.46-.71-8.13-.71-8.13s-5.28,12-2.55,21.27c3,10.12,17.76,17.12,17.76,17.12A44.76,44.76,0,0,1,129.28,478Z" transform="translate(-24.35 -4.6)" fill="#fff"/><path d="M299.2,92.18a28.24,28.24,0,0,1,1.13,13.5c-3.51,20.6-12,24.4-15.8,33.13a40.82,40.82,0,0,0,.68,33.6c9.16,19.15,45.45,23.68,67.8,14.13,14.37-6.13,16.92-13.07,19.94-23.66,3.83-13.42-.51-31.58-20.16-44-5.86-3.71-4.69-17.41-4.69-17.41s-5.74,2.88-9.51,14.3c-1.32,4-.27,9.23-.27,9.23s-1.17-2.27-4.57-11.12c-5.15-13.42,2.42-16.64-2.79-28.75C324.52,70.13,320.9,66,320.9,66s1.73,6.62-.74,20.14c-1.26,6.91-5.88,9.56-7.7,20.88-.87,5.37-.2,7.38-.2,7.38a22,22,0,0,1-4.11-11.08C307.41,96,299.2,92.18,299.2,92.18Z" transform="translate(-24.35 -4.6)" fill="#ed1c24" stroke="#7c1622" stroke-linecap="round" stroke-miterlimit="10" stroke-width="2.66"/><path d="M296.25,173.08c-2.42-5.56-1.86-12.07.22-17.77s7.74-12.58,6.95-22.57c2.92,4.73,8.17,9.06,8.89,14.57,0,0-1.36-3.3.4-9,1.71-5.54,6.16-13.77,5-19.46a28,28,0,0,1,6.11,20.54c-.51,4.3,5.05,9.95,5.05,9.95s6.6-4.14,7.48-9.08c2,3.88,1.3,3.74,3.85,7.27s7.66,8.48,8,12.82a28.71,28.71,0,0,1-2.24,15.1C342.81,183.36,338,188,320.35,188c-15.34,0-21.6-9.61-24.1-14.93" transform="translate(-24.35 -4.6)" fill="#f15a24"/><path d="M322.05,183.51c-2.53,0-5.17,0-7.7-1.81-3.08-2.18-5.2-5.9-4.14-9.34s2.42-4.54,5.05-9.16c1.95-3.43,4.42-6.94,4.42-6.94a23.45,23.45,0,0,0,5.32,8c3.5,3.35,6.39,4.09,8,6.75,1.85,3,1.21,6.85-1.45,9.82C329.09,183.55,325.38,183.53,322.05,183.51Z" transform="translate(-24.35 -4.6)" fill="#f7931e"/><path d="M496.39,352.79c-24.23,3.1-82.63,50.5-68.07,94.76,4.71,14.33,19.05,31.66,40.27,34.12,17,2,44.56-10,49.55-27.91,9.4-33.75-20.32-28.6-24.95-51.69C487.56,374,496.39,352.79,496.39,352.79Z" transform="translate(-24.35 -4.6)" fill="#04d704" stroke="#063" stroke-miterlimit="10" stroke-width="2.97"/><path d="M525.82,488.79" transform="translate(-24.35 -4.6)" fill="#006837" stroke="#063" stroke-miterlimit="10" stroke-width="1.37"/><path d="M534.71,475.47" transform="translate(-24.35 -4.6)" fill="#006837" stroke="#063" stroke-miterlimit="10" stroke-width="1.6"/><path d="M441.44,457.72a85.46,85.46,0,0,1,39.35,4.86,52.34,52.34,0,0,1,24.28-26.74" transform="translate(-24.35 -4.6)" fill="none" stroke="#008d36" stroke-linejoin="round" stroke-width="1.83"/><path d="M438.12,429.91a43.44,43.44,0,0,1,16.75.52,42.79,42.79,0,0,1,14.59,6.38c.2-3.51,6.51-15.23,19.81-19a18.45,18.45,0,0,1,3.2-.51" transform="translate(-24.35 -4.6)" fill="none" stroke="#008d36" stroke-linejoin="round" stroke-width="1.83"/><path d="M451.31,392.08a20.14,20.14,0,0,1,10,2.41,79.66,79.66,0,0,1,7.35,5.66h0a23.81,23.81,0,0,1,7.44-5,24.51,24.51,0,0,1,7.84-1.9" transform="translate(-24.35 -4.6)" fill="none" stroke="#008d36" stroke-linejoin="round" stroke-width="1.83"/><path d="M481.61,370.22c-5.29,8.76-16.31,15.42-13.73,57,1.37,22,14.23,38.14,26.15,49.77a116.27,116.27,0,0,0,34.8,23.29l.71-1.6a112.59,112.59,0,0,1-17-8.13A110.56,110.56,0,0,1,494,477" transform="translate(-24.35 -4.6)" fill="none" stroke="#063" stroke-linejoin="round" stroke-width="1.83"/><path d="M526.51,404.65" transform="translate(-24.35 -4.6)" fill="none" stroke="#063" stroke-linejoin="round" stroke-width="1.83"/></g></svg>